<?xml version="1.0" standalone="no"?>
<!DOCTYPE svg PUBLIC "-//W3C//DTD SVG 1.1//EN" "http://www.w3.org/Graphics/SVG/1.1/DTD/svg11.dtd" >
<svg>
<metadata>
Created by FontForge 20090914 at Thu Feb  1 15:10:08 2018
 By www-data
Copyright (c) 2013 by FONTYOU. All rights reserved. www.fontyou.com
</metadata>
<defs>
<font id="MarianinaFY-Regular" horiz-adv-x="413" >
  <font-face 
    font-family="MarianinaFY-Regular"
    font-weight="400"
    font-stretch="normal"
    units-per-em="1000"
    panose-1="2 0 5 6 0 0 0 2 0 4"
    ascent="772"
    descent="-228"
    x-height="508"
    cap-height="665"
    bbox="-141 -210.003 1187 875"
    underline-thickness="50"
    underline-position="-50"
    unicode-range="U+000D-U+FB04"
  />
<missing-glyph horiz-adv-x="602" 
d="M305 435c10.667 19.333 24.498 35 41.498 47s35.833 18 56.5 18c28.667 0 52.334 -9.83301 71.001 -29.5s28 -44.834 28 -75.501c0 -20 -4.5 -41.667 -13.5 -65s-22 -46.666 -39 -69.999s-38 -45.833 -63 -67.5s-53.5 -40.834 -85.5 -57.501
c-32 16.667 -60.5 35.834 -85.5 57.501s-46 44.167 -63 67.5s-30 46.666 -39 69.999s-13.5 45 -13.5 65c0 30.667 9.33301 55.834 28 75.501s42.334 29.5 71.001 29.5c20.667 0 39.5 -6 56.5 -18s30.833 -27.667 41.5 -47h8z" />
    <glyph glyph-name="f_f" unicode="ff" horiz-adv-x="540" 
d="M135 457l0.000976562 -457h-65v533c0 53.333 11.167 96.166 33.5 128.499s57.166 48.5 104.499 48.5c27.333 0 49.833 -4.16699 67.5 -12.5s32.167 -19.166 43.5 -32.499l-41 -36c-6 8 -14.167 15 -24.5 21s-23.5 9 -39.5 9c-16.667 0 -30.167 -3.5 -40.5 -10.5
s-18.333 -16 -24 -27s-9.5 -23.167 -11.5 -36.5s-3 -26 -3 -38v-39h129v-51h-129zM403.001 457l0.00195312 -457.001h-65v533c0 54 11.167 97 33.5 129s57.166 48 104.499 48c28 0 50.667 -4.16699 68 -12.5s31.666 -19.166 42.999 -32.499l-41 -36
c-6 8 -14.167 15 -24.5 21s-23.5 9 -39.5 9s-29.167 -3.5 -39.5 -10.5s-18.5 -16 -24.5 -27s-10 -23.167 -12 -36.5s-3 -26 -3 -38v-39h129v-51h-129z" />
    <glyph glyph-name="fi" unicode="fi" horiz-adv-x="470" 
d="M135 457l0.000976562 -457h-65v533c0 53.333 11.167 96.166 33.5 128.499s57.166 48.5 104.499 48.5c27.333 0 49.833 -4.16699 67.5 -12.5s32.167 -19.166 43.5 -32.499l-41 -36c-6 8 -14.167 15 -24.5 21s-23.5 9 -39.5 9c-16.667 0 -30.167 -3.5 -40.5 -10.5
s-18.333 -16 -24 -27s-9.5 -23.167 -11.5 -36.5s-3 -26 -3 -38v-39h129v-51h-129zM339.001 508h56l7 -65v-443h-63v508zM370.001 655c12 0 21.667 -3.66699 29 -11s11 -17 11 -29s-3.66699 -21.833 -11 -29.5s-17 -11.5 -29 -11.5s-21.833 3.83301 -29.5 11.5
s-11.5 17.5 -11.5 29.5s3.83301 21.667 11.5 29s17.5 11 29.5 11z" />
    <glyph glyph-name="fl" unicode="fl" horiz-adv-x="471" 
d="M135 457l0.000976562 -457h-65v533c0 53.333 11.167 96.166 33.5 128.499s57.166 48.5 104.499 48.5c27.333 0 49.833 -4.16699 67.5 -12.5s32.167 -19.166 43.5 -32.499l-41 -36c-6 8 -14.167 15 -24.5 21s-23.5 9 -39.5 9c-16.667 0 -30.167 -3.5 -40.5 -10.5
s-18.333 -16 -24 -27s-9.5 -23.167 -11.5 -36.5s-3 -26 -3 -38v-39h129v-51h-129zM402.001 645v-645h-58l-6 65v645h57z" />
    <glyph glyph-name="f_f_i" unicode="ffi" horiz-adv-x="739" 
d="M135 457l0.000976562 -457h-65v533c0 53.333 11.167 96.166 33.5 128.499s57.166 48.5 104.499 48.5c27.333 0 49.833 -4.16699 67.5 -12.5s32.167 -19.166 43.5 -32.499l-41 -36c-6 8 -14.167 15 -24.5 21s-23.5 9 -39.5 9c-16.667 0 -30.167 -3.5 -40.5 -10.5
s-18.333 -16 -24 -27s-9.5 -23.167 -11.5 -36.5s-3 -26 -3 -38v-39h129v-51h-129zM403.001 457l0.00195312 -457.001h-65v533c0 54 11.167 97 33.5 129s57.166 48 104.499 48c28 0 50.667 -4.16699 68 -12.5s31.666 -19.166 42.999 -32.499l-41 -36
c-6 8 -14.167 15 -24.5 21s-23.5 9 -39.5 9s-29.167 -3.5 -39.5 -10.5s-18.5 -16 -24.5 -27s-10 -23.167 -12 -36.5s-3 -26 -3 -38v-39h129v-51h-129zM607.003 507.999h57l7 -65v-443h-64v508zM639.003 654.999c12 0 21.667 -3.66699 29 -11s11 -17 11 -29
s-3.66699 -21.833 -11 -29.5s-17 -11.5 -29 -11.5c-12.667 0 -22.834 3.83301 -30.501 11.5s-11.5 17.5 -11.5 29.5s3.83301 21.667 11.5 29s17.834 11 30.501 11z" />
    <glyph glyph-name="f_f_l" unicode="ffl" horiz-adv-x="740" 
d="M135 457l0.000976562 -457h-65v533c0 53.333 11.167 96.166 33.5 128.499s57.166 48.5 104.499 48.5c27.333 0 49.833 -4.16699 67.5 -12.5s32.167 -19.166 43.5 -32.499l-41 -36c-6 8 -14.167 15 -24.5 21s-23.5 9 -39.5 9c-16.667 0 -30.167 -3.5 -40.5 -10.5
s-18.333 -16 -24 -27s-9.5 -23.167 -11.5 -36.5s-3 -26 -3 -38v-39h129v-51h-129zM403.001 457l0.00195312 -457.001h-65v533c0 54 11.167 97 33.5 129s57.166 48 104.499 48c28 0 50.667 -4.16699 68 -12.5s31.666 -19.166 42.999 -32.499l-41 -36
c-6 8 -14.167 15 -24.5 21s-23.5 9 -39.5 9s-29.167 -3.5 -39.5 -10.5s-18.5 -16 -24.5 -27s-10 -23.167 -12 -36.5s-3 -26 -3 -38v-39h129v-51h-129zM671.003 644.999v-645h-58l-6 65v645h57z" />
    <glyph glyph-name=".notdef" horiz-adv-x="602" 
d="M305 435c10.667 19.333 24.498 35 41.498 47s35.833 18 56.5 18c28.667 0 52.334 -9.83301 71.001 -29.5s28 -44.834 28 -75.501c0 -20 -4.5 -41.667 -13.5 -65s-22 -46.666 -39 -69.999s-38 -45.833 -63 -67.5s-53.5 -40.834 -85.5 -57.501
c-32 16.667 -60.5 35.834 -85.5 57.501s-46 44.167 -63 67.5s-30 46.666 -39 69.999s-13.5 45 -13.5 65c0 30.667 9.33301 55.834 28 75.501s42.334 29.5 71.001 29.5c20.667 0 39.5 -6 56.5 -18s30.833 -27.667 41.5 -47h8z" />
    <glyph glyph-name=".null" horiz-adv-x="0" 
 />
    <glyph glyph-name=".null" horiz-adv-x="0" 
 />
    <glyph glyph-name="nonmarkingreturn" unicode="&#xd;" horiz-adv-x="0" 
 />
    <glyph glyph-name="space" unicode=" " horiz-adv-x="180" 
 />
    <glyph glyph-name="exclam" unicode="!" horiz-adv-x="286" 
d="M175 665v-510h-58l-6 68v442h64zM99 36c0 12.667 4 22.667 12 30s18.333 11 31 11c13.333 0 23.833 -3.66699 31.5 -11s11.5 -17.333 11.5 -30s-3.83301 -22.667 -11.5 -30s-18.167 -11 -31.5 -11c-12.667 0 -23 3.66699 -31 11s-12 17.333 -12 30z" />
    <glyph glyph-name="quotedbl" unicode="&#x22;" horiz-adv-x="320" 
d="M121 480h-46l-10 199h66zM245 480h-46l-10 199h66z" />
    <glyph glyph-name="numbersign" unicode="#" horiz-adv-x="567" 
d="M109 187h-78v49h94l67 203h-76v49h92l58 177h54l-58 -177h141l58 177h55l-58 -177h77v-49h-93l-66 -203h75v-49h-91l-60 -187h-55l60 187h-141l-61 -187h-55zM180 236h141l66 203h-141z" />
    <glyph glyph-name="dollar" unicode="$" horiz-adv-x="392" 
d="M52 530c0 15.333 2.16699 30.665 6.5 45.998s11 29.333 20 42s20.5 23.5 34.5 32.5s31 15.167 51 18.5v61h63v-60c36 -5.33301 63.833 -20.166 83.5 -44.499s29.5 -60.166 29.5 -107.499v-21h-64v25c0 12 -1.16699 23.833 -3.5 35.5s-6.5 22.167 -12.5 31.5
s-14.167 16.833 -24.5 22.5s-23.5 8.5 -39.5 8.5c-24.667 0 -44 -8.83301 -58 -26.5s-21 -38.5 -21 -62.5v-30c0 -22.667 6 -42.667 18 -60s34 -36 66 -56c18.667 -12.667 36.5 -25.5 53.5 -38.5s31.833 -27.333 44.5 -43s22.667 -32.667 30 -51s11 -39.166 11 -62.499v-54
c0 -35.333 -9.83301 -66.333 -29.5 -93s-47.5 -42.667 -83.5 -48v-60h-63v60c-36 6.66699 -63.667 21.667 -83 45s-29 59.333 -29 108v20h65v-25c0 -12 1.16699 -24 3.5 -36s6.33301 -22.5 12 -31.5s13.667 -16.333 24 -22s23.5 -8.5 39.5 -8.5
c26 0 45.833 9.16699 59.5 27.5s20.5 39.5 20.5 63.5v45c0 31.333 -9 58.166 -27 80.499s-44 44.5 -78 66.5c-36 23.333 -64.833 47.333 -86.5 72s-32.5 56.667 -32.5 96v34z" />
    <glyph glyph-name="percent" unicode="%" horiz-adv-x="746" 
d="M266 377c0 -32.667 -8.66699 -59.667 -26 -81s-44.333 -32 -81 -32c-36 0 -62.667 10.667 -80 32s-26 48.333 -26 81v185c0 32 8.66699 58.833 26 80.5s44 32.5 80 32.5c36.667 0 63.667 -10.833 81 -32.5s26 -48.5 26 -80.5v-185zM210 568
c0 15.333 -3.66699 29.333 -11 42s-20.666 19 -39.999 19s-32.666 -6.33301 -39.999 -19s-11 -26.667 -11 -42v-197c0 -14 3.66699 -27.667 11 -41s20.666 -20 39.999 -20s32.666 6.66699 39.999 20s11 27 11 41v197zM227 0h-55l347 665h55zM693 107
c0 -32.667 -8.66699 -59.667 -26 -81s-44.333 -32 -81 -32c-36 0 -62.667 10.667 -80 32s-26 48.333 -26 81v185c0 32 8.66699 58.833 26 80.5s44 32.5 80 32.5c36.667 0 63.667 -10.833 81 -32.5s26 -48.5 26 -80.5v-185zM637 298c0 15.333 -3.66699 29.333 -11 42
s-20.666 19 -39.999 19s-32.666 -6.33301 -39.999 -19s-11 -26.667 -11 -42v-197c0 -14 3.66699 -27.667 11 -41s20.666 -20 39.999 -20s32.666 6.66699 39.999 20s11 27 11 41v197z" />
    <glyph glyph-name="ampersand" unicode="&#x26;" horiz-adv-x="470" 
d="M316 55c-9.33301 -18 -22.502 -33.333 -39.502 -46s-41.5 -19 -73.5 -19c-44 0 -77.167 12.167 -99.5 36.5s-33.5 62.166 -33.5 113.499v40c0 22.667 3.16699 42.667 9.5 60s15.166 33 26.499 47s25.166 26.833 41.499 38.5s34.5 23.834 54.5 36.501
c36 22.667 62 44.167 78 64.5s24 44.166 24 71.499v24c0 12 -1.5 23.833 -4.5 35.5s-7.66699 22.167 -14 31.5s-15 16.833 -26 22.5s-24.5 8.5 -40.5 8.5s-29.5 -2.83301 -40.5 -8.5s-19.667 -13.167 -26 -22.5s-11 -19.833 -14 -31.5s-4.5 -23.5 -4.5 -35.5v-32
c0 -26 5.83301 -47.167 17.5 -63.5s25.834 -28.833 42.501 -37.5l-48 -37c-10 6 -19.5 13.333 -28.5 22s-17 19 -24 31s-12.667 25.5 -17 40.5s-6.5 32.167 -6.5 51.5v24c0 46 12.833 83.167 38.5 111.5s62.834 42.5 111.501 42.5c24.667 0 46.334 -3.66699 65.001 -11
s34 -17.5 46 -30.5s21 -28.5 27 -46.5s9 -37.333 9 -58v-30c0 -19.333 -2.5 -36.5 -7.5 -51.5s-12.5 -29.333 -22.5 -43s-22.667 -26.667 -38 -39s-33.666 -25.5 -54.999 -39.5l-43 -29c-13.333 -9.33301 -25 -19.666 -35 -30.999s-17.833 -24.166 -23.5 -38.499
s-8.5 -31.5 -8.5 -51.5v-33c0 -26 6.33301 -48.833 19 -68.5s34.334 -29.5 65.001 -29.5s52.667 9.83301 66 29.5s20 43.5 20 71.5v75h63v-76c0 -25.333 2.5 -48.5 7.5 -69.5s12.5 -39.333 22.5 -55s22.667 -27.834 38 -36.501s33.666 -13 54.999 -13v-56
c-27.333 0 -51 3.66699 -71 11s-37 17.333 -51 30s-25 27.5 -33 44.5s-13 35.167 -15 54.5h-4z" />
    <glyph glyph-name="quotesingle" unicode="'" horiz-adv-x="196" 
d="M121 480h-46l-10 199h66z" />
    <glyph glyph-name="parenleft" unicode="(" horiz-adv-x="307" 
d="M90 599c0 28 3 53.335 9 76.002s15.667 42 29 58s30.666 28.333 51.999 37s47.333 13 78 13h24v-56h-24c-69.333 0 -104 -44.333 -104 -133v-511c0 -88 34.667 -132 104 -132h24v-56h-24c-30.667 0 -56.667 4.16699 -78 12.5s-38.666 20.166 -51.999 35.499
s-23 34.166 -29 56.499s-9 47.5 -9 75.5v524z" />
    <glyph glyph-name="parenright" unicode=")" horiz-adv-x="307" 
d="M216 75c0 -56 -12.667 -100 -38 -132s-68.333 -48 -129 -48h-24v56h24c69.333 0 104 44 104 132v508c0 44 -8.33301 77.667 -25 101s-43 35 -79 35h-24v56h24c30.667 0 56.5 -4.5 77.5 -13.5s38.167 -21.833 51.5 -38.5s23 -36.5 29 -59.5s9 -48.5 9 -76.5v-520z" />
    <glyph glyph-name="asterisk" unicode="*" horiz-adv-x="297" 
d="M32 566l85 40v4l-85 39l22 38l76 -56l4 3l-7 95h44l-11 -94l4 -3l79 55l22 -38l-87 -42v-4l87 -37l-22 -38l-79 55l-3 -3l10 -94h-44l9 94l-3 1l-79 -53z" />
    <glyph glyph-name="plus" unicode="+" horiz-adv-x="412" 
d="M83 330h95v95h56v-95h95v-56h-95v-95h-56v95h-95v56z" />
    <glyph glyph-name="comma" unicode="," horiz-adv-x="200" 
d="M85 -114h-39l34 180h67z" />
    <glyph glyph-name="hyphen" unicode="-" horiz-adv-x="271" 
d="M50 350h171v-57h-171v57z" />
    <glyph glyph-name="period" unicode="." horiz-adv-x="199" 
d="M57 36c0 12.667 3.83301 22.667 11.5 30s18.167 11 31.5 11c12.667 0 22.834 -3.66699 30.501 -11s11.5 -17.333 11.5 -30s-3.83301 -22.667 -11.5 -30s-17.834 -11 -30.501 -11c-13.333 0 -23.833 3.66699 -31.5 11s-11.5 17.333 -11.5 30z" />
    <glyph glyph-name="slash" unicode="/" horiz-adv-x="329" 
d="M66 -89h-57l255 799h56z" />
    <glyph glyph-name="zero" unicode="0" horiz-adv-x="412" 
d="M354 171c0 -58.667 -12.333 -103.5 -37 -134.5s-62 -46.5 -112 -46.5s-87 15.5 -111 46.5s-36 75.833 -36 134.5v323c0 58.667 12.167 103.5 36.5 134.5s61.5 46.5 111.5 46.5s87.167 -15.5 111.5 -46.5s36.5 -75.833 36.5 -134.5v-323zM290 502
c0 14 -1.33691 28.166 -4.00391 42.499s-7.16699 27 -13.5 38s-15 20 -26 27s-24.5 10.5 -40.5 10.5c-16.667 0 -30.5 -3.5 -41.5 -10.5s-19.667 -16 -26 -27s-10.833 -23.667 -13.5 -38s-4 -28.5 -4 -42.5v-338c0 -14 1.33301 -28.167 4 -42.5
s7.16699 -27.166 13.5 -38.499s14.833 -20.5 25.5 -27.5s24.334 -10.5 41.001 -10.5s30.334 3.5 41.001 10.5s19.334 16.167 26.001 27.5s11.334 24 14.001 38s4 28.333 4 43v338z" />
    <glyph glyph-name="one" unicode="1" horiz-adv-x="328" 
d="M178 0v601l-120 -83l-38 43l145 104h76v-665h-63z" />
    <glyph glyph-name="two" unicode="2" horiz-adv-x="391" 
d="M44 506v16c0 48.667 12.833 86.334 38.5 113.001s63.5 40 113.5 40c52 0 89.333 -12.667 112 -38s34 -62 34 -110v-20c0 -34 -8.5 -69 -25.5 -105s-39.833 -76.667 -68.5 -122l-141 -225h235v-55h-297v64l131 210c36 54.667 62 99.667 78 135s24 67.666 24 96.999v19
c0 30 -6.5 53.333 -19.5 70s-33.833 25 -62.5 25c-32 0 -54.667 -8.83301 -68 -26.5s-20 -41.167 -20 -70.5v-17h-64z" />
    <glyph glyph-name="three" unicode="3" horiz-adv-x="397" 
d="M276 521c0 12 -1.49902 23.835 -4.49902 35.502s-7.66699 22.167 -14 31.5s-15 17 -26 23s-24.5 9 -40.5 9s-29.333 -3 -40 -9s-19.334 -13.667 -26.001 -23s-11.5 -19.833 -14.5 -31.5s-4.5 -23.5 -4.5 -35.5v-20h-64v13c0 49.333 12.333 88.5 37 117.5
s62 43.5 112 43.5s87.333 -13.167 112 -39.5s37 -61.833 37 -106.5v-40c0 -34.667 -7.33301 -63.334 -22 -86.001s-35.334 -38.667 -62.001 -48v-4c26 -8.66699 46.5 -23.5 61.5 -44.5s22.5 -50.5 22.5 -88.5v-68c0 -49.333 -13.667 -88.333 -41 -117s-63.333 -43 -108 -43
c-50 0 -87.333 13.333 -112 40s-37 65 -37 115v19h64v-20c0 -12.667 1.5 -24.834 4.5 -36.501s7.66699 -22.167 14 -31.5s15 -16.833 26 -22.5s24.5 -8.5 40.5 -8.5s29.5 3.33301 40.5 10s19.667 15 26 25s11 21.167 14 33.5s4.5 24.5 4.5 36.5v70
c0 29.333 -7.5 54.166 -22.5 74.499s-39.167 30.5 -72.5 30.5h-40v54h40c16.667 0 31 3 43 9s21.833 13.833 29.5 23.5s13.334 20.834 17.001 33.501s5.5 25.667 5.5 39v37z" />
    <glyph glyph-name="four" unicode="4" horiz-adv-x="389" 
d="M266 151h-237v67l213 447h63l-217 -459h178v124h63v-330h-63v151z" />
    <glyph glyph-name="five" unicode="5" horiz-adv-x="409" 
d="M53 665l298.001 0.00195312v-56h-234v-211c9.33301 14 22.666 26.833 39.999 38.5s40 17.5 68 17.5c84 0 126 -54.667 126 -164v-135c0 -24 -3 -46 -9 -66s-15.167 -37.333 -27.5 -52s-27.833 -26.167 -46.5 -34.5s-40.667 -12.5 -66 -12.5c-50 0 -87.333 14.5 -112 43.5
s-37 67.167 -37 114.5v16h64v-18c0 -11.333 1.5 -23 4.5 -35s7.66699 -22.833 14 -32.5s15 -17.667 26 -24s24.5 -9.5 40.5 -9.5s29.5 3.16699 40.5 9.5s19.833 14.666 26.5 24.999s11.5 21.833 14.5 34.5s4.5 25.667 4.5 39v149c0 12 -1.5 23.667 -4.5 35
s-7.66699 21.666 -14 30.999s-14.333 16.833 -24 22.5s-21.5 8.5 -35.5 8.5c-13.333 0 -24.833 -2.33301 -34.5 -7s-18 -10.5 -25 -17.5s-13 -14.667 -18 -23s-8.83301 -16.5 -11.5 -24.5h-68v338z" />
    <glyph glyph-name="six" unicode="6" 
d="M292 503l0.00195312 15.999c0 12.667 -1.5 25 -4.5 37s-7.83301 22.833 -14.5 32.5s-15.334 17.334 -26.001 23.001s-23.667 8.5 -39 8.5c-16 0 -29.667 -3.33301 -41 -10s-20.333 -15.5 -27 -26.5s-11.5 -23.167 -14.5 -36.5s-4.5 -26.666 -4.5 -39.999v-152
c8.66699 15.333 22.167 28.666 40.5 39.999s40.166 17 65.499 17c85.333 0 128 -52.333 128 -157v-101c0 -52 -12.333 -92.333 -37 -121s-61.667 -43 -111 -43c-50 0 -87.333 14.5 -112 43.5s-37 69.5 -37 121.5v348c0 51.333 12.5 92.833 37.5 124.5s62.5 47.5 112.5 47.5
c98 0 147 -52.667 147 -158v-14h-63zM206.002 44.999c16 0 29.499 2.83398 40.499 8.50098s19.833 13.167 26.5 22.5s11.5 20 14.5 32s4.5 24.667 4.5 38v110c0 12 -1.33301 24.167 -4 36.5s-7 23.166 -13 32.499s-14.333 17 -25 23s-24 9 -40 9s-29.667 -2.83301 -41 -8.5
s-20.5 -13.167 -27.5 -22.5s-12.167 -19.833 -15.5 -31.5s-5 -23.5 -5 -35.5v-113c0 -12 1.5 -24 4.5 -36s7.83301 -22.833 14.5 -32.5s15.334 -17.5 26.001 -23.5s24 -9 40 -9z" />
    <glyph glyph-name="seven" unicode="7" horiz-adv-x="366" 
d="M58 0l220 609h-253v56h309v-67l-213 -598h-63z" />
    <glyph glyph-name="eight" unicode="8" 
d="M58 525c0 46 12.3291 82.4961 36.9961 109.496s62 40.5 112 40.5s87.167 -13.167 111.5 -39.5s36.5 -60.833 36.5 -103.5v-43c0 -16 -2.66699 -30.667 -8 -44s-12.666 -25.666 -21.999 -36.999s-20.5 -22.166 -33.5 -32.499s-27.167 -20.833 -42.5 -31.5
c14.667 -10.667 28.5 -21.667 41.5 -33s24.167 -23.666 33.5 -36.999s16.833 -28.166 22.5 -44.499s8.5 -34.833 8.5 -55.5v-36c0 -44 -12.833 -79.667 -38.5 -107s-62.167 -41 -109.5 -41c-50 0 -87.333 13 -112 39s-37 60.333 -37 103v44c0 19.333 2.66699 37 8 53
s12.833 30.667 22.5 44s20.834 25.666 33.501 36.999s26.334 22.333 41.001 33c-31.333 21.333 -56.666 43.333 -75.999 66s-29 50.334 -29 83.001v33zM120.996 136.996c0 -10.667 1.49902 -21.3359 4.49902 -32.0029s7.83301 -20.5 14.5 -29.5s15.5 -16.333 26.5 -22
s24.5 -8.5 40.5 -8.5s29.333 2.83301 40 8.5s19.334 13 26.001 22s11.5 18.833 14.5 29.5s4.5 21.334 4.5 32.001v43c0 28 -8.33301 52.333 -25 73s-36.667 38.667 -60 54c-24 -15.333 -44.333 -32.666 -61 -51.999s-25 -44.666 -25 -75.999v-42zM120.995 494.994
c0 -23.333 7.33398 -43.667 22.001 -61s36 -35 64 -53c28 18 49.167 35.167 63.5 51.5s21.5 37.166 21.5 62.499v33c0 10.667 -1.5 21.334 -4.5 32.001s-7.83301 20.5 -14.5 29.5s-15.334 16.333 -26.001 22s-24 8.5 -40 8.5s-29.5 -2.66699 -40.5 -8
s-19.833 -12.5 -26.5 -21.5s-11.5 -19 -14.5 -30s-4.5 -21.833 -4.5 -32.5v-33z" />
    <glyph glyph-name="nine" unicode="9" 
d="M123 162l-0.00292969 -15.999c0 -12 1.33301 -24 4 -36s7.16699 -22.833 13.5 -32.5s14.833 -17.5 25.5 -23.5s24.334 -9 41.001 -9c16 0 29.333 3.16699 40 9.5s19.334 14.666 26.001 24.999s11.5 22 14.5 35s4.5 25.833 4.5 38.5v159
c-10.667 -17.333 -25 -31.5 -43 -42.5s-39.667 -16.5 -65 -16.5c-41.333 0 -72.666 12.5 -93.999 37.5s-32 64.167 -32 117.5v99c0 52 12.333 93 37 123s62 45 112 45s87.167 -15.167 111.5 -45.5s36.5 -71.5 36.5 -123.5v-347c0 -50.667 -12.167 -91.5 -36.5 -122.5
s-61.5 -46.5 -111.5 -46.5s-87.333 13.5 -112 40.5s-37 65.833 -37 116.5v15h65zM206.997 620.001c-16 0 -29.499 -2.99902 -40.499 -8.99902s-19.667 -14 -26 -24s-10.833 -21.167 -13.5 -33.5s-4 -24.833 -4 -37.5v-110c0 -12.667 1.33301 -24.834 4 -36.501
s7.16699 -22 13.5 -31s14.833 -16.333 25.5 -22s23.667 -8.5 39 -8.5s28.5 2.83301 39.5 8.5s20 13.167 27 22.5s12.167 19.833 15.5 31.5s5 23.5 5 35.5v110c0 12.667 -1.5 25.167 -4.5 37.5s-7.83301 23.5 -14.5 33.5s-15.334 18 -26.001 24s-24 9 -40 9z" />
    <glyph glyph-name="colon" unicode=":" horiz-adv-x="199" 
d="M57 36c0 12.667 3.83301 22.667 11.5 30s18.167 11 31.5 11c12.667 0 22.834 -3.66699 30.501 -11s11.5 -17.333 11.5 -30s-3.83301 -22.667 -11.5 -30s-17.834 -11 -30.501 -11c-13.333 0 -23.833 3.66699 -31.5 11s-11.5 17.333 -11.5 30zM57 437
c0 12.667 3.83301 22.667 11.5 30s18.167 11 31.5 11c12.667 0 22.834 -3.66699 30.501 -11s11.5 -17.333 11.5 -30s-3.83301 -22.667 -11.5 -30s-17.834 -11 -30.501 -11c-13.333 0 -23.833 3.66699 -31.5 11s-11.5 17.333 -11.5 30z" />
    <glyph glyph-name="semicolon" unicode=";" horiz-adv-x="206" 
d="M64 437c0 12.667 3.83301 22.667 11.5 30s18.167 11 31.5 11c12.667 0 22.834 -3.66699 30.501 -11s11.5 -17.333 11.5 -30s-3.83301 -22.667 -11.5 -30s-17.834 -11 -30.501 -11c-13.333 0 -23.833 3.66699 -31.5 11s-11.5 17.333 -11.5 30zM83 -114h-39l34 180h67z" />
    <glyph glyph-name="less" unicode="&#x3c;" horiz-adv-x="412" 
d="M77 338l246 120v-60l-185 -86l185 -86v-60l-246 120v52z" />
    <glyph glyph-name="equal" unicode="=" horiz-adv-x="412" 
d="M83 390h246v-56h-246v56zM83 270h246v-56h-246v56z" />
    <glyph glyph-name="greater" unicode="&#x3e;" horiz-adv-x="412" 
d="M335 286l-246 -120v60l185 86l-185 86v60l246 -120v-52z" />
    <glyph glyph-name="question" unicode="?" horiz-adv-x="402" 
d="M59 488v44.002c0 44 12.333 78.833 37 104.5s61 38.5 109 38.5c46.667 0 81.334 -11.667 104.001 -35s34 -53 34 -89v-44c0 -16 -1.16699 -30.167 -3.5 -42.5s-6.5 -23.833 -12.5 -34.5s-14.167 -21.334 -24.5 -32.001s-23.166 -22.334 -38.499 -35.001
c-14.667 -12 -26 -23.333 -34 -34s-14 -22 -18 -34s-6.33301 -25.333 -7 -40s-1 -31.667 -1 -51v-49h-63v55c0 24.667 0.833008 45.834 2.5 63.501s5.16699 33.167 10.5 46.5s13 25.833 23 37.5s23.333 24.5 40 38.5c14 10.667 25 20.834 33 30.501s14.167 19.167 18.5 28.5
s7.16602 18.666 8.49902 27.999s2 19 2 29v32c0 21.333 -6.33301 39.166 -19 53.499s-31.334 21.5 -56.001 21.5s-44.5 -7.16699 -59.5 -21.5s-22.5 -36.833 -22.5 -67.5v-42h-63zM130 36.002c0 12.667 4 22.667 12 30s18.333 11 31 11c13.333 0 23.833 -3.66699 31.5 -11
s11.5 -17.333 11.5 -30s-3.83301 -22.667 -11.5 -30s-18.167 -11 -31.5 -11c-12.667 0 -23 3.66699 -31 11s-12 17.333 -12 30z" />
    <glyph glyph-name="at" unicode="@" horiz-adv-x="704" 
d="M348 233c-24.667 0 -42.333 -6.00098 -53 -18.001s-16 -31.333 -16 -58c0 -19.333 3.83301 -36.166 11.5 -50.499s23.167 -21.5 46.5 -21.5c20 0 36.667 6 50 18s22.333 26.667 27 44v69l-31 11c-11.333 4 -23 6 -35 6zM360.001 -124.001l-17.999 0.00195312
c-91.333 0 -159.5 19.833 -204.5 59.5s-67.5 97.834 -67.5 174.501v251c0 34.667 5.33301 67.834 16 99.501s27.5 59.667 50.5 84s52.5 43.666 88.5 57.999s79.333 21.5 130 21.5c50 0 92.667 -7.33301 128 -22s64.166 -34.167 86.499 -58.5s38.5 -52.333 48.5 -84
s15 -64.5 15 -98.5v-196c0 -40 -10 -70.833 -30 -92.5s-48.333 -32.5 -85 -32.5c-41.333 0 -71.333 19.333 -90 58c-10 -17.333 -23.833 -31.333 -41.5 -42s-37.834 -16 -60.501 -16c-72.667 0 -109 38.667 -109 116c0 22.667 2.83301 41.667 8.5 57
s13.334 27.666 23.001 36.999s20.834 16.166 33.501 20.499s26 6.5 40 6.5c21.333 0 39 -2.66699 53 -8s27 -11.666 39 -18.999v62c0 12.667 -0.833008 25 -2.5 37s-4.66699 22.833 -9 32.5s-10.833 17.334 -19.5 23.001s-20 8.5 -34 8.5c-24 0 -41.667 -7.5 -53 -22.5
s-17 -35.833 -17 -62.5v-9h-57v8c0 15.333 2 31.166 6 47.499s10.833 31.166 20.5 44.499s22.667 24.166 39 32.499s37.166 12.5 62.499 12.5c42 0 73 -13 93 -39s30 -63.333 30 -112v-164c0 -18.667 4.16699 -33.667 12.5 -45s21.166 -17 38.499 -17
c19.333 0 33.5 6 42.5 18s13.5 27.667 13.5 47v210c0 27.333 -4 53.833 -12 79.5s-20.833 48.5 -38.5 68.5s-41 36 -70 48s-64.5 18 -106.5 18c-41.333 0 -76.5 -6 -105.5 -18s-52.667 -28 -71 -48s-31.666 -42.833 -39.999 -68.5s-12.5 -52.167 -12.5 -79.5v-249
c0 -60 18 -106.5 54 -139.5s91.333 -49.5 166 -49.5h16v-48z" />
    <glyph glyph-name="A" unicode="A" horiz-adv-x="420" 
d="M28 0l144 665h76l144 -665h-66l-34 164h-166l-35 -164h-63zM133 218h151l-74 354h-3z" />
    <glyph glyph-name="B" unicode="B" horiz-adv-x="420" 
d="M367 161c0 -52 -12.333 -91.832 -37 -119.499s-62 -41.5 -112 -41.5h-148v665h131c49.333 0 87.333 -12.167 114 -36.5s40 -62.5 40 -114.5v-27c0 -34 -6.33301 -60.167 -19 -78.5s-29 -32.833 -49 -43.5c30.667 -11.333 51.667 -29.833 63 -55.5s17 -53.834 17 -84.501
v-64zM304 233.001c0 11.333 -1.33203 22.832 -3.99902 34.499s-7.33398 22.334 -14.001 32.001s-15.167 17.5 -25.5 23.5s-22.833 9 -37.5 9h-90v-277h85c16 0 29.5 2.83301 40.5 8.5s19.833 13.167 26.5 22.5s11.5 19.833 14.5 31.5s4.5 23.5 4.5 35.5v80zM291.001 523
c0 25.333 -7.16797 46 -21.501 62s-37.166 24 -68.499 24h-68v-224h70c30 0 52.167 8.5 66.5 25.5s21.5 38.167 21.5 63.5v49z" />
    <glyph glyph-name="C" unicode="C" horiz-adv-x="394" 
d="M292 496v18c0 11.333 -1.5 23.166 -4.5 35.499s-7.83301 23.833 -14.5 34.5s-15.334 19.334 -26.001 26.001s-24 10 -40 10c-15.333 0 -28.5 -3.5 -39.5 -10.5s-19.833 -16.167 -26.5 -27.5s-11.5 -24 -14.5 -38s-4.5 -28 -4.5 -42v-339c0 -15.333 1.5 -30 4.5 -44
s7.83301 -26.5 14.5 -37.5s15.5 -19.833 26.5 -26.5s24.167 -10 39.5 -10c16 0 29.333 3.33301 40 10s19.334 15 26.001 25s11.5 21.333 14.5 34s4.5 25 4.5 37v18h63v-9c0 -51.333 -12.5 -92.5 -37.5 -123.5s-61.833 -46.5 -110.5 -46.5c-50 0 -87.167 15.5 -111.5 46.5
s-36.5 75.833 -36.5 134.5v323c0 58.667 12.167 103.5 36.5 134.5s61.5 46.5 111.5 46.5s87.167 -15.5 111.5 -46.5s36.5 -72.5 36.5 -124.5v-8h-63z" />
    <glyph glyph-name="D" unicode="D" horiz-adv-x="428" 
d="M369 161c0 -52 -12.333 -91.833 -37 -119.5s-62 -41.5 -112 -41.5h-150v665h150c50 0 87.333 -13.833 112 -41.5s37 -67.5 37 -119.5v-343zM306 512c0 12 -1.5 23.668 -4.5 35.001s-8 21.666 -15 30.999s-15.833 16.833 -26.5 22.5s-24 8.5 -40 8.5h-87v-554h87
c16 0 29.333 2.83301 40 8.5s19.5 13.167 26.5 22.5s12 19.833 15 31.5s4.5 23.5 4.5 35.5v359z" />
    <glyph glyph-name="E" unicode="E" horiz-adv-x="358" 
d="M329 609h-196v-224h163v-55h-163v-275h196v-55h-259v665h259v-56z" />
    <glyph glyph-name="F" unicode="F" horiz-adv-x="354" 
d="M70 0v665h259v-56h-196v-224h163v-55h-163v-330h-63z" />
    <glyph glyph-name="G" unicode="G" horiz-adv-x="411" 
d="M219 321v54.9971h139v-205c0 -58.667 -12.5 -103.5 -37.5 -134.5s-62.5 -46.5 -112.5 -46.5s-87.5 15.5 -112.5 46.5s-37.5 75.833 -37.5 134.5v323c0 58.667 12.5 103.5 37.5 134.5s62.167 46.5 111.5 46.5c50.667 0 88.5 -14.833 113.5 -44.5s37.5 -70.5 37.5 -122.5
v-11h-64v17c0 12 -1.5 24.333 -4.5 37s-7.83301 24 -14.5 34s-15.5 18.333 -26.5 25s-24.5 10 -40.5 10s-29.5 -3.16699 -40.5 -9.5s-20 -15 -27 -26s-12 -23.667 -15 -38s-4.5 -29.166 -4.5 -44.499v-338c0 -15.333 1.5 -30.166 4.5 -44.499s8 -27 15 -38
s15.833 -19.833 26.5 -26.5s24 -10 40 -10s29.5 3.16699 40.5 9.5s20 14.833 27 25.5s12 23.334 15 38.001s4.5 30 4.5 46v157h-75z" />
    <glyph glyph-name="H" unicode="H" horiz-adv-x="450" 
d="M317 0v328h-184v-328h-63v665h63v-282h184v282h64v-665h-64z" />
    <glyph glyph-name="I" unicode="I" horiz-adv-x="203" 
d="M70 0v665h63v-665h-63z" />
    <glyph glyph-name="J" unicode="J" horiz-adv-x="256" 
d="M29 44c18 0.666992 33.166 4.16895 45.499 10.502s22.333 14.5 30 24.5s13 21.167 16 33.5s4.5 25.166 4.5 38.499v514h63v-506c0 -52.667 -13.167 -93.334 -39.5 -122.001s-66.166 -44.667 -119.499 -48v55z" />
    <glyph glyph-name="K" unicode="K" horiz-adv-x="419" 
d="M237 389l166 -389h-67l-140 330l-63 -99v-231h-63v665h63v-343l198 343h66z" />
    <glyph glyph-name="L" unicode="L" horiz-adv-x="355" 
d="M133 665v-610h203v-55h-266v665h63z" />
    <glyph glyph-name="M" unicode="M" horiz-adv-x="566" 
d="M70 0v665h81l132 -489h4l132 489h77v-665h-57v541h-3l-133 -476h-38l-135 476h-4v-541h-56z" />
    <glyph glyph-name="N" unicode="N" horiz-adv-x="460" 
d="M390 0h-78l-185 550h-3v-550h-54v665h77l185 -560h4v560h54v-665z" />
    <glyph glyph-name="O" unicode="O" horiz-adv-x="412" 
d="M354 171c0 -58.667 -12.333 -103.5 -37 -134.5s-62 -46.5 -112 -46.5s-87 15.5 -111 46.5s-36 75.833 -36 134.5v323c0 58.667 12.167 103.5 36.5 134.5s61.5 46.5 111.5 46.5s87.167 -15.5 111.5 -46.5s36.5 -75.833 36.5 -134.5v-323zM290 502
c0 14 -1.33301 28.166 -4 42.499s-7.33398 27 -14.001 38s-15.5 20 -26.5 27s-24.5 10.5 -40.5 10.5s-29.333 -3.5 -40 -10.5s-19.167 -16 -25.5 -27s-11 -23.667 -14 -38s-4.5 -28.5 -4.5 -42.5v-338c0 -14 1.5 -28.167 4.5 -42.5s7.66699 -27.166 14 -38.499
s14.833 -20.5 25.5 -27.5s24 -10.5 40 -10.5s29.5 3.5 40.5 10.5s19.833 16.167 26.5 27.5s11.334 24 14.001 38s4 28.333 4 43v338z" />
    <glyph glyph-name="P" unicode="P" horiz-adv-x="415" 
d="M362 437c0 -52.667 -12.333 -92.667 -37 -120s-62 -41 -112 -41h-80v-276h-63v665h143c50 0 87.333 -13.833 112 -41.5s37 -67.5 37 -119.5v-67zM298 512c0 12.667 -1.5 24.834 -4.5 36.501s-8 22 -15 31s-16 16.167 -27 21.5s-24.5 8 -40.5 8h-78v-278h78
c16 0 29.5 2.66699 40.5 8s20 12.666 27 21.999s12 19.833 15 31.5s4.5 24.167 4.5 37.5v82z" />
    <glyph glyph-name="Q" unicode="Q" horiz-adv-x="412" 
d="M354 171c0 -103.333 -39.332 -161.667 -117.999 -175c3.33301 -25.333 14.333 -45.166 33 -59.499s47 -21.5 85 -21.5v-55c-62 0 -107 12.167 -135 36.5s-43.667 57.166 -47 98.499c-38.667 6 -67.334 24 -86.001 54s-28 70.667 -28 122v323c0 58.667 12 103.5 36 134.5
s61 46.5 111 46.5s87.333 -15.5 112 -46.5s37 -75.833 37 -134.5v-323zM290.001 501.999c0 14 -1.33203 28.166 -3.99902 42.499s-7.33398 27 -14.001 38s-15.334 20 -26.001 27s-24 10.5 -40 10.5s-29.5 -3.5 -40.5 -10.5s-19.667 -16 -26 -27s-11 -23.667 -14 -38
s-4.5 -28.5 -4.5 -42.5v-338c0 -14 1.5 -28.167 4.5 -42.5s7.66699 -27.166 14 -38.499s14.833 -20.5 25.5 -27.5s24 -10.5 40 -10.5s29.5 3.5 40.5 10.5s19.833 16.167 26.5 27.5s11.334 24 14.001 38s4 28.333 4 43v338z" />
    <glyph glyph-name="R" unicode="R" horiz-adv-x="426" 
d="M367 480c0 -36.667 -7.33301 -67.668 -22 -93.001s-36 -43.666 -64 -54.999l116 -332h-67l-104 315h-93v-315h-63v665h148c50 0 87.333 -13.833 112 -41.5s37 -67.5 37 -119.5v-24zM304 511.999c0 12.667 -1.66797 24.834 -5.00098 36.501s-8.5 22 -15.5 31
s-16.167 16.167 -27.5 21.5s-25 8 -41 8h-82v-239h81c32.667 0 55.834 9.66699 69.501 29s20.5 42.666 20.5 69.999v43z" />
    <glyph glyph-name="S" unicode="S" horiz-adv-x="372" 
d="M42 529c0 17.333 2.66406 34.667 7.99707 52s13.833 33 25.5 47s26.667 25.333 45 34s40.166 13 65.499 13c46.667 0 82.334 -12.5 107.001 -37.5s37 -64.833 37 -119.5v-21h-63v25c0 12 -1.16699 23.833 -3.5 35.5s-6.66602 22.167 -12.999 31.5
s-14.666 16.833 -24.999 22.5s-23.5 8.5 -39.5 8.5c-25.333 0 -44.833 -9 -58.5 -27s-20.5 -39 -20.5 -63v-29c0 -22.667 6.33301 -42.667 19 -60s34.667 -36 66 -56c18.667 -12 36.334 -24.667 53.001 -38s31.334 -27.666 44.001 -42.999s22.667 -32.166 30 -50.499
s11 -38.833 11 -61.5v-56c0 -18 -2.83301 -35.667 -8.5 -53s-14.334 -32.833 -26.001 -46.5s-26.5 -24.834 -44.5 -33.501s-39.667 -13 -65 -13c-49.333 0 -85.666 13.833 -108.999 41.5s-35 66.5 -35 116.5v20h65v-25c0 -12 1.16699 -23.833 3.5 -35.5
s6.33301 -22.167 12 -31.5s13.667 -16.833 24 -22.5s23.5 -8.5 39.5 -8.5c25.333 0 45.166 8.66699 59.499 26s21.5 38.333 21.5 63v45c0 31.333 -9.16699 58.666 -27.5 81.999s-44.5 46 -78.5 68c-36 23.333 -64.833 47 -86.5 71s-32.5 54.667 -32.5 92v37z" />
    <glyph glyph-name="T" unicode="T" horiz-adv-x="380" 
d="M156 0v609h-135v56h338v-56h-139v-609h-64z" />
    <glyph glyph-name="U" unicode="U" horiz-adv-x="433" 
d="M365 665v-494c0 -58.667 -12.333 -103.5 -37 -134.5s-62 -46.5 -112 -46.5s-87.167 15.5 -111.5 46.5s-36.5 75.833 -36.5 134.5v494h63v-502c0 -14 1.5 -28 4.5 -42s8 -26.667 15 -38s15.833 -20.5 26.5 -27.5s23.667 -10.5 39 -10.5c16 0 29.5 3.5 40.5 10.5
s19.833 16.167 26.5 27.5s11.5 24 14.5 38s4.5 28 4.5 42v502h63z" />
    <glyph glyph-name="V" unicode="V" horiz-adv-x="398" 
d="M240 0h-82l-129 665h64l104 -572h3l105 572h63z" />
    <glyph glyph-name="W" unicode="W" horiz-adv-x="591" 
d="M315 665l103 -557h3l77 557h63l-103 -665h-68l-98 502h-3l-99 -502h-63l-98 665h64l69 -557h3l103 557h47z" />
    <glyph glyph-name="X" unicode="X" horiz-adv-x="392" 
d="M367 0h-66l-107 276h-3l-100 -276h-65l132 335l-132 330h65l106 -277h3l101 277h65l-135 -329z" />
    <glyph glyph-name="Y" unicode="Y" horiz-adv-x="409" 
d="M236 215v-215h-64v216l-143 449h66l107 -364h3l108 364h66z" />
    <glyph glyph-name="Z" unicode="Z" horiz-adv-x="346" 
d="M38 609v56h276v-66l-223 -544h217v-55h-276v66l223 543h-217z" />
    <glyph glyph-name="bracketleft" unicode="[" horiz-adv-x="294" 
d="M87 783h166v-56h-102v-776h102v-56h-166v888z" />
    <glyph glyph-name="backslash" unicode="\" horiz-adv-x="330" 
d="M9 710h57l256 -799h-59z" />
    <glyph glyph-name="bracketright" unicode="]" horiz-adv-x="293" 
d="M207 -105h-167v56h103v776h-103v56h167v-888z" />
    <glyph glyph-name="asciicircum" unicode="^" horiz-adv-x="412" 
d="M233 448l106 -238h-63l-70 171l-70 -171h-63l106 238h54z" />
    <glyph glyph-name="underscore" unicode="_" horiz-adv-x="386" 
d="M31 -22h323v-56h-323v56z" />
    <glyph glyph-name="grave" unicode="`" horiz-adv-x="437" 
d="M219 683l56 -135h-51l-72 135h67z" />
    <glyph glyph-name="a" unicode="a" horiz-adv-x="397" 
d="M56 367l-0.00195312 13.9951c0 18 2.5 35.333 7.5 52s12.667 31.167 23 43.5s24 22.333 41 30s37.5 11.5 61.5 11.5c48.667 0 83.834 -13.167 105.501 -39.5s32.5 -65.5 32.5 -117.5v-275c0 -15.333 3.16699 -25.666 9.5 -30.999s15.5 -8.66602 27.5 -9.99902v-55
c-31.333 0.666992 -53.166 6.33398 -65.499 17.001s-21.166 26.334 -26.499 47.001c-10.667 -19.333 -24.5 -34.833 -41.5 -46.5s-38.167 -17.5 -63.5 -17.5c-36.667 0 -65 11.167 -85 33.5s-30 55.5 -30 99.5v42c0 18 2.16699 35 6.5 51s11.333 29.833 21 41.5
s22.334 21 38.001 28s34.5 10.5 56.5 10.5c15.333 0 30.666 -1.66699 45.999 -5s29.666 -8.66602 42.999 -15.999v95c0 12 -1 23.833 -3 35.5s-5.66699 22 -11 31s-12.833 16.333 -22.5 22s-22.167 8.5 -37.5 8.5c-26 0 -44.833 -7.83301 -56.5 -23.5
s-17.5 -36.167 -17.5 -61.5v-15h-59zM262.998 236.995c-11.333 4 -21.668 7.33496 -31.001 10.002s-21.333 4 -36 4c-32 0 -53.5 -8.33301 -64.5 -25s-16.5 -41 -16.5 -73v-16c0 -30.667 4.83301 -54.334 14.5 -71.001s29.5 -25 59.5 -25c16.667 0 31.334 4.66699 44.001 14
s22.667 20.666 30 33.999v148z" />
    <glyph glyph-name="b" unicode="b" horiz-adv-x="402" 
d="M133 75c4.66699 -7.33301 13.168 -14.8301 25.501 -22.4971s28.166 -11.5 47.499 -11.5c26.667 0 45.834 10.167 57.501 30.5s17.5 45.166 17.5 74.499v228c0 12 -1 23.667 -3 35s-5.66699 21.166 -11 29.499s-12.833 15.166 -22.5 20.499s-22.167 8 -37.5 8
c-17.333 0 -32.333 -4.66699 -45 -14s-22.334 -20 -29.001 -32v-346zM112.001 0.00292969h-42.002v710h57l6 -65v-176c10.667 14.667 24.167 26.5 40.5 35.5s35.5 13.5 57.5 13.5c36.667 0 64.834 -12.333 84.501 -37s29.5 -63 29.5 -115v-210
c0 -52 -10.5 -92.667 -31.5 -122s-52.5 -44 -94.5 -44c-25.333 0 -46.166 4.5 -62.499 13.5s-28.833 19.833 -37.5 32.5z" />
    <glyph glyph-name="c" unicode="c" horiz-adv-x="378" 
d="M270 336v25.9932c0 14 -1 27.333 -3 40s-5.83301 23.834 -11.5 33.501s-13.334 17.334 -23.001 23.001s-22.167 8.5 -37.5 8.5s-27.833 -3 -37.5 -9s-17.167 -14.167 -22.5 -24.5s-9 -22.166 -11 -35.499s-3 -27.333 -3 -42v-204c0 -14.667 1 -28.667 3 -42
s5.66699 -25.166 11 -35.499s12.833 -18.5 22.5 -24.5s22.167 -9 37.5 -9s27.833 2.83301 37.5 8.5s17.334 13.334 23.001 23.001s9.5 20.834 11.5 33.501s3 26 3 40v26h60v-19c0 -50.667 -10.5 -90.5 -31.5 -119.5s-55.833 -43.5 -104.5 -43.5s-83.5 15 -104.5 45
s-31.5 73 -31.5 129v180c0 54.667 10.5 97.334 31.5 128.001s55.833 46 104.5 46s83.5 -14.5 104.5 -43.5s31.5 -68.833 31.5 -119.5v-19h-60z" />
    <glyph glyph-name="d" unicode="d" horiz-adv-x="404" 
d="M269 431c-5.33301 8.66699 -14.166 16.833 -26.499 24.5s-27.5 11.5 -45.5 11.5c-14.667 0 -26.834 -2.66699 -36.501 -8s-17.5 -12.833 -23.5 -22.5s-10.167 -21 -12.5 -34s-3.5 -26.833 -3.5 -41.5v-212c0 -14.667 1 -28.5 3 -41.5s5.66699 -24.5 11 -34.5
s13 -17.833 23 -23.5s22.667 -8.5 38 -8.5c17.333 0 32 4.83301 44 14.5s21.667 21.167 29 34.5v341zM333 88.999c0 -16 2.83496 -27.333 8.50195 -34s15.167 -10 28.5 -10v-55c-30.667 0 -52.334 5.16699 -65.001 15.5s-21.667 26.166 -27 47.499
c-9.33301 -18 -22.333 -33 -39 -45s-38.667 -18 -66 -18c-76.667 0 -115 53.333 -115 160v202c0 56.667 9.66699 98.5 29 125.5s49.666 40.5 90.999 40.5c21.333 0 39.5 -3.66699 54.5 -11s27.167 -16.666 36.5 -27.999v231h57l7 -65v-556z" />
    <glyph glyph-name="e" unicode="e" horiz-adv-x="386" 
d="M121 294h148v62c0 14.667 -1 28.667 -3 42s-5.66699 25.166 -11 35.499s-12.833 18.5 -22.5 24.5s-22.167 9 -37.5 9s-27.833 -3 -37.5 -9s-17.167 -14.167 -22.5 -24.5s-9 -22.166 -11 -35.499s-3 -27.333 -3 -42v-62zM271 155l61.999 -0.00292969v-8
c0 -48 -11 -86.167 -33 -114.5s-57.333 -42.5 -106 -42.5c-50 0 -85.167 15 -105.5 45s-30.5 73 -30.5 129v180c0 56 10.5 99 31.5 129s55.833 45 104.5 45c50 0 85.667 -15 107 -45s32 -73 32 -129v-99h-212v-93c0 -14.667 1 -28.667 3 -42s5.66699 -25.166 11 -35.499
s12.833 -18.5 22.5 -24.5s22.167 -9 37.5 -9s27.833 2.83301 37.5 8.5s17.334 13.334 23.001 23.001s9.66699 20.834 12 33.501s3.5 26 3.5 40v9z" />
    <glyph glyph-name="f" unicode="f" horiz-adv-x="272" 
d="M135 457l0.000976562 -457h-65v533c0 53.333 11.167 96.166 33.5 128.499s57.166 48.5 104.499 48.5c27.333 0 49.833 -4.16699 67.5 -12.5s32.167 -19.166 43.5 -32.499l-41 -36c-6 8 -14.167 15 -24.5 21s-23.5 9 -39.5 9c-16.667 0 -30.167 -3.5 -40.5 -10.5
s-18.333 -16 -24 -27s-9.5 -23.167 -11.5 -36.5s-3 -26 -3 -38v-39h129v-51h-129z" />
    <glyph glyph-name="g" unicode="g" horiz-adv-x="399" 
d="M269 431c-5.33301 8.66699 -13.667 16.8311 -25 24.498s-26 11.5 -44 11.5c-29.333 0 -49.833 -10.667 -61.5 -32s-17.5 -47.666 -17.5 -78.999v-204c0 -15.333 1 -29.666 3 -42.999s5.66699 -25 11 -35s12.833 -18 22.5 -24s22.5 -9 38.5 -9
c17.333 0 32 4.83301 44 14.5s21.667 21.167 29 34.5v341zM121.999 -78.0029v-8.99707c0 -22 5.66699 -39.5 17 -52.5s29 -19.5 53 -19.5c30.667 0 51.167 10.167 61.5 30.5s15.5 45.166 15.5 74.499v102c-9.33301 -17.333 -22 -31.333 -38 -42s-36.667 -16 -62 -16
c-37.333 0 -65.166 13.667 -83.499 41s-27.5 71.666 -27.5 132.999v180c0 56 10.833 99 32.5 129s53.834 45 96.501 45c27.333 0 48.166 -4.83301 62.499 -14.5s25.5 -20.834 33.5 -33.501l7 38h43v-547c0 -52 -11.5 -93.5 -34.5 -124.5s-58.5 -46.5 -106.5 -46.5
c-42.667 0 -75.334 10.167 -98.001 30.5s-34 50.833 -34 91.5v10h62z" />
    <glyph glyph-name="h" unicode="h" horiz-adv-x="411" 
d="M133 468c10 13.333 22.999 25 38.999 35s37.333 15 64 15c40 0 68.167 -13 84.5 -39s24.5 -65 24.5 -117v-362h-58l-6 64v304c0 13.333 -1 26 -3 38s-5.5 22.5 -10.5 31.5s-12 16.167 -21 21.5s-20.5 8 -34.5 8c-19.333 0 -35.666 -4.83301 -48.999 -14.5
s-23.333 -20.5 -30 -32.5v-420h-63v710h57l6 -65v-177z" />
    <glyph glyph-name="i" unicode="i" horiz-adv-x="201" 
d="M70 508h57l6 -65v-443h-63v508zM101 655c12 0 21.833 -3.66699 29.5 -11s11.5 -17 11.5 -29s-3.83301 -21.833 -11.5 -29.5s-17.5 -11.5 -29.5 -11.5s-21.833 3.83301 -29.5 11.5s-11.5 17.5 -11.5 29.5s3.83301 21.667 11.5 29s17.5 11 29.5 11z" />
    <glyph glyph-name="j" unicode="j" horiz-adv-x="203" 
d="M127 508l6.00098 -65v-483c0 -60.667 -10.5 -104.167 -31.5 -130.5s-56.5 -39.5 -106.5 -39.5v55c16.667 0 30 2.83301 40 8.5s17.667 13.167 23 22.5s8.66602 20.5 9.99902 33.5s2 26.833 2 41.5v557h57zM101.001 655c12 0 21.833 -3.66699 29.5 -11s11.5 -17 11.5 -29
s-3.83301 -21.833 -11.5 -29.5s-17.5 -11.5 -29.5 -11.5s-21.833 3.83301 -29.5 11.5s-11.5 17.5 -11.5 29.5s3.83301 21.667 11.5 29s17.5 11 29.5 11z" />
    <glyph glyph-name="k" unicode="k" horiz-adv-x="387" 
d="M238 325l130 -325h-66l-107 272l-62 -81v-191h-63v710h57l6 -64v-382l167 244h65z" />
    <glyph glyph-name="l" unicode="l" horiz-adv-x="202" 
d="M133 645v-645h-58l-5 65v645h57z" />
    <glyph glyph-name="m" unicode="m" horiz-adv-x="616" 
d="M342 0h-63.998v370c0 14 -0.833008 26.833 -2.5 38.5s-4.83398 21.834 -9.50098 30.501s-11.334 15.5 -20.001 20.5s-20 7.5 -34 7.5c-19.333 0 -35.666 -4.83301 -48.999 -14.5s-23.333 -20.5 -30 -32.5v-420h-63v508h44l5 -50c10.667 17.333 25 31.666 43 42.999
s39.333 17 64 17c25.333 0 46.333 -5.66699 63 -17s28.667 -27.666 36 -48.999c9.33301 18 23.333 33.5 42 46.5s42 19.5 70 19.5c40 0 68.833 -13.333 86.5 -40s26.5 -65.334 26.5 -116.001v-362h-58l-6 65v303c0 12.667 -0.833008 24.834 -2.5 36.501s-5 22.167 -10 31.5
s-11.833 16.833 -20.5 22.5s-20.334 8.5 -35.001 8.5c-20 0 -36 -4.83301 -48 -14.5s-21.333 -19.834 -28 -30.501v-422z" />
    <glyph glyph-name="n" unicode="n" horiz-adv-x="411" 
d="M119 458c9.33301 16.667 23.834 30.834 43.501 42.501s42.5 17.5 68.5 17.5c40 0 69 -13 87 -39s27 -65 27 -117v-362h-58l-6 65v302c0 13.333 -0.833008 26.166 -2.5 38.499s-5 23 -10 32s-12 16.167 -21 21.5s-20.5 8 -34.5 8c-19.333 0 -35.833 -4.83301 -49.5 -14.5
s-23.834 -20.5 -30.501 -32.5v-420h-63v508h44z" />
    <glyph glyph-name="o" unicode="o" horiz-adv-x="391" 
d="M333 163c0 -56 -10.667 -98.833 -32 -128.5s-57 -44.5 -107 -44.5c-48.667 0 -83.5 14.833 -104.5 44.5s-31.5 72.5 -31.5 128.5v182c0 56 10.667 98.833 32 128.5s56 44.5 104 44.5c48.667 0 84 -14.833 106 -44.5s33 -72.5 33 -128.5v-182zM269 356
c0 14.667 -1 28.667 -3 42s-5.66699 25.166 -11 35.499s-12.833 18.5 -22.5 24.5s-22.167 9 -37.5 9s-27.833 -3 -37.5 -9s-17.167 -14.167 -22.5 -24.5s-9 -22.166 -11 -35.499s-3 -27.333 -3 -42v-204c0 -14.667 1 -28.667 3 -42s5.66699 -25.166 11 -35.499
s12.833 -18.5 22.5 -24.5s22.167 -9 37.5 -9s27.833 3 37.5 9s17.167 14.167 22.5 24.5s9 22.166 11 35.499s3 27.333 3 42v204z" />
    <glyph glyph-name="p" unicode="p" horiz-adv-x="401" 
d="M69 508l44.001 0.00195312l5 -50c9.33301 17.333 23.5 31.666 42.5 42.999s40.167 17 63.5 17c42.667 0 73.334 -14.167 92.001 -42.5s28 -70.833 28 -127.5v-184c0 -56 -9.83301 -99 -29.5 -129s-50.834 -45 -93.501 -45c-20.667 0 -38.334 3.66699 -53.001 11
s-26.667 15.666 -36 24.999v-171l-7 -65h-56v718zM132.001 72.002c4.66699 -7.33301 13.167 -14.332 25.5 -20.999s27.166 -10 44.499 -10c28.667 0 48.834 10.667 60.501 32s17.5 47.666 17.5 78.999v205c0 14.667 -0.833008 28.667 -2.5 42s-5 25 -10 35
s-12.167 18 -21.5 24s-21.666 9 -36.999 9c-19.333 0 -35.333 -5 -48 -15s-22.334 -20.667 -29.001 -32v-348z" />
    <glyph glyph-name="q" unicode="q" horiz-adv-x="401" 
d="M269 430c-5.33301 9.33301 -13.6641 17.832 -24.9971 25.499s-26.333 11.5 -45 11.5c-28.667 0 -48.834 -11 -60.501 -33s-17.5 -50 -17.5 -84v-198c0 -15.333 1 -29.666 3 -42.999s5.66699 -25 11 -35s12.833 -18 22.5 -24s22.167 -9 37.5 -9
c17.333 0 32.166 4.83301 44.499 14.5s22.166 21.167 29.499 34.5v340zM269.002 37.999c-9.33301 -13.333 -21.668 -24.666 -37.001 -33.999s-34.666 -14 -57.999 -14c-40 0 -69.333 13.667 -88 41s-28 70.666 -28 129.999v177c0 56 10.5 100 31.5 132s53.5 48 97.5 48
c24.667 0 44.5 -4.83301 59.5 -14.5s27.167 -21.167 36.5 -34.5l7 39h43v-718h-58l-6 65v183z" />
    <glyph glyph-name="r" unicode="r" horiz-adv-x="285" 
d="M70 508h44.001l5 -50c11.333 18 26.333 32.5 45 43.5s39 16.5 61 16.5c12 0 22 -1 30 -3s15.667 -5.33301 23 -10l-21 -55c-5.33301 4 -11.166 6.66699 -17.499 8s-13.5 2 -21.5 2c-18.667 0 -35.334 -5 -50.001 -15s-26.334 -21.667 -35.001 -35v-410h-63v508z" />
    <glyph glyph-name="s" unicode="s" horiz-adv-x="350" 
d="M104 153l0.00195312 -10.001c0 -13.333 0.833008 -26 2.5 -38s5.16699 -22.833 10.5 -32.5s12.5 -17.334 21.5 -23.001s21.167 -8.5 36.5 -8.5c23.333 0 41.333 7.83301 54 23.5s19 35.5 19 59.5c0 25.333 -7 47.5 -21 66.5s-39.333 38.5 -76 58.5
c-34.667 19.333 -61.667 40 -81 62s-29 50.667 -29 86c0 14.667 2.5 29.334 7.5 44.001s13 27.667 24 39s24.667 20.5 41 27.5s36.166 10.5 59.499 10.5c45.333 0 79 -13 101 -39s33 -63.333 33 -112v-9h-62v13c0 12 -1 23.667 -3 35s-5.5 21.5 -10.5 30.5
s-12.333 16.333 -22 22s-21.834 8.5 -36.501 8.5c-26.667 0 -45 -7 -55 -21s-15 -29.333 -15 -46c0 -23.333 7.16699 -43.166 21.5 -59.499s38.833 -33.5 73.5 -51.5c40 -20 68.5 -42.833 85.5 -68.5s25.5 -55.5 25.5 -89.5c0 -16 -2.5 -32.5 -7.5 -49.5
s-12.667 -32.167 -23 -45.5s-23.833 -24.333 -40.5 -33s-37 -13 -61 -13c-47.333 0 -81.5 13.167 -102.5 39.5s-31.5 64.5 -31.5 114.5v9h61z" />
    <glyph glyph-name="t" unicode="t" horiz-adv-x="285" 
d="M271 5c-10.667 -4.66699 -21.167 -8.33398 -31.5 -11.001s-22.166 -4 -35.499 -4c-48.667 0 -83.5 13.5 -104.5 40.5s-31.5 66.833 -31.5 119.5v458h57l6 -63v-37h123v-51h-123v-314c0 -11.333 1 -22.833 3 -34.5s5.83301 -22.167 11.5 -31.5s13.667 -17 24 -23
s23.5 -9 39.5 -9c9.33301 0 17.666 0.833008 24.999 2.5s14 3.83398 20 6.50098z" />
    <glyph glyph-name="u" unicode="u" horiz-adv-x="410" 
d="M65 508l64.0039 0.000976562v-369c0 -14 1 -26.833 3 -38.5s5.66699 -22 11 -31s12.666 -16 21.999 -21s21.333 -7.5 36 -7.5c17.333 0 32.5 4.66699 45.5 14s22.833 20.666 29.5 33.999v419h64v-420c0 -12 2.33301 -22.167 7 -30.5s14.667 -12.5 30 -12.5v-55
c-30.667 0 -52.334 5.33301 -65.001 16s-21.334 26.667 -26.001 48c-10.667 -19.333 -25 -34.833 -43 -46.5s-40.333 -17.5 -67 -17.5c-38.667 0 -66.834 12.333 -84.501 37s-26.5 62.667 -26.5 114v367z" />
    <glyph glyph-name="v" unicode="v" horiz-adv-x="363" 
d="M217 0h-72l-115 508h64l85 -442h4l86 442h63z" />
    <glyph glyph-name="w" unicode="w" horiz-adv-x="573" 
d="M258 508h56l87 -404h3l75 404h63l-99 -508h-67l-88 394h-5l-88 -394h-67l-98 508h64l73 -404h4z" />
    <glyph glyph-name="x" unicode="x" horiz-adv-x="338" 
d="M89 508l78 -197h4l79 197h63l-112 -254l111 -254h-64l-84 197h-3l-71 -197h-63l104 265l-106 243h64z" />
    <glyph glyph-name="y" unicode="y" horiz-adv-x="353" 
d="M37 508h62.998l79 -410h3l82 410h63l-131 -564c-10.667 -46 -29.167 -83 -55.5 -111s-63.833 -42 -112.5 -42v54c24.667 0 47.334 8.33301 68.001 25s35.334 43 44.001 79l10 40z" />
    <glyph glyph-name="z" unicode="z" horiz-adv-x="294" 
d="M36 453v55h229v-64l-177 -389h170v-55h-229v61l179 392h-172z" />
    <glyph glyph-name="braceleft" unicode="{" horiz-adv-x="338" 
d="M122 262c0 20 -4 33.333 -12 40s-24.667 10 -50 10h-18v56h18c25.333 0 42 3.33301 50 10s12 20 12 40v194c0 57.333 13.667 100.166 41 128.499s69.666 42.5 126.999 42.5h23v-56h-23c-36 0 -62.333 -10.333 -79 -31s-25 -53 -25 -97v-193c0 -18 -5 -33 -15 -45
s-24.333 -18 -43 -18h-10v-6h10c18.667 0 33 -6.16699 43 -18.5s15 -27.166 15 -44.499v-203c0 -44 8.33301 -75 25 -93s43 -27 79 -27h23v-56h-23c-57.333 0 -99.666 13.667 -126.999 41s-41 68 -41 122v204z" />
    <glyph glyph-name="bar" unicode="|" horiz-adv-x="291" 
d="M113 -105v888h64v-888h-64z" />
    <glyph glyph-name="braceright" unicode="}" horiz-adv-x="338" 
d="M216 418c0 -20 4.16699 -33.332 12.5 -39.999s25.166 -10 50.499 -10h17v-56h-17c-25.333 0 -42.166 -3.33301 -50.499 -10s-12.5 -20 -12.5 -40v-204c0 -108.667 -55.667 -163 -167 -163h-24v56h24c36 0 62.333 9 79 27s25 49 25 93v203c0 18 4.66699 33 14 45
s23.666 18 42.999 18h10v6h-10c-19.333 0 -33.666 6.16699 -42.999 18.5s-14 27.166 -14 44.499v193c0 44 -8.33301 76.333 -25 97s-43 31 -79 31h-24v56h24c111.333 0 167 -57 167 -171v-194z" />
    <glyph glyph-name="asciitilde" unicode="~" horiz-adv-x="412" 
d="M338 365c0 -41.333 -6.49902 -70.332 -19.499 -86.999s-29.833 -25 -50.5 -25c-12 0 -22.5 2.16699 -31.5 6.5s-17.5 9.83301 -25.5 16.5l-26 20.5c-8 6.33301 -17.333 9.5 -28 9.5c-20.667 0 -31 -17.667 -31 -53h-52c0 40.667 7.16699 69.5 21.5 86.5
s31.166 25.5 50.499 25.5c11.333 0 21.166 -2.16699 29.499 -6.5s16.833 -9.83301 25.5 -16.5l25 -20.5c8.66699 -7 18.334 -10.5 29.001 -10.5c10 0 17.667 4.16699 23 12.5s8 22.166 8 41.499h52z" />
    <glyph glyph-name="uni00A0" unicode="&#xa0;" horiz-adv-x="180" 
 />
    <glyph glyph-name="exclamdown" unicode="&#xa1;" horiz-adv-x="286" 
d="M109 -152v510h58l7 -68v-442h-65zM185 477c0 -12.667 -4 -22.667 -12 -30s-18.333 -11 -31 -11c-13.333 0 -23.833 3.66699 -31.5 11s-11.5 17.333 -11.5 30s3.83301 22.667 11.5 30s18.167 11 31.5 11c12.667 0 23 -3.66699 31 -11s12 -17.333 12 -30z" />
    <glyph glyph-name="cent" unicode="&#xa2;" horiz-adv-x="375" 
d="M160 -68v63.002c-38 6.66699 -64.833 23 -80.5 49s-23.5 61.333 -23.5 106v208c0 44 8.16699 79 24.5 105s42.833 42.333 79.5 49v64h64v-63c37.333 -5.33301 64 -21 80 -47s24 -60.333 24 -103v-27h-61v14c0 16.667 -1 32 -3 46s-5.66699 26.333 -11 37
s-12.833 19 -22.5 25s-22.167 9 -37.5 9s-27.833 -2.83301 -37.5 -8.5s-17.167 -13 -22.5 -22s-9 -19.333 -11 -31s-3 -23.5 -3 -35.5v-232c0 -12 1 -23.833 3 -35.5s5.66699 -22 11 -31s12.833 -16.333 22.5 -22s22.5 -8.5 38.5 -8.5s28.833 3.16699 38.5 9.5
s17 14.666 22 24.999s8.33301 22.666 10 36.999s2.5 29.5 2.5 45.5v14h61v-27c0 -42.667 -8 -77 -24 -103s-42.667 -41.667 -80 -47v-63h-64z" />
    <glyph glyph-name="sterling" unicode="&#xa3;" horiz-adv-x="439" 
d="M46 297h50.001v206c0 54 12.5 96.167 37.5 126.5s62.5 45.5 112.5 45.5c98 0 147 -55.667 147 -167v-12h-64v26c0 12.667 -1.33301 24.834 -4 36.501s-7.33398 22 -14.001 31s-15.167 16.333 -25.5 22s-23.5 8.5 -39.5 8.5c-15.333 0 -28.5 -3 -39.5 -9s-20 -14 -27 -24
s-12.167 -21.833 -15.5 -35.5s-5 -27.834 -5 -42.501v-212h165v-55h-165v-187h234v-55h-347v55h50v187h-50v55z" />
    <glyph glyph-name="currency" unicode="&#xa4;" horiz-adv-x="404" 
d="M339 297c0 -31.333 -3.33008 -57.999 -9.99707 -79.999s-17.667 -40 -33 -54l42 -85h-58l-30 58c-14 -4 -30.333 -6 -49 -6c-20.667 0 -37 2.33301 -49 7l-30 -59h-57l40 86c-14 13.333 -24.333 29 -31 47s-10 41.333 -10 70v28c0 30 3.16699 56.167 9.5 78.5
s17.166 40.5 32.499 54.5l-42 86h57l31 -59c6.66699 2 14.167 3.66699 22.5 5s17.166 2 26.499 2s18.166 -0.666992 26.499 -2s15.833 -3 22.5 -5l31 59h58l-43 -86c28.667 -24.667 43 -66.334 43 -125.001v-20zM275.003 313.001c0 14.667 -0.832031 28.834 -2.49902 42.501
s-5.16699 25.667 -10.5 36s-12.833 18.5 -22.5 24.5s-22.167 9 -37.5 9c-16 0 -28.833 -3 -38.5 -9s-17.334 -14.167 -23.001 -24.5s-9.33398 -22.333 -11.001 -36s-2.5 -27.834 -2.5 -42.501v-20c0 -14.667 0.833008 -28.834 2.5 -42.501s5.16699 -25.667 10.5 -36
s13 -18.5 23 -24.5s23 -9 39 -9c14.667 0 26.834 2.66699 36.501 8s17.167 12.5 22.5 21.5s9 19.333 11 31s3 23.834 3 36.501v35z" />
    <glyph glyph-name="yen" unicode="&#xa5;" horiz-adv-x="442" 
d="M67 332h110l-131 333h65l109 -306h3l107 306h65l-132 -333h111v-43h-121v-61h121v-43h-121v-185h-64v185h-122v43h122v61h-122v43z" />
    <glyph glyph-name="brokenbar" unicode="&#xa6;" horiz-adv-x="291" 
d="M177 401h-64v382h64v-382zM177 277v-382h-64v382h64z" />
    <glyph glyph-name="section" unicode="&#xa7;" horiz-adv-x="381" 
d="M149 426c-12 -5.33301 -21.833 -13.168 -29.5 -23.501s-11.5 -22.166 -11.5 -35.499c0 -20 7.66699 -37.833 23 -53.5s39.333 -32.5 72 -50.5l29 -16c11.333 7.33301 20.833 16.333 28.5 27s11.5 21.667 11.5 33c0 20 -7.33301 38 -22 54s-39 32.667 -73 50zM106 460.998
c-16.667 13.333 -29.665 27.5 -38.998 42.5s-14 34.167 -14 57.5c0 15.333 2.66699 30.333 8 45s13.333 27.667 24 39s24.334 20.5 41.001 27.5s36.667 10.5 60 10.5c48 0 83.5 -13.167 106.5 -39.5s34.5 -64.5 34.5 -114.5v-9h-63v10c0 12.667 -1 25.167 -3 37.5
s-5.83301 23.333 -11.5 33s-13.334 17.334 -23.001 23.001s-22.167 8.5 -37.5 8.5c-14 0 -25.667 -1.83301 -35 -5.5s-16.833 -8.66699 -22.5 -15s-9.83398 -13.5 -12.501 -21.5s-4 -16 -4 -24c0 -11.333 1.5 -21.666 4.5 -30.999s8.5 -18.5 16.5 -27.5s19 -18.167 33 -27.5
s32 -20 54 -32c38 -20.667 65 -41.5 81 -62.5s24 -45.5 24 -73.5c0 -23.333 -5.5 -43 -16.5 -59s-23.167 -30 -36.5 -42c16.667 -14.667 29.5 -30.167 38.5 -46.5s13.5 -34.833 13.5 -55.5c0 -16 -2.83301 -31.167 -8.5 -45.5s-14 -27 -25 -38s-24.833 -19.667 -41.5 -26
s-36.334 -9.5 -59.001 -9.5c-48 0 -83 13.667 -105 41s-33 65 -33 113v9h62v-10c0 -13.333 1 -26 3 -38s5.66699 -22.833 11 -32.5s13 -17.334 23 -23.001s22.667 -8.5 38 -8.5c27.333 0 46.333 7 57 21s16 29 16 45c0 12 -1.66699 22.667 -5 32s-9.33301 18.5 -18 27.5
s-20.5 18.667 -35.5 29s-34.5 22.166 -58.5 35.499c-30.667 17.333 -54.167 36.5 -70.5 57.5s-24.5 46.5 -24.5 76.5c0 23.333 5 42.5 15 57.5s22.667 27.833 38 38.5z" />
    <glyph glyph-name="dieresis" unicode="&#xa8;" horiz-adv-x="434" 
d="M152 655c11.333 0 20.666 -3.66699 27.999 -11s11 -16.666 11 -27.999s-3.66699 -20.5 -11 -27.5s-16.666 -10.5 -27.999 -10.5s-20.833 3.5 -28.5 10.5s-11.5 16.167 -11.5 27.5s3.83301 20.666 11.5 27.999s17.167 11 28.5 11zM282 655
c11.333 0 20.666 -3.66699 27.999 -11s11 -16.666 11 -27.999s-3.66699 -20.5 -11 -27.5s-16.666 -10.5 -27.999 -10.5s-20.666 3.5 -27.999 10.5s-11 16.167 -11 27.5s3.66699 20.666 11 27.999s16.666 11 27.999 11z" />
    <glyph glyph-name="copyright" unicode="&#xa9;" horiz-adv-x="692" 
d="M621 229c0 -36.667 -5.16699 -70.6689 -15.5 -102.002s-26.5 -58.666 -48.5 -81.999s-50.5 -41.666 -85.5 -54.999s-77.167 -20 -126.5 -20s-91.333 6.66699 -126 20s-63 31.5 -85 54.5s-38.167 50.333 -48.5 82s-15.5 65.834 -15.5 102.501v202
c0 34 4.83301 66.833 14.5 98.5s25.5 59.667 47.5 84s50.5 44 85.5 59s77.5 22.5 127.5 22.5c50.667 0 93.5 -7.5 128.5 -22.5s63.5 -35 85.5 -60s37.833 -53.333 47.5 -85s14.5 -63.834 14.5 -96.501v-202zM568 432.998c0 26 -3.83496 51.834 -11.502 77.501
s-20.334 48.667 -38.001 69s-40.667 36.833 -69 49.5s-63.166 19 -104.499 19s-76 -6.16699 -104 -18.5s-50.667 -28.5 -68 -48.5s-29.833 -42.833 -37.5 -68.5s-11.5 -51.5 -11.5 -77.5v-206c0 -28 3.83301 -54.833 11.5 -80.5s20.334 -48.167 38.001 -67.5
s40.5 -34.833 68.5 -46.5s62.333 -17.5 103 -17.5s75.334 5.83301 104.001 17.5s51.667 27.167 69 46.5s30 41.666 38 66.999s12 52 12 80v205zM421.998 398.999l0.000976562 24.9971c0 12.667 -1 24.834 -3 36.501s-5.83301 22 -11.5 31s-13.334 16.167 -23.001 21.5
s-22.167 8 -37.5 8s-27.833 -3.16699 -37.5 -9.5s-17.334 -14.333 -23.001 -24s-9.5 -20.667 -11.5 -33s-3 -24.5 -3 -36.5v-177c0 -12 1 -23.667 3 -35s5.83301 -21.5 11.5 -30.5s13.334 -16.333 23.001 -22s22.167 -8.5 37.5 -8.5s27.833 2.66699 37.5 8
s17.334 12.333 23.001 21s9.5 18.834 11.5 30.501s3 23.834 3 36.501v25h56v-18c0 -47.333 -10.167 -84.333 -30.5 -111s-53.833 -40 -100.5 -40c-47.333 0 -81 13.667 -101 41s-30 65.666 -30 114.999v153c0 24 2.33301 46 7 66s12.167 37 22.5 51s23.833 25 40.5 33
s36.667 12 60 12c47.333 0 81.166 -13.167 101.499 -39.5s30.5 -63.166 30.5 -110.499v-19h-56z" />
    <glyph glyph-name="ordfeminine" unicode="&#xaa;" horiz-adv-x="256" 
d="M35 582l0.00292969 7.99805c0 24 6.83301 44.167 20.5 60.5s35.167 24.5 64.5 24.5c58.667 0 88 -32 88 -96v-159c0 -9.33301 1.83301 -15.666 5.5 -18.999s9.16699 -5.33301 16.5 -6v-38c-20 0.666992 -34.5 4 -43.5 10s-15.5 15.333 -19.5 28
c-6 -11.333 -14.833 -20.5 -26.5 -27.5s-24.834 -10.5 -39.501 -10.5c-21.333 0 -38.166 6.66699 -50.499 20s-18.5 34 -18.5 62v26c0 20.667 5.66699 38.834 17 54.501s30.666 23.5 57.999 23.5c9.33301 0 18.666 -1 27.999 -3s17.666 -5.33301 24.999 -10v56
c0 14 -2.5 26.5 -7.5 37.5s-15.833 16.5 -32.5 16.5c-14 0 -24.333 -4.33301 -31 -13s-10 -20.667 -10 -36v-9h-44zM160.003 503.998c-5.33301 2 -10.834 3.66602 -16.501 4.99902s-12.167 2 -19.5 2c-17.333 0 -29.166 -4.16699 -35.499 -12.5s-9.5 -21.166 -9.5 -38.499
v-17c0 -16 2.66699 -28.333 8 -37s15.333 -13 30 -13c10.667 0 19.5 2.33301 26.5 7s12.5 10.667 16.5 18v86z" />
    <glyph glyph-name="guillemotleft" unicode="&#xab;" horiz-adv-x="468" 
d="M199 464l43 -40l-137 -132l137 -131l-43 -40l-149 143v56zM380 464l43 -40l-137 -132l137 -131l-43 -40l-149 143v56z" />
    <glyph glyph-name="logicalnot" unicode="&#xac;" horiz-adv-x="412" 
d="M83 360h246v-144h-55v88h-191v56z" />
    <glyph glyph-name="uni00AD" unicode="&#xad;" horiz-adv-x="271" 
 />
    <glyph glyph-name="registered" unicode="&#xae;" horiz-adv-x="533" 
d="M473 396c0 -29.333 -3.5 -56.666 -10.5 -81.999s-18.667 -47.333 -35 -66s-37.666 -33.167 -63.999 -43.5s-58.833 -15.5 -97.5 -15.5c-38 0 -70.167 5.16699 -96.5 15.5s-47.666 24.833 -63.999 43.5s-28 40.667 -35 66s-10.5 52.666 -10.5 81.999v94
c0 30 3.5 57.5 10.5 82.5s18.667 46.833 35 65.5s37.666 33.167 63.999 43.5s58.5 15.5 96.5 15.5c38.667 0 71.167 -5.16699 97.5 -15.5s47.666 -24.833 63.999 -43.5s28 -40.5 35 -65.5s10.5 -52.5 10.5 -82.5v-94zM423 490c0 55.333 -12.333 96.334 -37 123.001
s-64.667 40 -120 40c-54.667 0 -94.167 -13.333 -118.5 -40s-36.5 -67.334 -36.5 -122.001v-96c0 -54.667 12.167 -95.334 36.5 -122.001s63.833 -40 118.5 -40c55.333 0 95.333 13.333 120 40s37 67.334 37 122.001v95zM343 507.001c0 -31.333 -12.667 -52.667 -38 -64
l50 -141h-45l-45 135h-28v-135h-44v287h72c26 0 45.5 -6.16699 58.5 -18.5s19.5 -29.833 19.5 -52.5v-11zM300 520c0 22.667 -12.333 34 -37 34h-26v-87h26c14 0 23.667 2.83301 29 8.5s8 14.5 8 26.5v18z" />
    <glyph glyph-name="macron" unicode="&#xaf;" horiz-adv-x="438" 
d="M119 644h199v-52h-199v52z" />
    <glyph glyph-name="degree" unicode="&#xb0;" horiz-adv-x="297" 
d="M96 628c0 -14.667 4.33301 -26.834 13 -36.501s22 -14.5 40 -14.5c18.667 0 32.167 4.83301 40.5 14.5s12.5 21.834 12.5 36.501s-4.16699 26.834 -12.5 36.501s-21.833 14.5 -40.5 14.5c-18 0 -31.333 -4.83301 -40 -14.5s-13 -21.834 -13 -36.501zM49 628
c0 27.333 8.83301 49.833 26.5 67.5s42.167 26.5 73.5 26.5s55.833 -8.83301 73.5 -26.5s26.5 -40.167 26.5 -67.5s-8.83301 -49.833 -26.5 -67.5s-42.167 -26.5 -73.5 -26.5s-55.833 8.83301 -73.5 26.5s-26.5 40.167 -26.5 67.5z" />
    <glyph glyph-name="plusminus" unicode="&#xb1;" horiz-adv-x="412" 
d="M83 360h95v65h56v-65h95v-56h-95v-65h-56v65h-95v56zM83 208h246v-56h-246v56z" />
    <glyph glyph-name="twosuperior" unicode="&#xb2;" horiz-adv-x="306" 
d="M46 566l0.000976562 7.99902c0 28.667 8.66699 52.667 26 72s46 29 86 29c38 0 65 -8.66699 81 -26s24 -39.666 24 -66.999v-8c0 -36 -23.333 -83.667 -70 -143l-86 -114h156v-47h-213v53l82 110c26 33.333 45 60 57 80s18 38.667 18 56v5c0 16.667 -3.83301 30 -11.5 40
s-20.834 15 -39.501 15c-20.667 0 -35 -5.66699 -43 -17s-12 -24.333 -12 -39v-7h-55z" />
    <glyph glyph-name="threesuperior" unicode="&#xb3;" horiz-adv-x="307" 
d="M202 577c0 13.333 -3.99609 25.334 -11.9961 36.001s-21.667 16 -41 16c-18.667 0 -32 -5.5 -40 -16.5s-12 -23.5 -12 -37.5v-9h-55v7c0 30 8.83301 54.5 26.5 73.5s45.167 28.5 82.5 28.5c36.667 0 63.5 -9 80.5 -27s25.5 -40 25.5 -66v-17
c0 -20 -4.83301 -37.333 -14.5 -52s-22.834 -24.667 -39.501 -30v-2c17.333 -5.33301 30.666 -15.166 39.999 -29.499s14 -31.5 14 -51.5v-30c0 -30.667 -9 -56 -27 -76s-45 -30 -81 -30c-35.333 0 -62 8.66699 -80 26s-27 41.666 -27 72.999v13h55v-11
c0 -15.333 3.66699 -28.333 11 -39s20.666 -16 39.999 -16s33.166 6 41.499 18s12.5 26.333 12.5 43v29c0 15.333 -4.83301 28.666 -14.5 39.999s-24.167 17 -43.5 17h-31v45h30c20.667 0 35.667 5.83301 45 17.5s14 24.5 14 38.5v19z" />
    <glyph glyph-name="acute" unicode="&#xb4;" horiz-adv-x="437" 
d="M292 683l-72 -135h-52l57 135h67z" />
    <glyph glyph-name="mu" unicode="&#xb5;" horiz-adv-x="416" 
d="M133 508v-390.998c0 -8 1 -16.333 3 -25s5.66699 -16.834 11 -24.501s12.333 -14 21 -19s20 -7.5 34 -7.5c19.333 0 35.5 4.66699 48.5 14s22.833 20.666 29.5 33.999v419h64v-419c0 -13.333 2.33301 -24 7 -32s14.667 -12 30 -12v-55
c-25.333 0 -43.5 4.83301 -54.5 14.5s-18.167 23.167 -21.5 40.5c-9.33301 -17.333 -22.333 -30.833 -39 -40.5s-36.667 -14.5 -60 -14.5c-15.333 0 -29.5 3 -42.5 9s-23.167 13.667 -30.5 23v-167l-6 -65h-57v718h63z" />
    <glyph glyph-name="paragraph" unicode="&#xb6;" horiz-adv-x="428" 
d="M296 0v665h63v-665h-63zM239 0h-22v357h-34c-45.333 0 -77 12.833 -95 38.5s-27 63.167 -27 112.5v6c0 49.333 9 86.833 27 112.5s49.667 38.5 95 38.5h56v-665z" />
    <glyph glyph-name="periodcentered" unicode="&#xb7;" horiz-adv-x="371" 
d="M188 383c12 0 21.833 -3.83301 29.5 -11.5s11.5 -17.167 11.5 -28.5c0 -12 -3.83301 -21.833 -11.5 -29.5s-17.5 -11.5 -29.5 -11.5s-22 3.83301 -30 11.5s-12 17.5 -12 29.5c0 11.333 4 20.833 12 28.5s18 11.5 30 11.5z" />
    <glyph glyph-name="cedilla" unicode="&#xb8;" horiz-adv-x="437" 
d="M195 0l39.001 0.000976562v-44h8c24.667 0 44.5 -5.66699 59.5 -17s22.5 -31 22.5 -59c0 -26.667 -8.16699 -47 -24.5 -61s-37.833 -21 -64.5 -21s-47.334 6.16699 -62.001 18.5s-22 32.166 -22 59.499v2h43v-2c0 -26.667 13.667 -40 41 -40
c13.333 0 23.833 3.5 31.5 10.5s11.5 17.833 11.5 32.5c0 15.333 -4.33301 26.333 -13 33s-21.667 10 -39 10h-31v78z" />
    <glyph glyph-name="onesuperior" unicode="&#xb9;" horiz-adv-x="306" 
d="M166 270v342l-98 -52l-29 43l118 66h64v-399h-55z" />
    <glyph glyph-name="ordmasculine" unicode="&#xba;" horiz-adv-x="240" 
d="M208 455c0 -30.667 -6.66699 -54.667 -20 -72s-36 -26 -68 -26s-54.667 8.66699 -68 26s-20 41.333 -20 72v122c0 30.667 7.16699 54.667 21.5 72s36.5 26 66.5 26s52.167 -8.66699 66.5 -26s21.5 -41.333 21.5 -72v-122zM160 585c0 14.667 -2.5 27.5 -7.5 38.5
s-15.833 16.5 -32.5 16.5s-27.667 -5.66699 -33 -17s-8 -24 -8 -38v-139c0 -14 2.66699 -26.333 8 -37s16.333 -16 33 -16s27.5 5.33301 32.5 16s7.5 23 7.5 37v139z" />
    <glyph glyph-name="guillemotright" unicode="&#xbb;" horiz-adv-x="468" 
d="M88 121l-43 40l137 131l-137 132l43 40l149 -144v-56zM269 121l-43 40l137 131l-137 132l43 40l149 -144v-56z" />
    <glyph glyph-name="onequarter" unicode="&#xbc;" horiz-adv-x="733" 
d="M170 270v342l-98 -52l-29 43l118 66h64v-399h-55zM243 0h-55l347 665h55zM629 81h-167v58l140 260h56l-145 -271h116v74h51v-202h-51v81z" />
    <glyph glyph-name="onehalf" unicode="&#xbd;" horiz-adv-x="733" 
d="M170 270v342l-98 -52l-29 43l118 66h64v-399h-55zM216 0h-55l347 665h55zM470 296l0.000976562 7.99902c0 28.667 8.66699 52.667 26 72s46 29 86 29c38 0 65 -8.66699 81 -26s24 -39.666 24 -66.999v-8c0 -36 -23.333 -83.667 -70 -143l-86 -114h156v-47h-213v53l82 110
c26 33.333 45 60 57 80s18 38.667 18 56v5c0 16.667 -3.83301 30 -11.5 40s-20.834 15 -39.501 15c-20.667 0 -35 -5.66699 -43 -17s-12 -24.333 -12 -39v-7h-55z" />
    <glyph glyph-name="threequarters" unicode="&#xbe;" horiz-adv-x="734" 
d="M202 577c0 13.333 -3.99609 25.334 -11.9961 36.001s-21.667 16 -41 16c-18.667 0 -32 -5.5 -40 -16.5s-12 -23.5 -12 -37.5v-9h-55v7c0 30 8.83301 54.5 26.5 73.5s45.167 28.5 82.5 28.5c36.667 0 63.5 -9 80.5 -27s25.5 -40 25.5 -66v-17
c0 -20 -4.83301 -37.333 -14.5 -52s-22.834 -24.667 -39.501 -30v-2c17.333 -5.33301 30.666 -15.166 39.999 -29.499s14 -31.5 14 -51.5v-30c0 -30.667 -9 -56 -27 -76s-45 -30 -81 -30c-35.333 0 -62 8.66699 -80 26s-27 41.666 -27 72.999v13h55v-11
c0 -15.333 3.66699 -28.333 11 -39s20.666 -16 39.999 -16s33.166 6 41.499 18s12.5 26.333 12.5 43v29c0 15.333 -4.83301 28.666 -14.5 39.999s-24.167 17 -43.5 17h-31v45h30c20.667 0 35.667 5.83301 45 17.5s14 24.5 14 38.5v19zM244.004 0.000976562h-55l347 665h55z
M629.004 81.001h-167v58l140 260h56l-145 -271h116v74h51v-202h-51v81z" />
    <glyph glyph-name="questiondown" unicode="&#xbf;" horiz-adv-x="397" 
d="M343 25l-0.00195312 -44.0078c0 -44 -12.5 -78.833 -37.5 -104.5s-61.5 -38.5 -109.5 -38.5c-46 0 -80.333 11.667 -103 35s-34 53 -34 89v44c0 16 1.16699 30.167 3.5 42.5s6.5 23.833 12.5 34.5s14 21.334 24 32.001s22.667 22.334 38 35.001
c14.667 12 26 23.333 34 34s14 22 18 34s6.33301 25.333 7 40s1 31.667 1 51v49h64v-55c0 -25.333 -0.833008 -46.666 -2.5 -63.999s-5.16699 -32.666 -10.5 -45.999s-13 -25.833 -23 -37.5s-23.333 -24.5 -40 -38.5c-14 -11.333 -25.167 -21.666 -33.5 -30.999
s-14.5 -18.666 -18.5 -27.999s-6.66699 -18.666 -8 -27.999s-2 -19 -2 -29v-32c0 -21.333 6.33301 -39.166 19 -53.499s31.334 -21.5 56.001 -21.5s44.334 7.16699 59.001 21.5s22 36.833 22 67.5v42h64zM270.998 476.992c0 -12.667 -3.83301 -22.667 -11.5 -30
s-18.167 -11 -31.5 -11c-12.667 0 -22.834 3.66699 -30.501 11s-11.5 17.333 -11.5 30s3.83301 22.667 11.5 30s17.834 11 30.501 11c13.333 0 23.833 -3.66699 31.5 -11s11.5 -17.333 11.5 -30z" />
    <glyph glyph-name="Agrave" unicode="&#xc0;" horiz-adv-x="420" 
d="M28 0l144 665h76l144 -665h-66l-34 164h-166l-35 -164h-63zM133 218h151l-74 354h-3zM210 838l56 -135h-51l-72 135h67z" />
    <glyph glyph-name="Aacute" unicode="&#xc1;" horiz-adv-x="420" 
d="M28 0l144 665h76l144 -665h-66l-34 164h-166l-35 -164h-63zM133 218h151l-74 354h-3zM279 838l-72 -135h-52l57 135h67z" />
    <glyph glyph-name="Acircumflex" unicode="&#xc2;" horiz-adv-x="420" 
d="M28 0l144 665h76l144 -665h-66l-34 164h-166l-35 -164h-63zM133 218h151l-74 354h-3zM237 838l71 -135h-51l-47 93l-48 -93h-51l71 135h55z" />
    <glyph glyph-name="Atilde" unicode="&#xc3;" horiz-adv-x="420" 
d="M28 0l144 665h76l144 -665h-66l-34 164h-166l-35 -164h-63zM133 218h151l-74 354h-3zM84 724c0 18 1.83496 32.832 5.50195 44.499s8.66699 21 15 28s13.666 12 21.999 15s16.833 4.5 25.5 4.5c12.667 0 23.834 -2.16699 33.501 -6.5s18.5 -9.33301 26.5 -15
s15.667 -10.667 23 -15s15.666 -6.5 24.999 -6.5c7.33301 0 13.5 2.5 18.5 7.5s7.5 16.167 7.5 33.5v5h49v-5c0 -18 -1.83301 -32.833 -5.5 -44.5s-8.5 -21 -14.5 -28s-13 -12 -21 -15s-16.333 -4.5 -25 -4.5c-12.667 0 -23.834 2.33301 -33.501 7
s-18.667 9.83398 -27 15.501l-23.5 15.5c-7.33301 4.66699 -15.333 7 -24 7c-8 0 -14.5 -2.66699 -19.5 -8s-7.5 -17 -7.5 -35v-4h-50v4z" />
    <glyph glyph-name="Adieresis" unicode="&#xc4;" horiz-adv-x="420" 
d="M28 0l144 665h76l144 -665h-66l-34 164h-166l-35 -164h-63zM133 218h151l-74 354h-3zM144 810c11.333 0 20.666 -3.66699 27.999 -11s11 -16.666 11 -27.999s-3.66699 -20.5 -11 -27.5s-16.666 -10.5 -27.999 -10.5s-20.833 3.5 -28.5 10.5s-11.5 16.167 -11.5 27.5
s3.83301 20.666 11.5 27.999s17.167 11 28.5 11zM274 810c11.333 0 20.666 -3.66699 27.999 -11s11 -16.666 11 -27.999s-3.66699 -20.5 -11 -27.5s-16.666 -10.5 -27.999 -10.5s-20.666 3.5 -27.999 10.5s-11 16.167 -11 27.5s3.66699 20.666 11 27.999
s16.666 11 27.999 11z" />
    <glyph glyph-name="Aring" unicode="&#xc5;" horiz-adv-x="420" 
d="M28 0l144 665h76l144 -665h-66l-34 164h-166l-35 -164h-63zM133 218h151l-74 354h-3zM167 776c0 -11.333 3.33301 -21.333 10 -30s17.667 -13 33 -13s26.333 4.33301 33 13s10 18.667 10 30c0 12 -3.33301 22.333 -10 31s-17.667 13 -33 13s-26.333 -4.33301 -33 -13
s-10 -19 -10 -31zM128 776c0 23.333 7.33301 42.166 22 56.499s34.667 21.5 60 21.5s45.333 -7.16699 60 -21.5s22 -33.166 22 -56.499c0 -22.667 -7.33301 -41.167 -22 -55.5s-34.667 -21.5 -60 -21.5s-45.333 7.16699 -60 21.5s-22 32.833 -22 55.5z" />
    <glyph glyph-name="AE" unicode="&#xc6;" horiz-adv-x="607" 
d="M318 169h-163l-72 -169h-64l277 665h281v-56h-195v-224h162v-55h-162v-275h195v-55h-259v169zM318 224v340h-4l-141 -340h145z" />
    <glyph glyph-name="Ccedilla" unicode="&#xc7;" horiz-adv-x="394" 
d="M183 -8c-42 4.66699 -73.168 22.333 -93.501 53s-30.5 72.667 -30.5 126v323c0 58.667 12.167 103.5 36.5 134.5s61.5 46.5 111.5 46.5s87.333 -15.5 112 -46.5s37 -72.5 37 -124.5v-8h-64v18c0 11.333 -1.5 23.166 -4.5 35.499s-7.83301 23.833 -14.5 34.5
s-15.334 19.334 -26.001 26.001s-24 10 -40 10c-15.333 0 -28.5 -3.5 -39.5 -10.5s-19.833 -16.167 -26.5 -27.5s-11.5 -24 -14.5 -38s-4.5 -28 -4.5 -42v-339c0 -14 1.5 -28 4.5 -42s7.83301 -26.667 14.5 -38s15.5 -20.5 26.5 -27.5s24.167 -10.5 39.5 -10.5
c16 0 29.333 3.33301 40 10s19.334 15.334 26.001 26.001s11.5 22.167 14.5 34.5s4.5 24.166 4.5 35.499v18h64v-9c0 -48.667 -11.333 -88.167 -34 -118.5s-56 -47.166 -100 -50.499v-35h9c24.667 0 44.5 -5.66699 59.5 -17s22.5 -31 22.5 -59c0 -26 -8 -46.167 -24 -60.5
s-37.667 -21.5 -65 -21.5s-48.333 6.16699 -63 18.5s-22 32.166 -22 59.499v2h43v-2c0 -14 3.83301 -24.167 11.5 -30.5s17.834 -9.5 30.501 -9.5c28.667 0 43 14.333 43 43c0 15.333 -4.33301 26.333 -13 33s-21.667 10 -39 10h-32v70z" />
    <glyph glyph-name="Egrave" unicode="&#xc8;" horiz-adv-x="358" 
d="M329 609h-196v-224h163v-55h-163v-275h196v-55h-259v665h259v-56zM196 838l56 -135h-51l-72 135h67z" />
    <glyph glyph-name="Eacute" unicode="&#xc9;" horiz-adv-x="358" 
d="M329 609h-196v-224h163v-55h-163v-275h196v-55h-259v665h259v-56zM270 838l-72 -135h-52l57 135h67z" />
    <glyph glyph-name="Ecircumflex" unicode="&#xca;" horiz-adv-x="358" 
d="M329 609h-196v-224h163v-55h-163v-275h196v-55h-259v665h259v-56zM223 838l71 -135h-51l-47 93l-48 -93h-51l71 135h55z" />
    <glyph glyph-name="Edieresis" unicode="&#xcb;" horiz-adv-x="358" 
d="M329 609h-196v-224h163v-55h-163v-275h196v-55h-259v665h259v-56zM135 810c11.333 0 20.666 -3.66699 27.999 -11s11 -16.666 11 -27.999s-3.66699 -20.5 -11 -27.5s-16.666 -10.5 -27.999 -10.5s-20.833 3.5 -28.5 10.5s-11.5 16.167 -11.5 27.5
s3.83301 20.666 11.5 27.999s17.167 11 28.5 11zM265 810c11.333 0 20.666 -3.66699 27.999 -11s11 -16.666 11 -27.999s-3.66699 -20.5 -11 -27.5s-16.666 -10.5 -27.999 -10.5s-20.666 3.5 -27.999 10.5s-11 16.167 -11 27.5s3.66699 20.666 11 27.999
s16.666 11 27.999 11z" />
    <glyph glyph-name="Igrave" unicode="&#xcc;" horiz-adv-x="203" 
d="M70 0v665h63v-665h-63zM101 838l56 -135h-51l-72 135h67z" />
    <glyph glyph-name="Iacute" unicode="&#xcd;" horiz-adv-x="203" 
d="M70 0v665h63v-665h-63zM175 838l-72 -135h-52l57 135h67z" />
    <glyph glyph-name="Icircumflex" unicode="&#xce;" horiz-adv-x="203" 
d="M70 0v665h63v-665h-63zM129 838l71 -135h-51l-47 93l-48 -93h-51l71 135h55z" />
    <glyph glyph-name="Idieresis" unicode="&#xcf;" horiz-adv-x="203" 
d="M70 0v665h63v-665h-63zM37 810c11.333 0 20.666 -3.66699 27.999 -11s11 -16.666 11 -27.999s-3.66699 -20.5 -11 -27.5s-16.666 -10.5 -27.999 -10.5s-20.833 3.5 -28.5 10.5s-11.5 16.167 -11.5 27.5s3.83301 20.666 11.5 27.999s17.167 11 28.5 11zM167 810
c11.333 0 20.666 -3.66699 27.999 -11s11 -16.666 11 -27.999s-3.66699 -20.5 -11 -27.5s-16.666 -10.5 -27.999 -10.5s-20.666 3.5 -27.999 10.5s-11 16.167 -11 27.5s3.66699 20.666 11 27.999s16.666 11 27.999 11z" />
    <glyph glyph-name="Eth" unicode="&#xd0;" horiz-adv-x="435" 
d="M21 359h55v306h151c50 0 87.167 -13.833 111.5 -41.5s36.5 -67.5 36.5 -119.5v-343c0 -52 -12.167 -91.833 -36.5 -119.5s-61.5 -41.5 -111.5 -41.5h-151v305h-55v54zM312 512c0 12 -1.5 23.668 -4.5 35.001s-7.83301 21.666 -14.5 30.999s-15.5 16.833 -26.5 22.5
s-24.167 8.5 -39.5 8.5h-88v-250h84v-54h-84v-250h88c15.333 0 28.5 2.83301 39.5 8.5s19.833 13.167 26.5 22.5s11.5 19.833 14.5 31.5s4.5 23.5 4.5 35.5v359z" />
    <glyph glyph-name="Ntilde" unicode="&#xd1;" horiz-adv-x="460" 
d="M390 0h-78l-185 550h-3v-550h-54v665h77l185 -560h4v560h54v-665zM103 724c0 18 1.83496 32.832 5.50195 44.499s8.66699 21 15 28s13.666 12 21.999 15s16.833 4.5 25.5 4.5c12.667 0 23.834 -2.16699 33.501 -6.5s18.5 -9.33301 26.5 -15s15.667 -10.667 23 -15
s15.666 -6.5 24.999 -6.5c7.33301 0 13.5 2.5 18.5 7.5s7.5 16.167 7.5 33.5v5h49v-5c0 -18 -1.83301 -32.833 -5.5 -44.5s-8.5 -21 -14.5 -28s-13 -12 -21 -15s-16.333 -4.5 -25 -4.5c-12.667 0 -23.834 2.33301 -33.501 7s-18.667 9.83398 -27 15.501l-23.5 15.5
c-7.33301 4.66699 -15.333 7 -24 7c-8 0 -14.5 -2.66699 -19.5 -8s-7.5 -17 -7.5 -35v-4h-50v4z" />
    <glyph glyph-name="Ograve" unicode="&#xd2;" horiz-adv-x="412" 
d="M354 171c0 -58.667 -12.333 -103.5 -37 -134.5s-62 -46.5 -112 -46.5s-87 15.5 -111 46.5s-36 75.833 -36 134.5v323c0 58.667 12.167 103.5 36.5 134.5s61.5 46.5 111.5 46.5s87.167 -15.5 111.5 -46.5s36.5 -75.833 36.5 -134.5v-323zM290 502
c0 14 -1.33301 28.166 -4 42.499s-7.33398 27 -14.001 38s-15.5 20 -26.5 27s-24.5 10.5 -40.5 10.5s-29.333 -3.5 -40 -10.5s-19.167 -16 -25.5 -27s-11 -23.667 -14 -38s-4.5 -28.5 -4.5 -42.5v-338c0 -14 1.5 -28.167 4.5 -42.5s7.66699 -27.166 14 -38.499
s14.833 -20.5 25.5 -27.5s24 -10.5 40 -10.5s29.5 3.5 40.5 10.5s19.833 16.167 26.5 27.5s11.334 24 14.001 38s4 28.333 4 43v338zM206 837.999l56 -135h-51l-72 135h67z" />
    <glyph glyph-name="Oacute" unicode="&#xd3;" horiz-adv-x="412" 
d="M354 171c0 -58.667 -12.333 -103.5 -37 -134.5s-62 -46.5 -112 -46.5s-87 15.5 -111 46.5s-36 75.833 -36 134.5v323c0 58.667 12.167 103.5 36.5 134.5s61.5 46.5 111.5 46.5s87.167 -15.5 111.5 -46.5s36.5 -75.833 36.5 -134.5v-323zM290 502
c0 14 -1.33301 28.166 -4 42.499s-7.33398 27 -14.001 38s-15.5 20 -26.5 27s-24.5 10.5 -40.5 10.5s-29.333 -3.5 -40 -10.5s-19.167 -16 -25.5 -27s-11 -23.667 -14 -38s-4.5 -28.5 -4.5 -42.5v-338c0 -14 1.5 -28.167 4.5 -42.5s7.66699 -27.166 14 -38.499
s14.833 -20.5 25.5 -27.5s24 -10.5 40 -10.5s29.5 3.5 40.5 10.5s19.833 16.167 26.5 27.5s11.334 24 14.001 38s4 28.333 4 43v338zM280 837.999l-72 -135h-52l57 135h67z" />
    <glyph glyph-name="Ocircumflex" unicode="&#xd4;" horiz-adv-x="412" 
d="M354 171c0 -58.667 -12.333 -103.5 -37 -134.5s-62 -46.5 -112 -46.5s-87 15.5 -111 46.5s-36 75.833 -36 134.5v323c0 58.667 12.167 103.5 36.5 134.5s61.5 46.5 111.5 46.5s87.167 -15.5 111.5 -46.5s36.5 -75.833 36.5 -134.5v-323zM290 502
c0 14 -1.33301 28.166 -4 42.499s-7.33398 27 -14.001 38s-15.5 20 -26.5 27s-24.5 10.5 -40.5 10.5s-29.333 -3.5 -40 -10.5s-19.167 -16 -25.5 -27s-11 -23.667 -14 -38s-4.5 -28.5 -4.5 -42.5v-338c0 -14 1.5 -28.167 4.5 -42.5s7.66699 -27.166 14 -38.499
s14.833 -20.5 25.5 -27.5s24 -10.5 40 -10.5s29.5 3.5 40.5 10.5s19.833 16.167 26.5 27.5s11.334 24 14.001 38s4 28.333 4 43v338zM233 837.999l71 -135h-51l-47 93l-48 -93h-51l71 135h55z" />
    <glyph glyph-name="Otilde" unicode="&#xd5;" horiz-adv-x="412" 
d="M354 171c0 -58.667 -12.333 -103.5 -37 -134.5s-62 -46.5 -112 -46.5s-87 15.5 -111 46.5s-36 75.833 -36 134.5v323c0 58.667 12.167 103.5 36.5 134.5s61.5 46.5 111.5 46.5s87.167 -15.5 111.5 -46.5s36.5 -75.833 36.5 -134.5v-323zM290 502
c0 14 -1.33301 28.166 -4 42.499s-7.33398 27 -14.001 38s-15.5 20 -26.5 27s-24.5 10.5 -40.5 10.5s-29.333 -3.5 -40 -10.5s-19.167 -16 -25.5 -27s-11 -23.667 -14 -38s-4.5 -28.5 -4.5 -42.5v-338c0 -14 1.5 -28.167 4.5 -42.5s7.66699 -27.166 14 -38.499
s14.833 -20.5 25.5 -27.5s24 -10.5 40 -10.5s29.5 3.5 40.5 10.5s19.833 16.167 26.5 27.5s11.334 24 14.001 38s4 28.333 4 43v338zM80 723.999c0 18 1.83496 32.832 5.50195 44.499s8.66699 21 15 28s13.666 12 21.999 15s16.833 4.5 25.5 4.5
c12.667 0 23.834 -2.16699 33.501 -6.5s18.5 -9.33301 26.5 -15s15.667 -10.667 23 -15s15.666 -6.5 24.999 -6.5c7.33301 0 13.5 2.5 18.5 7.5s7.5 16.167 7.5 33.5v5h49v-5c0 -18 -1.83301 -32.833 -5.5 -44.5s-8.5 -21 -14.5 -28s-13 -12 -21 -15s-16.333 -4.5 -25 -4.5
c-12.667 0 -23.834 2.33301 -33.501 7s-18.667 9.83398 -27 15.501l-23.5 15.5c-7.33301 4.66699 -15.333 7 -24 7c-8 0 -14.5 -2.66699 -19.5 -8s-7.5 -17 -7.5 -35v-4h-50v4z" />
    <glyph glyph-name="Odieresis" unicode="&#xd6;" horiz-adv-x="412" 
d="M354 171c0 -58.667 -12.333 -103.5 -37 -134.5s-62 -46.5 -112 -46.5s-87 15.5 -111 46.5s-36 75.833 -36 134.5v323c0 58.667 12.167 103.5 36.5 134.5s61.5 46.5 111.5 46.5s87.167 -15.5 111.5 -46.5s36.5 -75.833 36.5 -134.5v-323zM290 502
c0 14 -1.33301 28.166 -4 42.499s-7.33398 27 -14.001 38s-15.5 20 -26.5 27s-24.5 10.5 -40.5 10.5s-29.333 -3.5 -40 -10.5s-19.167 -16 -25.5 -27s-11 -23.667 -14 -38s-4.5 -28.5 -4.5 -42.5v-338c0 -14 1.5 -28.167 4.5 -42.5s7.66699 -27.166 14 -38.499
s14.833 -20.5 25.5 -27.5s24 -10.5 40 -10.5s29.5 3.5 40.5 10.5s19.833 16.167 26.5 27.5s11.334 24 14.001 38s4 28.333 4 43v338zM141 809.999c11.333 0 20.666 -3.66699 27.999 -11s11 -16.666 11 -27.999s-3.66699 -20.5 -11 -27.5s-16.666 -10.5 -27.999 -10.5
s-20.833 3.5 -28.5 10.5s-11.5 16.167 -11.5 27.5s3.83301 20.666 11.5 27.999s17.167 11 28.5 11zM271 809.999c11.333 0 20.666 -3.66699 27.999 -11s11 -16.666 11 -27.999s-3.66699 -20.5 -11 -27.5s-16.666 -10.5 -27.999 -10.5s-20.666 3.5 -27.999 10.5
s-11 16.167 -11 27.5s3.66699 20.666 11 27.999s16.666 11 27.999 11z" />
    <glyph glyph-name="multiply" unicode="&#xd7;" horiz-adv-x="412" 
d="M100 234l67 68l-67 67l39 39l67 -67l68 67l39 -39l-67 -67l67 -68l-39 -39l-68 67l-67 -67z" />
    <glyph glyph-name="Oslash" unicode="&#xd8;" 
d="M354 171c0 -58.667 -12.332 -103.5 -36.999 -134.5s-62 -46.5 -112 -46.5c-40.667 0 -72.334 10 -95.001 30l-20 -55l-32 9l27 75c-18 30 -27 70.667 -27 122v323c0 58.667 12.167 103.5 36.5 134.5s61.5 46.5 111.5 46.5c39.333 0 71.333 -10.667 96 -32l21 57l32 -9
l-28 -77c18 -30 27 -70 27 -120v-323zM121.001 148l155 425c-6 13.333 -14.833 24.5 -26.5 33.5s-26.5 13.5 -44.5 13.5c-16 0 -29.333 -3.5 -40 -10.5s-19.167 -16 -25.5 -27s-11 -23.667 -14 -38s-4.5 -28.5 -4.5 -42.5v-354zM290.001 512l-155 -422.001
c6.66699 -13.333 15.667 -24.166 27 -32.499s25.666 -12.5 42.999 -12.5c16 0 29.5 3.5 40.5 10.5s19.833 16.167 26.5 27.5s11.334 24 14.001 38s4 28.333 4 43v348z" />
    <glyph glyph-name="Ugrave" unicode="&#xd9;" horiz-adv-x="433" 
d="M365 665v-494c0 -58.667 -12.333 -103.5 -37 -134.5s-62 -46.5 -112 -46.5s-87.167 15.5 -111.5 46.5s-36.5 75.833 -36.5 134.5v494h63v-502c0 -14 1.5 -28 4.5 -42s8 -26.667 15 -38s15.833 -20.5 26.5 -27.5s23.667 -10.5 39 -10.5c16 0 29.5 3.5 40.5 10.5
s19.833 16.167 26.5 27.5s11.5 24 14.5 38s4.5 28 4.5 42v502h63zM218 838l56 -135h-51l-72 135h67z" />
    <glyph glyph-name="Uacute" unicode="&#xda;" horiz-adv-x="433" 
d="M365 665v-494c0 -58.667 -12.333 -103.5 -37 -134.5s-62 -46.5 -112 -46.5s-87.167 15.5 -111.5 46.5s-36.5 75.833 -36.5 134.5v494h63v-502c0 -14 1.5 -28 4.5 -42s8 -26.667 15 -38s15.833 -20.5 26.5 -27.5s23.667 -10.5 39 -10.5c16 0 29.5 3.5 40.5 10.5
s19.833 16.167 26.5 27.5s11.5 24 14.5 38s4.5 28 4.5 42v502h63zM291 838l-72 -135h-52l57 135h67z" />
    <glyph glyph-name="Ucircumflex" unicode="&#xdb;" horiz-adv-x="433" 
d="M365 665v-494c0 -58.667 -12.333 -103.5 -37 -134.5s-62 -46.5 -112 -46.5s-87.167 15.5 -111.5 46.5s-36.5 75.833 -36.5 134.5v494h63v-502c0 -14 1.5 -28 4.5 -42s8 -26.667 15 -38s15.833 -20.5 26.5 -27.5s23.667 -10.5 39 -10.5c16 0 29.5 3.5 40.5 10.5
s19.833 16.167 26.5 27.5s11.5 24 14.5 38s4.5 28 4.5 42v502h63zM245 838l71 -135h-51l-47 93l-48 -93h-51l71 135h55z" />
    <glyph glyph-name="Udieresis" unicode="&#xdc;" horiz-adv-x="433" 
d="M365 665v-494c0 -58.667 -12.333 -103.5 -37 -134.5s-62 -46.5 -112 -46.5s-87.167 15.5 -111.5 46.5s-36.5 75.833 -36.5 134.5v494h63v-502c0 -14 1.5 -28 4.5 -42s8 -26.667 15 -38s15.833 -20.5 26.5 -27.5s23.667 -10.5 39 -10.5c16 0 29.5 3.5 40.5 10.5
s19.833 16.167 26.5 27.5s11.5 24 14.5 38s4.5 28 4.5 42v502h63zM152 810c11.333 0 20.666 -3.66699 27.999 -11s11 -16.666 11 -27.999s-3.66699 -20.5 -11 -27.5s-16.666 -10.5 -27.999 -10.5s-20.833 3.5 -28.5 10.5s-11.5 16.167 -11.5 27.5
s3.83301 20.666 11.5 27.999s17.167 11 28.5 11zM282 810c11.333 0 20.666 -3.66699 27.999 -11s11 -16.666 11 -27.999s-3.66699 -20.5 -11 -27.5s-16.666 -10.5 -27.999 -10.5s-20.666 3.5 -27.999 10.5s-11 16.167 -11 27.5s3.66699 20.666 11 27.999
s16.666 11 27.999 11z" />
    <glyph glyph-name="Yacute" unicode="&#xdd;" horiz-adv-x="409" 
d="M236 215v-215h-64v216l-143 449h66l107 -364h3l108 364h66zM278 838l-72 -135h-52l57 135h67z" />
    <glyph glyph-name="Thorn" unicode="&#xde;" horiz-adv-x="412" 
d="M363 299c0 -52.667 -12.333 -92.666 -37 -119.999s-62 -41 -112 -41h-79v-138h-65v665h65v-138h79c50 0 87.333 -13.833 112 -41.5s37 -67.834 37 -120.501v-66zM300 374.001c0 12.667 -1.66699 25 -5 37s-8.5 22.5 -15.5 31.5s-16 16.167 -27 21.5s-24.5 8 -40.5 8h-77
v-279h77c32 0 54.667 10 68 30s20 43 20 69v82z" />
    <glyph glyph-name="germandbls" unicode="&#xdf;" horiz-adv-x="404" 
d="M133 -65l-5.00098 -65h-58v675c0 49.333 10.833 89.166 32.5 119.499s56.5 45.5 104.5 45.5s83.167 -13.5 105.5 -40.5s33.5 -65.5 33.5 -115.5v-21c0 -36.667 -6.66699 -65 -20 -85s-31.666 -35.667 -54.999 -47c24 -10 42.5 -25.833 55.5 -47.5s19.5 -52.5 19.5 -92.5
v-116c0 -48 -10.167 -85.167 -30.5 -111.5s-52.5 -39.5 -96.5 -39.5h-23v55h17c21.333 0 38.333 7.5 51 22.5s19 37.5 19 67.5v138c0 26 -5.83301 47.833 -17.5 65.5s-31.5 26.5 -59.5 26.5h-20v55h20c12.667 0 23.834 2.66699 33.501 8s17.834 12.333 24.501 21
s11.5 18.5 14.5 29.5s4.5 21.833 4.5 32.5v45c0 12.667 -1 24.834 -3 36.501s-5.83301 22.167 -11.5 31.5s-13.334 16.833 -23.001 22.5s-21.834 8.5 -36.501 8.5c-15.333 0 -28 -3.16699 -38 -9.5s-17.833 -14.5 -23.5 -24.5s-9.5 -21.333 -11.5 -34s-3 -25 -3 -37v-619z
" />
    <glyph glyph-name="agrave" unicode="&#xe0;" horiz-adv-x="397" 
d="M56 367l-0.00195312 13.9951c0 18 2.5 35.333 7.5 52s12.667 31.167 23 43.5s24 22.333 41 30s37.5 11.5 61.5 11.5c48.667 0 83.834 -13.167 105.501 -39.5s32.5 -65.5 32.5 -117.5v-275c0 -15.333 3.16699 -25.666 9.5 -30.999s15.5 -8.66602 27.5 -9.99902v-55
c-31.333 0.666992 -53.166 6.33398 -65.499 17.001s-21.166 26.334 -26.499 47.001c-10.667 -19.333 -24.5 -34.833 -41.5 -46.5s-38.167 -17.5 -63.5 -17.5c-36.667 0 -65 11.167 -85 33.5s-30 55.5 -30 99.5v42c0 18 2.16699 35 6.5 51s11.333 29.833 21 41.5
s22.334 21 38.001 28s34.5 10.5 56.5 10.5c15.333 0 30.666 -1.66699 45.999 -5s29.666 -8.66602 42.999 -15.999v95c0 12 -1 23.833 -3 35.5s-5.66699 22 -11 31s-12.833 16.333 -22.5 22s-22.167 8.5 -37.5 8.5c-26 0 -44.833 -7.83301 -56.5 -23.5
s-17.5 -36.167 -17.5 -61.5v-15h-59zM262.998 236.995c-11.333 4 -21.668 7.33496 -31.001 10.002s-21.333 4 -36 4c-32 0 -53.5 -8.33301 -64.5 -25s-16.5 -41 -16.5 -73v-16c0 -30.667 4.83301 -54.334 14.5 -71.001s29.5 -25 59.5 -25c16.667 0 31.334 4.66699 44.001 14
s22.667 20.666 30 33.999v148zM194.996 682.997l56 -135h-51l-72 135h67z" />
    <glyph glyph-name="aacute" unicode="&#xe1;" horiz-adv-x="397" 
d="M56 367l-0.00195312 13.9951c0 18 2.5 35.333 7.5 52s12.667 31.167 23 43.5s24 22.333 41 30s37.5 11.5 61.5 11.5c48.667 0 83.834 -13.167 105.501 -39.5s32.5 -65.5 32.5 -117.5v-275c0 -15.333 3.16699 -25.666 9.5 -30.999s15.5 -8.66602 27.5 -9.99902v-55
c-31.333 0.666992 -53.166 6.33398 -65.499 17.001s-21.166 26.334 -26.499 47.001c-10.667 -19.333 -24.5 -34.833 -41.5 -46.5s-38.167 -17.5 -63.5 -17.5c-36.667 0 -65 11.167 -85 33.5s-30 55.5 -30 99.5v42c0 18 2.16699 35 6.5 51s11.333 29.833 21 41.5
s22.334 21 38.001 28s34.5 10.5 56.5 10.5c15.333 0 30.666 -1.66699 45.999 -5s29.666 -8.66602 42.999 -15.999v95c0 12 -1 23.833 -3 35.5s-5.66699 22 -11 31s-12.833 16.333 -22.5 22s-22.167 8.5 -37.5 8.5c-26 0 -44.833 -7.83301 -56.5 -23.5
s-17.5 -36.167 -17.5 -61.5v-15h-59zM262.998 236.995c-11.333 4 -21.668 7.33496 -31.001 10.002s-21.333 4 -36 4c-32 0 -53.5 -8.33301 -64.5 -25s-16.5 -41 -16.5 -73v-16c0 -30.667 4.83301 -54.334 14.5 -71.001s29.5 -25 59.5 -25c16.667 0 31.334 4.66699 44.001 14
s22.667 20.666 30 33.999v148zM267.996 682.997l-72 -135h-52l57 135h67z" />
    <glyph glyph-name="acircumflex" unicode="&#xe2;" horiz-adv-x="397" 
d="M56 367l-0.00195312 13.9951c0 18 2.5 35.333 7.5 52s12.667 31.167 23 43.5s24 22.333 41 30s37.5 11.5 61.5 11.5c48.667 0 83.834 -13.167 105.501 -39.5s32.5 -65.5 32.5 -117.5v-275c0 -15.333 3.16699 -25.666 9.5 -30.999s15.5 -8.66602 27.5 -9.99902v-55
c-31.333 0.666992 -53.166 6.33398 -65.499 17.001s-21.166 26.334 -26.499 47.001c-10.667 -19.333 -24.5 -34.833 -41.5 -46.5s-38.167 -17.5 -63.5 -17.5c-36.667 0 -65 11.167 -85 33.5s-30 55.5 -30 99.5v42c0 18 2.16699 35 6.5 51s11.333 29.833 21 41.5
s22.334 21 38.001 28s34.5 10.5 56.5 10.5c15.333 0 30.666 -1.66699 45.999 -5s29.666 -8.66602 42.999 -15.999v95c0 12 -1 23.833 -3 35.5s-5.66699 22 -11 31s-12.833 16.333 -22.5 22s-22.167 8.5 -37.5 8.5c-26 0 -44.833 -7.83301 -56.5 -23.5
s-17.5 -36.167 -17.5 -61.5v-15h-59zM262.998 236.995c-11.333 4 -21.668 7.33496 -31.001 10.002s-21.333 4 -36 4c-32 0 -53.5 -8.33301 -64.5 -25s-16.5 -41 -16.5 -73v-16c0 -30.667 4.83301 -54.334 14.5 -71.001s29.5 -25 59.5 -25c16.667 0 31.334 4.66699 44.001 14
s22.667 20.666 30 33.999v148zM221.996 682.997l71 -135h-51l-47 93l-48 -93h-51l71 135h55z" />
    <glyph glyph-name="atilde" unicode="&#xe3;" horiz-adv-x="397" 
d="M56 367l-0.00195312 13.9951c0 18 2.5 35.333 7.5 52s12.667 31.167 23 43.5s24 22.333 41 30s37.5 11.5 61.5 11.5c48.667 0 83.834 -13.167 105.501 -39.5s32.5 -65.5 32.5 -117.5v-275c0 -15.333 3.16699 -25.666 9.5 -30.999s15.5 -8.66602 27.5 -9.99902v-55
c-31.333 0.666992 -53.166 6.33398 -65.499 17.001s-21.166 26.334 -26.499 47.001c-10.667 -19.333 -24.5 -34.833 -41.5 -46.5s-38.167 -17.5 -63.5 -17.5c-36.667 0 -65 11.167 -85 33.5s-30 55.5 -30 99.5v42c0 18 2.16699 35 6.5 51s11.333 29.833 21 41.5
s22.334 21 38.001 28s34.5 10.5 56.5 10.5c15.333 0 30.666 -1.66699 45.999 -5s29.666 -8.66602 42.999 -15.999v95c0 12 -1 23.833 -3 35.5s-5.66699 22 -11 31s-12.833 16.333 -22.5 22s-22.167 8.5 -37.5 8.5c-26 0 -44.833 -7.83301 -56.5 -23.5
s-17.5 -36.167 -17.5 -61.5v-15h-59zM262.998 236.995c-11.333 4 -21.668 7.33496 -31.001 10.002s-21.333 4 -36 4c-32 0 -53.5 -8.33301 -64.5 -25s-16.5 -41 -16.5 -73v-16c0 -30.667 4.83301 -54.334 14.5 -71.001s29.5 -25 59.5 -25c16.667 0 31.334 4.66699 44.001 14
s22.667 20.666 30 33.999v148zM69.9961 568.997c0 18 1.83496 32.832 5.50195 44.499s8.66699 21 15 28s13.666 12 21.999 15s16.833 4.5 25.5 4.5c12.667 0 23.834 -2.16699 33.501 -6.5s18.5 -9.33301 26.5 -15s15.667 -10.667 23 -15s15.666 -6.5 24.999 -6.5
c7.33301 0 13.5 2.5 18.5 7.5s7.5 16.167 7.5 33.5v5h49v-5c0 -18 -1.83301 -32.833 -5.5 -44.5s-8.5 -21 -14.5 -28s-13 -12 -21 -15s-16.333 -4.5 -25 -4.5c-12.667 0 -23.834 2.33301 -33.501 7s-18.667 9.83398 -27 15.501l-23.5 15.5c-7.33301 4.66699 -15.333 7 -24 7
c-8 0 -14.5 -2.66699 -19.5 -8s-7.5 -17 -7.5 -35v-4h-50v4z" />
    <glyph glyph-name="adieresis" unicode="&#xe4;" horiz-adv-x="397" 
d="M56 367l-0.00195312 13.9951c0 18 2.5 35.333 7.5 52s12.667 31.167 23 43.5s24 22.333 41 30s37.5 11.5 61.5 11.5c48.667 0 83.834 -13.167 105.501 -39.5s32.5 -65.5 32.5 -117.5v-275c0 -15.333 3.16699 -25.666 9.5 -30.999s15.5 -8.66602 27.5 -9.99902v-55
c-31.333 0.666992 -53.166 6.33398 -65.499 17.001s-21.166 26.334 -26.499 47.001c-10.667 -19.333 -24.5 -34.833 -41.5 -46.5s-38.167 -17.5 -63.5 -17.5c-36.667 0 -65 11.167 -85 33.5s-30 55.5 -30 99.5v42c0 18 2.16699 35 6.5 51s11.333 29.833 21 41.5
s22.334 21 38.001 28s34.5 10.5 56.5 10.5c15.333 0 30.666 -1.66699 45.999 -5s29.666 -8.66602 42.999 -15.999v95c0 12 -1 23.833 -3 35.5s-5.66699 22 -11 31s-12.833 16.333 -22.5 22s-22.167 8.5 -37.5 8.5c-26 0 -44.833 -7.83301 -56.5 -23.5
s-17.5 -36.167 -17.5 -61.5v-15h-59zM262.998 236.995c-11.333 4 -21.668 7.33496 -31.001 10.002s-21.333 4 -36 4c-32 0 -53.5 -8.33301 -64.5 -25s-16.5 -41 -16.5 -73v-16c0 -30.667 4.83301 -54.334 14.5 -71.001s29.5 -25 59.5 -25c16.667 0 31.334 4.66699 44.001 14
s22.667 20.666 30 33.999v148zM129.996 654.997c11.333 0 20.666 -3.66699 27.999 -11s11 -16.666 11 -27.999s-3.66699 -20.5 -11 -27.5s-16.666 -10.5 -27.999 -10.5s-20.833 3.5 -28.5 10.5s-11.5 16.167 -11.5 27.5s3.83301 20.666 11.5 27.999s17.167 11 28.5 11z
M259.996 654.997c11.333 0 20.666 -3.66699 27.999 -11s11 -16.666 11 -27.999s-3.66699 -20.5 -11 -27.5s-16.666 -10.5 -27.999 -10.5s-20.666 3.5 -27.999 10.5s-11 16.167 -11 27.5s3.66699 20.666 11 27.999s16.666 11 27.999 11z" />
    <glyph glyph-name="aring" unicode="&#xe5;" horiz-adv-x="397" 
d="M56 367l-0.00195312 13.9951c0 18 2.5 35.333 7.5 52s12.667 31.167 23 43.5s24 22.333 41 30s37.5 11.5 61.5 11.5c48.667 0 83.834 -13.167 105.501 -39.5s32.5 -65.5 32.5 -117.5v-275c0 -15.333 3.16699 -25.666 9.5 -30.999s15.5 -8.66602 27.5 -9.99902v-55
c-31.333 0.666992 -53.166 6.33398 -65.499 17.001s-21.166 26.334 -26.499 47.001c-10.667 -19.333 -24.5 -34.833 -41.5 -46.5s-38.167 -17.5 -63.5 -17.5c-36.667 0 -65 11.167 -85 33.5s-30 55.5 -30 99.5v42c0 18 2.16699 35 6.5 51s11.333 29.833 21 41.5
s22.334 21 38.001 28s34.5 10.5 56.5 10.5c15.333 0 30.666 -1.66699 45.999 -5s29.666 -8.66602 42.999 -15.999v95c0 12 -1 23.833 -3 35.5s-5.66699 22 -11 31s-12.833 16.333 -22.5 22s-22.167 8.5 -37.5 8.5c-26 0 -44.833 -7.83301 -56.5 -23.5
s-17.5 -36.167 -17.5 -61.5v-15h-59zM262.998 236.995c-11.333 4 -21.668 7.33496 -31.001 10.002s-21.333 4 -36 4c-32 0 -53.5 -8.33301 -64.5 -25s-16.5 -41 -16.5 -73v-16c0 -30.667 4.83301 -54.334 14.5 -71.001s29.5 -25 59.5 -25c16.667 0 31.334 4.66699 44.001 14
s22.667 20.666 30 33.999v148zM152.996 620.997c0 -11.333 3.33301 -21.333 10 -30s17.667 -13 33 -13s26.333 4.33301 33 13s10 18.667 10 30c0 12 -3.33301 22.333 -10 31s-17.667 13 -33 13s-26.333 -4.33301 -33 -13s-10 -19 -10 -31zM113.996 620.997
c0 23.333 7.33301 42.166 22 56.499s34.667 21.5 60 21.5s45.333 -7.16699 60 -21.5s22 -33.166 22 -56.499c0 -22.667 -7.33301 -41.167 -22 -55.5s-34.667 -21.5 -60 -21.5s-45.333 7.16699 -60 21.5s-22 32.833 -22 55.5z" />
    <glyph glyph-name="ae" unicode="&#xe6;" horiz-adv-x="592" 
d="M263 237c-11.333 4 -21.668 7.33301 -31.001 10s-21.333 4 -36 4c-31.333 0 -52.666 -8.66699 -63.999 -26s-17 -39.333 -17 -66v-31c0 -25.333 4.66699 -46.166 14 -62.499s28 -24.5 56 -24.5c17.333 0 32.833 5.16699 46.5 15.5s24.167 23.166 31.5 38.499v142z
M326.998 146c0 -14 1 -27.5 3 -40.5s5.66699 -24.167 11 -33.5s12.666 -16.833 21.999 -22.5s21.666 -8.5 36.999 -8.5s27.833 2.83301 37.5 8.5s17.334 13.334 23.001 23.001s9.5 20.834 11.5 33.501s3 26 3 40v9h63v-8c0 -48 -10.667 -86.167 -32 -114.5
s-55 -42.5 -101 -42.5c-27.333 0 -50.166 6 -68.499 18s-32.5 28.667 -42.5 50c-30.667 -45.333 -71 -68 -121 -68c-39.333 0 -69.333 11.167 -90 33.5s-31 55.5 -31 99.5v40c0 18 2.33301 35 7 51s12 30 22 42s22.833 21.667 38.5 29s34.834 11 57.501 11
c13.333 0 27.666 -1.5 42.999 -4.5s29.666 -7.83301 42.999 -14.5v79c0 14 -1 27.667 -3 41s-5.66699 25.166 -11 35.499s-12.833 18.666 -22.5 24.999s-22.167 9.5 -37.5 9.5c-26 0 -44.833 -7.83301 -56.5 -23.5s-17.5 -36.167 -17.5 -61.5v-15h-59v14
c0 18.667 2.66699 36.334 8 53.001s13.333 31.167 24 43.5s24 22.166 40 29.499s35 11 57 11c28 0 50.833 -6 68.5 -18s31.834 -29 42.501 -51c9.33301 22 23 39 41 51s40.667 18 68 18c46 0 79.667 -15 101 -45s32 -73 32 -129v-99h-211v-99zM473.998 356
c0 14.667 -1.00195 28.667 -3.00195 42s-5.66699 25.166 -11 35.499s-12.833 18.5 -22.5 24.5s-22.167 9 -37.5 9s-27.666 -3 -36.999 -9s-16.666 -14.167 -21.999 -24.5s-9 -22.166 -11 -35.499s-3 -27.333 -3 -42v-62h147v62z" />
    <glyph glyph-name="ccedilla" unicode="&#xe7;" horiz-adv-x="378" 
d="M170 -8c-40 4.66699 -68.665 21.6621 -85.998 50.9951s-26 69.666 -26 120.999v180c0 56 10.5 99 31.5 129s55.833 45 104.5 45s83.5 -14.5 104.5 -43.5s31.5 -68.833 31.5 -119.5v-19h-60v26c0 14 -1 27.333 -3 40s-5.83301 23.834 -11.5 33.501
s-13.334 17.334 -23.001 23.001s-22.167 8.5 -37.5 8.5s-27.833 -3 -37.5 -9s-17.167 -14.167 -22.5 -24.5s-9 -22.166 -11 -35.499s-3 -27.333 -3 -42v-204c0 -14.667 1 -28.667 3 -42s5.66699 -25.166 11 -35.499s12.833 -18.5 22.5 -24.5s22.167 -9 37.5 -9
s27.833 2.83301 37.5 8.5s17.334 13.334 23.001 23.001s9.5 20.834 11.5 33.501s3 26 3 40v26h60v-19c0 -48 -9.5 -86.167 -28.5 -114.5s-50.167 -44.166 -93.5 -47.499v-35h9c24.667 0 44.5 -5.66699 59.5 -17s22.5 -31 22.5 -59c0 -26.667 -8.16699 -47 -24.5 -61
s-37.833 -21 -64.5 -21s-47.334 6.16699 -62.001 18.5s-22 32.166 -22 59.499v2h42v-2c0 -13.333 3.66699 -23.333 11 -30s17.666 -10 30.999 -10s23.833 3.5 31.5 10.5s11.5 17.833 11.5 32.5c0 15.333 -4.33301 26.333 -13 33s-21.667 10 -39 10h-31v70z" />
    <glyph glyph-name="egrave" unicode="&#xe8;" horiz-adv-x="386" 
d="M121 294h148v62c0 14.667 -1 28.667 -3 42s-5.66699 25.166 -11 35.499s-12.833 18.5 -22.5 24.5s-22.167 9 -37.5 9s-27.833 -3 -37.5 -9s-17.167 -14.167 -22.5 -24.5s-9 -22.166 -11 -35.499s-3 -27.333 -3 -42v-62zM271 155l61.999 -0.00292969v-8
c0 -48 -11 -86.167 -33 -114.5s-57.333 -42.5 -106 -42.5c-50 0 -85.167 15 -105.5 45s-30.5 73 -30.5 129v180c0 56 10.5 99 31.5 129s55.833 45 104.5 45c50 0 85.667 -15 107 -45s32 -73 32 -129v-99h-212v-93c0 -14.667 1 -28.667 3 -42s5.66699 -25.166 11 -35.499
s12.833 -18.5 22.5 -24.5s22.167 -9 37.5 -9s27.833 2.83301 37.5 8.5s17.334 13.334 23.001 23.001s9.66699 20.834 12 33.501s3.5 26 3.5 40v9zM193.999 682.997l56 -135h-51l-72 135h67z" />
    <glyph glyph-name="eacute" unicode="&#xe9;" horiz-adv-x="386" 
d="M121 294h148v62c0 14.667 -1 28.667 -3 42s-5.66699 25.166 -11 35.499s-12.833 18.5 -22.5 24.5s-22.167 9 -37.5 9s-27.833 -3 -37.5 -9s-17.167 -14.167 -22.5 -24.5s-9 -22.166 -11 -35.499s-3 -27.333 -3 -42v-62zM271 155l61.999 -0.00292969v-8
c0 -48 -11 -86.167 -33 -114.5s-57.333 -42.5 -106 -42.5c-50 0 -85.167 15 -105.5 45s-30.5 73 -30.5 129v180c0 56 10.5 99 31.5 129s55.833 45 104.5 45c50 0 85.667 -15 107 -45s32 -73 32 -129v-99h-212v-93c0 -14.667 1 -28.667 3 -42s5.66699 -25.166 11 -35.499
s12.833 -18.5 22.5 -24.5s22.167 -9 37.5 -9s27.833 2.83301 37.5 8.5s17.334 13.334 23.001 23.001s9.66699 20.834 12 33.501s3.5 26 3.5 40v9zM266.999 682.997l-72 -135h-52l57 135h67z" />
    <glyph glyph-name="ecircumflex" unicode="&#xea;" horiz-adv-x="386" 
d="M121 294h148v62c0 14.667 -1 28.667 -3 42s-5.66699 25.166 -11 35.499s-12.833 18.5 -22.5 24.5s-22.167 9 -37.5 9s-27.833 -3 -37.5 -9s-17.167 -14.167 -22.5 -24.5s-9 -22.166 -11 -35.499s-3 -27.333 -3 -42v-62zM271 155l61.999 -0.00292969v-8
c0 -48 -11 -86.167 -33 -114.5s-57.333 -42.5 -106 -42.5c-50 0 -85.167 15 -105.5 45s-30.5 73 -30.5 129v180c0 56 10.5 99 31.5 129s55.833 45 104.5 45c50 0 85.667 -15 107 -45s32 -73 32 -129v-99h-212v-93c0 -14.667 1 -28.667 3 -42s5.66699 -25.166 11 -35.499
s12.833 -18.5 22.5 -24.5s22.167 -9 37.5 -9s27.833 2.83301 37.5 8.5s17.334 13.334 23.001 23.001s9.66699 20.834 12 33.501s3.5 26 3.5 40v9zM220.999 682.997l71 -135h-51l-47 93l-48 -93h-51l71 135h55z" />
    <glyph glyph-name="edieresis" unicode="&#xeb;" horiz-adv-x="386" 
d="M121 294h148v62c0 14.667 -1 28.667 -3 42s-5.66699 25.166 -11 35.499s-12.833 18.5 -22.5 24.5s-22.167 9 -37.5 9s-27.833 -3 -37.5 -9s-17.167 -14.167 -22.5 -24.5s-9 -22.166 -11 -35.499s-3 -27.333 -3 -42v-62zM271 155l61.999 -0.00292969v-8
c0 -48 -11 -86.167 -33 -114.5s-57.333 -42.5 -106 -42.5c-50 0 -85.167 15 -105.5 45s-30.5 73 -30.5 129v180c0 56 10.5 99 31.5 129s55.833 45 104.5 45c50 0 85.667 -15 107 -45s32 -73 32 -129v-99h-212v-93c0 -14.667 1 -28.667 3 -42s5.66699 -25.166 11 -35.499
s12.833 -18.5 22.5 -24.5s22.167 -9 37.5 -9s27.833 2.83301 37.5 8.5s17.334 13.334 23.001 23.001s9.66699 20.834 12 33.501s3.5 26 3.5 40v9zM128.999 654.997c11.333 0 20.666 -3.66699 27.999 -11s11 -16.666 11 -27.999s-3.66699 -20.5 -11 -27.5
s-16.666 -10.5 -27.999 -10.5s-20.833 3.5 -28.5 10.5s-11.5 16.167 -11.5 27.5s3.83301 20.666 11.5 27.999s17.167 11 28.5 11zM258.999 654.997c11.333 0 20.666 -3.66699 27.999 -11s11 -16.666 11 -27.999s-3.66699 -20.5 -11 -27.5s-16.666 -10.5 -27.999 -10.5
s-20.666 3.5 -27.999 10.5s-11 16.167 -11 27.5s3.66699 20.666 11 27.999s16.666 11 27.999 11z" />
    <glyph glyph-name="igrave" unicode="&#xec;" horiz-adv-x="203" 
d="M70 508h58l7 -65v-443h-65v508zM101 683l56 -135h-51l-72 135h67z" />
    <glyph glyph-name="iacute" unicode="&#xed;" horiz-adv-x="203" 
d="M70 508h58l7 -65v-443h-65v508zM175 683l-72 -135h-52l57 135h67z" />
    <glyph glyph-name="icircumflex" unicode="&#xee;" horiz-adv-x="203" 
d="M70 508h58l7 -65v-443h-65v508zM129 683l71 -135h-51l-47 93l-48 -93h-51l71 135h55z" />
    <glyph glyph-name="idieresis" unicode="&#xef;" horiz-adv-x="203" 
d="M70 508h58l7 -65v-443h-65v508zM37 655c11.333 0 20.666 -3.66699 27.999 -11s11 -16.666 11 -27.999s-3.66699 -20.5 -11 -27.5s-16.666 -10.5 -27.999 -10.5s-20.833 3.5 -28.5 10.5s-11.5 16.167 -11.5 27.5s3.83301 20.666 11.5 27.999s17.167 11 28.5 11zM167 655
c11.333 0 20.666 -3.66699 27.999 -11s11 -16.666 11 -27.999s-3.66699 -20.5 -11 -27.5s-16.666 -10.5 -27.999 -10.5s-20.666 3.5 -27.999 10.5s-11 16.167 -11 27.5s3.66699 20.666 11 27.999s16.666 11 27.999 11z" />
    <glyph glyph-name="eth" unicode="&#xf0;" horiz-adv-x="391" 
d="M153 580l54 28.0039c-24 20 -52.333 30 -85 30h-7v37h8c25.333 0 47.833 -3.83301 67.5 -11.5s37.5 -18.834 53.5 -33.501l57 31l17 -24l-54 -29c23.333 -28.667 40.666 -63.5 51.999 -104.5s17 -87.167 17 -138.5v-201c0 -56.667 -10.667 -99.834 -32 -129.501
s-57 -44.5 -107 -44.5c-48.667 0 -83.5 14.833 -104.5 44.5s-31.5 72.5 -31.5 128.5v178c0 55.333 10.833 98.666 32.5 129.999s53.834 47 96.501 47c23.333 0 42 -4.33301 56 -13s25.333 -17.667 34 -27c-4.66699 21.333 -11 41.166 -19 59.499s-18.333 34.833 -31 49.5
l-58 -31zM269 370.004c0 12.667 -1 24.833 -3 36.5s-5.66699 22 -11 31s-12.833 16.167 -22.5 21.5s-22.167 8 -37.5 8c-14 0 -25.667 -3 -35 -9s-17 -14.333 -23 -25s-10.167 -23.167 -12.5 -37.5s-3.5 -29.5 -3.5 -45.5v-198c0 -14.667 1 -28.667 3 -42
s5.66699 -25.166 11 -35.499s12.833 -18.5 22.5 -24.5s22.167 -9 37.5 -9s27.833 3 37.5 9s17.167 14.167 22.5 24.5s9 22.166 11 35.499s3 27.333 3 42v218z" />
    <glyph glyph-name="ntilde" unicode="&#xf1;" horiz-adv-x="409" 
d="M119 458c9.33301 16.667 23.834 30.834 43.501 42.501s42.5 17.5 68.5 17.5c40 0 69 -13 87 -39s27 -65 27 -117v-362h-58l-6 65v302c0 13.333 -0.833008 26.166 -2.5 38.499s-5 23 -10 32s-12 16.167 -21 21.5s-20.5 8 -34.5 8c-19.333 0 -35.833 -4.83301 -49.5 -14.5
s-23.834 -20.5 -30.501 -32.5v-420h-63v508h44zM79.001 569c0 18 1.83496 32.832 5.50195 44.499s8.66699 21 15 28s13.666 12 21.999 15s16.833 4.5 25.5 4.5c12.667 0 23.834 -2.16699 33.501 -6.5s18.5 -9.33301 26.5 -15s15.667 -10.667 23 -15s15.666 -6.5 24.999 -6.5
c7.33301 0 13.5 2.5 18.5 7.5s7.5 16.167 7.5 33.5v5h49v-5c0 -18 -1.83301 -32.833 -5.5 -44.5s-8.5 -21 -14.5 -28s-13 -12 -21 -15s-16.333 -4.5 -25 -4.5c-12.667 0 -23.834 2.33301 -33.501 7s-18.667 9.83398 -27 15.501l-23.5 15.5c-7.33301 4.66699 -15.333 7 -24 7
c-8 0 -14.5 -2.66699 -19.5 -8s-7.5 -17 -7.5 -35v-4h-50v4z" />
    <glyph glyph-name="ograve" unicode="&#xf2;" horiz-adv-x="391" 
d="M333 163c0 -56 -10.667 -98.833 -32 -128.5s-57 -44.5 -107 -44.5c-48.667 0 -83.5 14.833 -104.5 44.5s-31.5 72.5 -31.5 128.5v182c0 56 10.667 98.833 32 128.5s56 44.5 104 44.5c48.667 0 84 -14.833 106 -44.5s33 -72.5 33 -128.5v-182zM269 356
c0 14.667 -1 28.667 -3 42s-5.66699 25.166 -11 35.499s-12.833 18.5 -22.5 24.5s-22.167 9 -37.5 9s-27.833 -3 -37.5 -9s-17.167 -14.167 -22.5 -24.5s-9 -22.166 -11 -35.499s-3 -27.333 -3 -42v-204c0 -14.667 1 -28.667 3 -42s5.66699 -25.166 11 -35.499
s12.833 -18.5 22.5 -24.5s22.167 -9 37.5 -9s27.833 3 37.5 9s17.167 14.167 22.5 24.5s9 22.166 11 35.499s3 27.333 3 42v204zM196 683l56 -135h-51l-72 135h67z" />
    <glyph glyph-name="oacute" unicode="&#xf3;" horiz-adv-x="391" 
d="M333 163c0 -56 -10.667 -98.833 -32 -128.5s-57 -44.5 -107 -44.5c-48.667 0 -83.5 14.833 -104.5 44.5s-31.5 72.5 -31.5 128.5v182c0 56 10.667 98.833 32 128.5s56 44.5 104 44.5c48.667 0 84 -14.833 106 -44.5s33 -72.5 33 -128.5v-182zM269 356
c0 14.667 -1 28.667 -3 42s-5.66699 25.166 -11 35.499s-12.833 18.5 -22.5 24.5s-22.167 9 -37.5 9s-27.833 -3 -37.5 -9s-17.167 -14.167 -22.5 -24.5s-9 -22.166 -11 -35.499s-3 -27.333 -3 -42v-204c0 -14.667 1 -28.667 3 -42s5.66699 -25.166 11 -35.499
s12.833 -18.5 22.5 -24.5s22.167 -9 37.5 -9s27.833 3 37.5 9s17.167 14.167 22.5 24.5s9 22.166 11 35.499s3 27.333 3 42v204zM269 683l-72 -135h-52l57 135h67z" />
    <glyph glyph-name="ocircumflex" unicode="&#xf4;" horiz-adv-x="391" 
d="M333 163c0 -56 -10.667 -98.833 -32 -128.5s-57 -44.5 -107 -44.5c-48.667 0 -83.5 14.833 -104.5 44.5s-31.5 72.5 -31.5 128.5v182c0 56 10.667 98.833 32 128.5s56 44.5 104 44.5c48.667 0 84 -14.833 106 -44.5s33 -72.5 33 -128.5v-182zM269 356
c0 14.667 -1 28.667 -3 42s-5.66699 25.166 -11 35.499s-12.833 18.5 -22.5 24.5s-22.167 9 -37.5 9s-27.833 -3 -37.5 -9s-17.167 -14.167 -22.5 -24.5s-9 -22.166 -11 -35.499s-3 -27.333 -3 -42v-204c0 -14.667 1 -28.667 3 -42s5.66699 -25.166 11 -35.499
s12.833 -18.5 22.5 -24.5s22.167 -9 37.5 -9s27.833 3 37.5 9s17.167 14.167 22.5 24.5s9 22.166 11 35.499s3 27.333 3 42v204zM223 683l71 -135h-51l-47 93l-48 -93h-51l71 135h55z" />
    <glyph glyph-name="otilde" unicode="&#xf5;" horiz-adv-x="391" 
d="M333 163c0 -56 -10.667 -98.833 -32 -128.5s-57 -44.5 -107 -44.5c-48.667 0 -83.5 14.833 -104.5 44.5s-31.5 72.5 -31.5 128.5v182c0 56 10.667 98.833 32 128.5s56 44.5 104 44.5c48.667 0 84 -14.833 106 -44.5s33 -72.5 33 -128.5v-182zM269 356
c0 14.667 -1 28.667 -3 42s-5.66699 25.166 -11 35.499s-12.833 18.5 -22.5 24.5s-22.167 9 -37.5 9s-27.833 -3 -37.5 -9s-17.167 -14.167 -22.5 -24.5s-9 -22.166 -11 -35.499s-3 -27.333 -3 -42v-204c0 -14.667 1 -28.667 3 -42s5.66699 -25.166 11 -35.499
s12.833 -18.5 22.5 -24.5s22.167 -9 37.5 -9s27.833 3 37.5 9s17.167 14.167 22.5 24.5s9 22.166 11 35.499s3 27.333 3 42v204zM69 569c0 18 1.83496 32.832 5.50195 44.499s8.66699 21 15 28s13.666 12 21.999 15s16.833 4.5 25.5 4.5
c12.667 0 23.834 -2.16699 33.501 -6.5s18.5 -9.33301 26.5 -15s15.667 -10.667 23 -15s15.666 -6.5 24.999 -6.5c7.33301 0 13.5 2.5 18.5 7.5s7.5 16.167 7.5 33.5v5h49v-5c0 -18 -1.83301 -32.833 -5.5 -44.5s-8.5 -21 -14.5 -28s-13 -12 -21 -15s-16.333 -4.5 -25 -4.5
c-12.667 0 -23.834 2.33301 -33.501 7s-18.667 9.83398 -27 15.501l-23.5 15.5c-7.33301 4.66699 -15.333 7 -24 7c-8 0 -14.5 -2.66699 -19.5 -8s-7.5 -17 -7.5 -35v-4h-50v4z" />
    <glyph glyph-name="odieresis" unicode="&#xf6;" horiz-adv-x="391" 
d="M333 163c0 -56 -10.667 -98.833 -32 -128.5s-57 -44.5 -107 -44.5c-48.667 0 -83.5 14.833 -104.5 44.5s-31.5 72.5 -31.5 128.5v182c0 56 10.667 98.833 32 128.5s56 44.5 104 44.5c48.667 0 84 -14.833 106 -44.5s33 -72.5 33 -128.5v-182zM269 356
c0 14.667 -1 28.667 -3 42s-5.66699 25.166 -11 35.499s-12.833 18.5 -22.5 24.5s-22.167 9 -37.5 9s-27.833 -3 -37.5 -9s-17.167 -14.167 -22.5 -24.5s-9 -22.166 -11 -35.499s-3 -27.333 -3 -42v-204c0 -14.667 1 -28.667 3 -42s5.66699 -25.166 11 -35.499
s12.833 -18.5 22.5 -24.5s22.167 -9 37.5 -9s27.833 3 37.5 9s17.167 14.167 22.5 24.5s9 22.166 11 35.499s3 27.333 3 42v204zM131 655c11.333 0 20.666 -3.66699 27.999 -11s11 -16.666 11 -27.999s-3.66699 -20.5 -11 -27.5s-16.666 -10.5 -27.999 -10.5
s-20.833 3.5 -28.5 10.5s-11.5 16.167 -11.5 27.5s3.83301 20.666 11.5 27.999s17.167 11 28.5 11zM261 655c11.333 0 20.666 -3.66699 27.999 -11s11 -16.666 11 -27.999s-3.66699 -20.5 -11 -27.5s-16.666 -10.5 -27.999 -10.5s-20.666 3.5 -27.999 10.5
s-11 16.167 -11 27.5s3.66699 20.666 11 27.999s16.666 11 27.999 11z" />
    <glyph glyph-name="divide" unicode="&#xf7;" horiz-adv-x="412" 
d="M170 195c0 12.667 3.83301 22.667 11.5 30s18.167 11 31.5 11c12.667 0 22.834 -3.66699 30.501 -11s11.5 -17.333 11.5 -30s-3.83301 -22.667 -11.5 -30s-17.834 -11 -30.501 -11c-13.333 0 -23.833 3.66699 -31.5 11s-11.5 17.333 -11.5 30zM170 409
c0 12.667 3.83301 22.667 11.5 30s18.167 11 31.5 11c12.667 0 22.834 -3.66699 30.501 -11s11.5 -17.333 11.5 -30s-3.83301 -22.667 -11.5 -30s-17.834 -11 -30.501 -11c-13.333 0 -23.833 3.66699 -31.5 11s-11.5 17.333 -11.5 30zM83 330h246v-56h-246v56z" />
    <glyph glyph-name="oslash" unicode="&#xf8;" horiz-adv-x="391" 
d="M333 163c0 -56 -10.666 -98.834 -31.999 -128.501s-57 -44.5 -107 -44.5c-36.667 0 -66 9 -88 27l-20 -47l-30 12l27 62c-16.667 28.667 -25 68.334 -25 119.001v182c0 56 10.5 98.833 31.5 128.5s55.833 44.5 104.5 44.5c37.333 0 66.666 -9 87.999 -27l20 44l29 -12
l-26 -57c18.667 -28.667 28 -69 28 -121v-182zM269.001 355.999l-0.000976562 11.5c0 3 -0.333008 7.5 -1 13.5l-135 -304c5.33301 -11.333 12.833 -20.166 22.5 -26.499s22.834 -9.5 39.501 -9.5c15.333 0 27.833 3 37.5 9s17.167 14.167 22.5 24.5s9 22.166 11 35.499
s3 27.333 3 42v204zM121 128.999l135 302c-5.33301 11.333 -13 20.166 -23 26.499s-22.667 9.5 -38 9.5s-27.833 -3 -37.5 -9s-17.167 -14.167 -22.5 -24.5s-9 -22.166 -11 -35.499s-3 -27.333 -3 -42v-227z" />
    <glyph glyph-name="ugrave" unicode="&#xf9;" horiz-adv-x="409" 
d="M65 508l64.0039 0.000976562v-369c0 -14 1 -26.833 3 -38.5s5.66699 -22 11 -31s12.666 -16 21.999 -21s21.333 -7.5 36 -7.5c17.333 0 32.5 4.66699 45.5 14s22.833 20.666 29.5 33.999v419h64v-420c0 -12 2.33301 -22.167 7 -30.5s14.667 -12.5 30 -12.5v-55
c-30.667 0 -52.334 5.33301 -65.001 16s-21.334 26.667 -26.001 48c-10.667 -19.333 -25 -34.833 -43 -46.5s-40.333 -17.5 -67 -17.5c-38.667 0 -66.834 12.333 -84.501 37s-26.5 62.667 -26.5 114v367zM205.004 683.001l56 -135h-51l-72 135h67z" />
    <glyph glyph-name="uacute" unicode="&#xfa;" horiz-adv-x="409" 
d="M65 508l64.0039 0.000976562v-369c0 -14 1 -26.833 3 -38.5s5.66699 -22 11 -31s12.666 -16 21.999 -21s21.333 -7.5 36 -7.5c17.333 0 32.5 4.66699 45.5 14s22.833 20.666 29.5 33.999v419h64v-420c0 -12 2.33301 -22.167 7 -30.5s14.667 -12.5 30 -12.5v-55
c-30.667 0 -52.334 5.33301 -65.001 16s-21.334 26.667 -26.001 48c-10.667 -19.333 -25 -34.833 -43 -46.5s-40.333 -17.5 -67 -17.5c-38.667 0 -66.834 12.333 -84.501 37s-26.5 62.667 -26.5 114v367zM278.004 683.001l-72 -135h-52l57 135h67z" />
    <glyph glyph-name="ucircumflex" unicode="&#xfb;" horiz-adv-x="409" 
d="M65 508l64.0039 0.000976562v-369c0 -14 1 -26.833 3 -38.5s5.66699 -22 11 -31s12.666 -16 21.999 -21s21.333 -7.5 36 -7.5c17.333 0 32.5 4.66699 45.5 14s22.833 20.666 29.5 33.999v419h64v-420c0 -12 2.33301 -22.167 7 -30.5s14.667 -12.5 30 -12.5v-55
c-30.667 0 -52.334 5.33301 -65.001 16s-21.334 26.667 -26.001 48c-10.667 -19.333 -25 -34.833 -43 -46.5s-40.333 -17.5 -67 -17.5c-38.667 0 -66.834 12.333 -84.501 37s-26.5 62.667 -26.5 114v367zM232.004 683.001l71 -135h-51l-47 93l-48 -93h-51l71 135h55z" />
    <glyph glyph-name="udieresis" unicode="&#xfc;" horiz-adv-x="409" 
d="M65 508l64.0039 0.000976562v-369c0 -14 1 -26.833 3 -38.5s5.66699 -22 11 -31s12.666 -16 21.999 -21s21.333 -7.5 36 -7.5c17.333 0 32.5 4.66699 45.5 14s22.833 20.666 29.5 33.999v419h64v-420c0 -12 2.33301 -22.167 7 -30.5s14.667 -12.5 30 -12.5v-55
c-30.667 0 -52.334 5.33301 -65.001 16s-21.334 26.667 -26.001 48c-10.667 -19.333 -25 -34.833 -43 -46.5s-40.333 -17.5 -67 -17.5c-38.667 0 -66.834 12.333 -84.501 37s-26.5 62.667 -26.5 114v367zM140.004 655.001c11.333 0 20.666 -3.66699 27.999 -11
s11 -16.666 11 -27.999s-3.66699 -20.5 -11 -27.5s-16.666 -10.5 -27.999 -10.5s-20.833 3.5 -28.5 10.5s-11.5 16.167 -11.5 27.5s3.83301 20.666 11.5 27.999s17.167 11 28.5 11zM270.004 655.001c11.333 0 20.666 -3.66699 27.999 -11s11 -16.666 11 -27.999
s-3.66699 -20.5 -11 -27.5s-16.666 -10.5 -27.999 -10.5s-20.666 3.5 -27.999 10.5s-11 16.167 -11 27.5s3.66699 20.666 11 27.999s16.666 11 27.999 11z" />
    <glyph glyph-name="yacute" unicode="&#xfd;" horiz-adv-x="353" 
d="M37 508h62.998l79 -410h3l82 410h63l-131 -564c-10.667 -46 -29.167 -83 -55.5 -111s-63.833 -42 -112.5 -42v54c24.667 0 47.334 8.33301 68.001 25s35.334 43 44.001 79l10 40zM267.998 683l-72 -135h-52l57 135h67z" />
    <glyph glyph-name="thorn" unicode="&#xfe;" horiz-adv-x="402" 
d="M133 75c4.66699 -8 13 -15.668 25 -23.001s27.333 -11 46 -11c28 0 47.833 10.167 59.5 30.5s17.5 47.5 17.5 81.5v207c0 14 -1 27.5 -3 40.5s-5.5 24.333 -10.5 34s-12.333 17.5 -22 23.5s-21.834 9 -36.501 9c-19.333 0 -35.166 -4.66699 -47.499 -14
s-21.833 -19.666 -28.5 -30.999v-347zM133 -210.001h-63.001v920h57l6 -65v-176c10.667 15.333 24.167 27.333 40.5 36s35.5 13 57.5 13c36.667 0 64.834 -13.167 84.501 -39.5s29.5 -67.833 29.5 -124.5v-190c0 -56 -10.667 -99 -32 -129s-53 -45 -95 -45
c-20.667 0 -38 3 -52 9s-25 13.667 -33 23v-232z" />
    <glyph glyph-name="ydieresis" unicode="&#xff;" horiz-adv-x="353" 
d="M37 508h62.998l79 -410h3l82 410h63l-131 -564c-10.667 -46 -29.167 -83 -55.5 -111s-63.833 -42 -112.5 -42v54c24.667 0 47.334 8.33301 68.001 25s35.334 43 44.001 79l10 40zM111.998 655c11.333 0 20.666 -3.66699 27.999 -11s11 -16.666 11 -27.999
s-3.66699 -20.5 -11 -27.5s-16.666 -10.5 -27.999 -10.5s-20.833 3.5 -28.5 10.5s-11.5 16.167 -11.5 27.5s3.83301 20.666 11.5 27.999s17.167 11 28.5 11zM241.998 655c11.333 0 20.666 -3.66699 27.999 -11s11 -16.666 11 -27.999s-3.66699 -20.5 -11 -27.5
s-16.666 -10.5 -27.999 -10.5s-20.666 3.5 -27.999 10.5s-11 16.167 -11 27.5s3.66699 20.666 11 27.999s16.666 11 27.999 11z" />
    <glyph glyph-name="Amacron" unicode="&#x100;" horiz-adv-x="420" 
d="M28 0l144 665h76l144 -665h-66l-34 164h-166l-35 -164h-63zM133 218h151l-74 354h-3zM109 799h199v-52h-199v52z" />
    <glyph glyph-name="amacron" unicode="&#x101;" horiz-adv-x="397" 
d="M56 367l-0.00195312 13.9951c0 18 2.5 35.333 7.5 52s12.667 31.167 23 43.5s24 22.333 41 30s37.5 11.5 61.5 11.5c48.667 0 83.834 -13.167 105.501 -39.5s32.5 -65.5 32.5 -117.5v-275c0 -15.333 3.16699 -25.666 9.5 -30.999s15.5 -8.66602 27.5 -9.99902v-55
c-31.333 0.666992 -53.166 6.33398 -65.499 17.001s-21.166 26.334 -26.499 47.001c-10.667 -19.333 -24.5 -34.833 -41.5 -46.5s-38.167 -17.5 -63.5 -17.5c-36.667 0 -65 11.167 -85 33.5s-30 55.5 -30 99.5v42c0 18 2.16699 35 6.5 51s11.333 29.833 21 41.5
s22.334 21 38.001 28s34.5 10.5 56.5 10.5c15.333 0 30.666 -1.66699 45.999 -5s29.666 -8.66602 42.999 -15.999v95c0 12 -1 23.833 -3 35.5s-5.66699 22 -11 31s-12.833 16.333 -22.5 22s-22.167 8.5 -37.5 8.5c-26 0 -44.833 -7.83301 -56.5 -23.5
s-17.5 -36.167 -17.5 -61.5v-15h-59zM262.998 236.995c-11.333 4 -21.668 7.33496 -31.001 10.002s-21.333 4 -36 4c-32 0 -53.5 -8.33301 -64.5 -25s-16.5 -41 -16.5 -73v-16c0 -30.667 4.83301 -54.334 14.5 -71.001s29.5 -25 59.5 -25c16.667 0 31.334 4.66699 44.001 14
s22.667 20.666 30 33.999v148zM98.9961 643.997h199v-52h-199v52z" />
    <glyph glyph-name="Abreve" unicode="&#x102;" horiz-adv-x="420" 
d="M28 0l144 665h76l144 -665h-66l-34 164h-166l-35 -164h-63zM133 218h151l-74 354h-3zM309 820v-9c0 -26.667 -8.33301 -48.5 -25 -65.5s-41.667 -25.5 -75 -25.5s-58.333 8.5 -75 25.5s-25 38.833 -25 65.5v9h52v-9c0 -14 3.66699 -25 11 -33s19.666 -12 36.999 -12
c16.667 0 28.834 4 36.501 12s11.5 19 11.5 33v9h52z" />
    <glyph glyph-name="abreve" unicode="&#x103;" horiz-adv-x="397" 
d="M56 367l-0.00195312 13.9951c0 18 2.5 35.333 7.5 52s12.667 31.167 23 43.5s24 22.333 41 30s37.5 11.5 61.5 11.5c48.667 0 83.834 -13.167 105.501 -39.5s32.5 -65.5 32.5 -117.5v-275c0 -15.333 3.16699 -25.666 9.5 -30.999s15.5 -8.66602 27.5 -9.99902v-55
c-31.333 0.666992 -53.166 6.33398 -65.499 17.001s-21.166 26.334 -26.499 47.001c-10.667 -19.333 -24.5 -34.833 -41.5 -46.5s-38.167 -17.5 -63.5 -17.5c-36.667 0 -65 11.167 -85 33.5s-30 55.5 -30 99.5v42c0 18 2.16699 35 6.5 51s11.333 29.833 21 41.5
s22.334 21 38.001 28s34.5 10.5 56.5 10.5c15.333 0 30.666 -1.66699 45.999 -5s29.666 -8.66602 42.999 -15.999v95c0 12 -1 23.833 -3 35.5s-5.66699 22 -11 31s-12.833 16.333 -22.5 22s-22.167 8.5 -37.5 8.5c-26 0 -44.833 -7.83301 -56.5 -23.5
s-17.5 -36.167 -17.5 -61.5v-15h-59zM262.998 236.995c-11.333 4 -21.668 7.33496 -31.001 10.002s-21.333 4 -36 4c-32 0 -53.5 -8.33301 -64.5 -25s-16.5 -41 -16.5 -73v-16c0 -30.667 4.83301 -54.334 14.5 -71.001s29.5 -25 59.5 -25c16.667 0 31.334 4.66699 44.001 14
s22.667 20.666 30 33.999v148zM294.996 664.997v-9c0 -26.667 -8.33301 -48.5 -25 -65.5s-41.667 -25.5 -75 -25.5s-58.333 8.5 -75 25.5s-25 38.833 -25 65.5v9h52v-9c0 -14 3.66699 -25 11 -33s19.666 -12 36.999 -12c16.667 0 28.834 4 36.501 12s11.5 19 11.5 33v9h52z
" />
    <glyph glyph-name="Aogonek" unicode="&#x104;" horiz-adv-x="420" 
d="M28 0l144.002 665.001h76l144 -665h-22c-32.667 -14.667 -57.834 -32.5 -75.501 -53.5s-26.5 -43.5 -26.5 -67.5c0 -13.333 3.16699 -23 9.5 -29s14.833 -9 25.5 -9s19 3 25 9s9 16 9 30v6h43v-6c0 -21.333 -6.33301 -39.833 -19 -55.5s-32.334 -23.5 -59.001 -23.5
s-47 6.66699 -61 20s-21 31.666 -21 54.999c0 30 9.66699 56.333 29 79s44.333 41 75 55l-32 154h-166l-35 -164h-63zM133.002 218.001h151l-74 354h-3z" />
    <glyph glyph-name="aogonek" unicode="&#x105;" horiz-adv-x="397" 
d="M56 367l0.00195312 14.001c0 18 2.5 35.333 7.5 52s12.667 31.167 23 43.5s24 22.333 41 30s37.5 11.5 61.5 11.5c48.667 0 83.834 -13.167 105.501 -39.5s32.5 -65.5 32.5 -117.5v-276c0 -15.333 3.16699 -25.5 9.5 -30.5s15.5 -8.16699 27.5 -9.5v-55
c-12 0 -23 1 -33 3c-28 -14.667 -49.5 -31.667 -64.5 -51s-22.5 -40.333 -22.5 -63c0 -13.333 3.16699 -23 9.5 -29s14.833 -9 25.5 -9s19 3 25 9s9 16 9 30v6h43v-6c0 -21.333 -6.33301 -39.833 -19 -55.5s-32.334 -23.5 -59.001 -23.5s-47 6.66699 -61 20
s-21 31.666 -21 54.999c0 29.333 9.16699 55.166 27.5 77.499s42.5 40.833 72.5 55.5c-6.66699 5.33301 -11.834 11.833 -15.501 19.5s-6.5 16.167 -8.5 25.5c-10.667 -19.333 -24.5 -34.833 -41.5 -46.5s-38.167 -17.5 -63.5 -17.5c-36.667 0 -65 11.167 -85 33.5
s-30 55.5 -30 99.5v42c0 18 2.16699 35 6.5 51s11.333 29.833 21 41.5s22.334 21 38.001 28s34.5 10.5 56.5 10.5c15.333 0 30.666 -1.66699 45.999 -5s29.666 -8.66602 42.999 -15.999v95c0 12 -1 23.833 -3 35.5s-5.66699 22 -11 31s-12.833 16.333 -22.5 22
s-22.167 8.5 -37.5 8.5c-26 0 -44.833 -7.83301 -56.5 -23.5s-17.5 -36.167 -17.5 -61.5v-15h-59zM263.002 237.001c-11.333 4 -21.667 7.33301 -31 10s-21.333 4 -36 4c-32 0 -53.5 -8 -64.5 -24s-16.5 -40.667 -16.5 -74v-16c0 -31.333 4.83301 -55.166 14.5 -71.499
s29.167 -24.5 58.5 -24.5c17.333 0 32.333 4.66699 45 14s22.667 20.666 30 33.999v148z" />
    <glyph glyph-name="Cacute" unicode="&#x106;" horiz-adv-x="394" 
d="M292 496v18c0 11.333 -1.5 23.166 -4.5 35.499s-7.83301 23.833 -14.5 34.5s-15.334 19.334 -26.001 26.001s-24 10 -40 10c-15.333 0 -28.5 -3.5 -39.5 -10.5s-19.833 -16.167 -26.5 -27.5s-11.5 -24 -14.5 -38s-4.5 -28 -4.5 -42v-339c0 -15.333 1.5 -30 4.5 -44
s7.83301 -26.5 14.5 -37.5s15.5 -19.833 26.5 -26.5s24.167 -10 39.5 -10c16 0 29.333 3.33301 40 10s19.334 15 26.001 25s11.5 21.333 14.5 34s4.5 25 4.5 37v18h63v-9c0 -51.333 -12.5 -92.5 -37.5 -123.5s-61.833 -46.5 -110.5 -46.5c-50 0 -87.167 15.5 -111.5 46.5
s-36.5 75.833 -36.5 134.5v323c0 58.667 12.167 103.5 36.5 134.5s61.5 46.5 111.5 46.5s87.167 -15.5 111.5 -46.5s36.5 -72.5 36.5 -124.5v-8h-63zM279 838l-72 -135h-52l57 135h67z" />
    <glyph glyph-name="cacute" unicode="&#x107;" horiz-adv-x="378" 
d="M270 336v25.9932c0 14 -1 27.333 -3 40s-5.83301 23.834 -11.5 33.501s-13.334 17.334 -23.001 23.001s-22.167 8.5 -37.5 8.5s-27.833 -3 -37.5 -9s-17.167 -14.167 -22.5 -24.5s-9 -22.166 -11 -35.499s-3 -27.333 -3 -42v-204c0 -14.667 1 -28.667 3 -42
s5.66699 -25.166 11 -35.499s12.833 -18.5 22.5 -24.5s22.167 -9 37.5 -9s27.833 2.83301 37.5 8.5s17.334 13.334 23.001 23.001s9.5 20.834 11.5 33.501s3 26 3 40v26h60v-19c0 -50.667 -10.5 -90.5 -31.5 -119.5s-55.833 -43.5 -104.5 -43.5s-83.5 15 -104.5 45
s-31.5 73 -31.5 129v180c0 54.667 10.5 97.334 31.5 128.001s55.833 46 104.5 46s83.5 -14.5 104.5 -43.5s31.5 -68.833 31.5 -119.5v-19h-60zM263 682.993l-72 -135h-52l57 135h67z" />
    <glyph glyph-name="Ccircumflex" unicode="&#x108;" horiz-adv-x="394" 
d="M292 496v18c0 11.333 -1.5 23.166 -4.5 35.499s-7.83301 23.833 -14.5 34.5s-15.334 19.334 -26.001 26.001s-24 10 -40 10c-15.333 0 -28.5 -3.5 -39.5 -10.5s-19.833 -16.167 -26.5 -27.5s-11.5 -24 -14.5 -38s-4.5 -28 -4.5 -42v-339c0 -15.333 1.5 -30 4.5 -44
s7.83301 -26.5 14.5 -37.5s15.5 -19.833 26.5 -26.5s24.167 -10 39.5 -10c16 0 29.333 3.33301 40 10s19.334 15 26.001 25s11.5 21.333 14.5 34s4.5 25 4.5 37v18h63v-9c0 -51.333 -12.5 -92.5 -37.5 -123.5s-61.833 -46.5 -110.5 -46.5c-50 0 -87.167 15.5 -111.5 46.5
s-36.5 75.833 -36.5 134.5v323c0 58.667 12.167 103.5 36.5 134.5s61.5 46.5 111.5 46.5s87.167 -15.5 111.5 -46.5s36.5 -72.5 36.5 -124.5v-8h-63zM233 838l71 -135h-51l-47 93l-48 -93h-51l71 135h55z" />
    <glyph glyph-name="ccircumflex" unicode="&#x109;" horiz-adv-x="378" 
d="M270 336v25.9932c0 14 -1 27.333 -3 40s-5.83301 23.834 -11.5 33.501s-13.334 17.334 -23.001 23.001s-22.167 8.5 -37.5 8.5s-27.833 -3 -37.5 -9s-17.167 -14.167 -22.5 -24.5s-9 -22.166 -11 -35.499s-3 -27.333 -3 -42v-204c0 -14.667 1 -28.667 3 -42
s5.66699 -25.166 11 -35.499s12.833 -18.5 22.5 -24.5s22.167 -9 37.5 -9s27.833 2.83301 37.5 8.5s17.334 13.334 23.001 23.001s9.5 20.834 11.5 33.501s3 26 3 40v26h60v-19c0 -50.667 -10.5 -90.5 -31.5 -119.5s-55.833 -43.5 -104.5 -43.5s-83.5 15 -104.5 45
s-31.5 73 -31.5 129v180c0 54.667 10.5 97.334 31.5 128.001s55.833 46 104.5 46s83.5 -14.5 104.5 -43.5s31.5 -68.833 31.5 -119.5v-19h-60zM219 682.993l71 -135h-51l-47 93l-48 -93h-51l71 135h55z" />
    <glyph glyph-name="Cdotaccent" unicode="&#x10a;" horiz-adv-x="394" 
d="M292 496v18c0 11.333 -1.5 23.166 -4.5 35.499s-7.83301 23.833 -14.5 34.5s-15.334 19.334 -26.001 26.001s-24 10 -40 10c-15.333 0 -28.5 -3.5 -39.5 -10.5s-19.833 -16.167 -26.5 -27.5s-11.5 -24 -14.5 -38s-4.5 -28 -4.5 -42v-339c0 -15.333 1.5 -30 4.5 -44
s7.83301 -26.5 14.5 -37.5s15.5 -19.833 26.5 -26.5s24.167 -10 39.5 -10c16 0 29.333 3.33301 40 10s19.334 15 26.001 25s11.5 21.333 14.5 34s4.5 25 4.5 37v18h63v-9c0 -51.333 -12.5 -92.5 -37.5 -123.5s-61.833 -46.5 -110.5 -46.5c-50 0 -87.167 15.5 -111.5 46.5
s-36.5 75.833 -36.5 134.5v323c0 58.667 12.167 103.5 36.5 134.5s61.5 46.5 111.5 46.5s87.167 -15.5 111.5 -46.5s36.5 -72.5 36.5 -124.5v-8h-63zM207 810c12.667 0 22.667 -3.83301 30 -11.5s11 -17.5 11 -29.5c0 -11.333 -3.66699 -21 -11 -29s-17.333 -12 -30 -12
s-22.834 4 -30.501 12s-11.5 17.667 -11.5 29c0 12 3.83301 21.833 11.5 29.5s17.834 11.5 30.501 11.5z" />
    <glyph glyph-name="cdotaccent" unicode="&#x10b;" horiz-adv-x="378" 
d="M270 336v25.9932c0 14 -1 27.333 -3 40s-5.83301 23.834 -11.5 33.501s-13.334 17.334 -23.001 23.001s-22.167 8.5 -37.5 8.5s-27.833 -3 -37.5 -9s-17.167 -14.167 -22.5 -24.5s-9 -22.166 -11 -35.499s-3 -27.333 -3 -42v-204c0 -14.667 1 -28.667 3 -42
s5.66699 -25.166 11 -35.499s12.833 -18.5 22.5 -24.5s22.167 -9 37.5 -9s27.833 2.83301 37.5 8.5s17.334 13.334 23.001 23.001s9.5 20.834 11.5 33.501s3 26 3 40v26h60v-19c0 -50.667 -10.5 -90.5 -31.5 -119.5s-55.833 -43.5 -104.5 -43.5s-83.5 15 -104.5 45
s-31.5 73 -31.5 129v180c0 54.667 10.5 97.334 31.5 128.001s55.833 46 104.5 46s83.5 -14.5 104.5 -43.5s31.5 -68.833 31.5 -119.5v-19h-60zM192 654.993c12.667 0 22.667 -3.83301 30 -11.5s11 -17.5 11 -29.5c0 -11.333 -3.66699 -21 -11 -29s-17.333 -12 -30 -12
s-22.834 4 -30.501 12s-11.5 17.667 -11.5 29c0 12 3.83301 21.833 11.5 29.5s17.834 11.5 30.501 11.5z" />
    <glyph glyph-name="Ccaron" unicode="&#x10c;" horiz-adv-x="394" 
d="M292 496v18c0 11.333 -1.5 23.166 -4.5 35.499s-7.83301 23.833 -14.5 34.5s-15.334 19.334 -26.001 26.001s-24 10 -40 10c-15.333 0 -28.5 -3.5 -39.5 -10.5s-19.833 -16.167 -26.5 -27.5s-11.5 -24 -14.5 -38s-4.5 -28 -4.5 -42v-339c0 -15.333 1.5 -30 4.5 -44
s7.83301 -26.5 14.5 -37.5s15.5 -19.833 26.5 -26.5s24.167 -10 39.5 -10c16 0 29.333 3.33301 40 10s19.334 15 26.001 25s11.5 21.333 14.5 34s4.5 25 4.5 37v18h63v-9c0 -51.333 -12.5 -92.5 -37.5 -123.5s-61.833 -46.5 -110.5 -46.5c-50 0 -87.167 15.5 -111.5 46.5
s-36.5 75.833 -36.5 134.5v323c0 58.667 12.167 103.5 36.5 134.5s61.5 46.5 111.5 46.5s87.167 -15.5 111.5 -46.5s36.5 -72.5 36.5 -124.5v-8h-63zM177 703l-69 135h49l48 -94l47 94h50l-70 -135h-55z" />
    <glyph glyph-name="ccaron" unicode="&#x10d;" horiz-adv-x="378" 
d="M270 336v25.9932c0 14 -1 27.333 -3 40s-5.83301 23.834 -11.5 33.501s-13.334 17.334 -23.001 23.001s-22.167 8.5 -37.5 8.5s-27.833 -3 -37.5 -9s-17.167 -14.167 -22.5 -24.5s-9 -22.166 -11 -35.499s-3 -27.333 -3 -42v-204c0 -14.667 1 -28.667 3 -42
s5.66699 -25.166 11 -35.499s12.833 -18.5 22.5 -24.5s22.167 -9 37.5 -9s27.833 2.83301 37.5 8.5s17.334 13.334 23.001 23.001s9.5 20.834 11.5 33.501s3 26 3 40v26h60v-19c0 -50.667 -10.5 -90.5 -31.5 -119.5s-55.833 -43.5 -104.5 -43.5s-83.5 15 -104.5 45
s-31.5 73 -31.5 129v180c0 54.667 10.5 97.334 31.5 128.001s55.833 46 104.5 46s83.5 -14.5 104.5 -43.5s31.5 -68.833 31.5 -119.5v-19h-60zM162 547.993l-69 135h49l48 -94l47 94h50l-70 -135h-55z" />
    <glyph glyph-name="Dcaron" unicode="&#x10e;" horiz-adv-x="429" 
d="M369 161c0 -52 -12.333 -91.833 -37 -119.5s-62 -41.5 -112 -41.5h-150v665h150c50 0 87.333 -13.833 112 -41.5s37 -67.5 37 -119.5v-343zM306 512c0 12 -1.5 23.668 -4.5 35.001s-8 21.666 -15 30.999s-15.833 16.833 -26.5 22.5s-24 8.5 -40 8.5h-87v-554h87
c16 0 29.333 2.83301 40 8.5s19.5 13.167 26.5 22.5s12 19.833 15 31.5s4.5 23.5 4.5 35.5v359zM186 703.001l-69 135h49l48 -94l47 94h50l-70 -135h-55z" />
    <glyph glyph-name="dcaron" unicode="&#x10f;" horiz-adv-x="457" 
d="M269 431c-5.33301 8.66699 -14.166 16.833 -26.499 24.5s-27.5 11.5 -45.5 11.5c-14.667 0 -26.834 -2.66699 -36.501 -8s-17.5 -12.833 -23.5 -22.5s-10.167 -21 -12.5 -34s-3.5 -26.833 -3.5 -41.5v-212c0 -14.667 1 -28.5 3 -41.5s5.66699 -24.5 11 -34.5
s13 -17.833 23 -23.5s22.667 -8.5 38 -8.5c17.333 0 32 4.83301 44 14.5s21.667 21.167 29 34.5v341zM333 88.999c0 -16 2.83496 -27.333 8.50195 -34s15.167 -10 28.5 -10v-55c-30.667 0 -52.334 5.16699 -65.001 15.5s-21.667 26.166 -27 47.499
c-9.33301 -18 -22.333 -33 -39 -45s-38.667 -18 -66 -18c-76.667 0 -115 53.333 -115 160v202c0 56.667 9.66699 98.5 29 125.5s49.666 40.5 90.999 40.5c21.333 0 39.5 -3.66699 54.5 -11s27.167 -16.666 36.5 -27.999v231h57l7 -65v-556zM423.002 567.999h-34l20 125h56z
" />
    <glyph glyph-name="Dcroat" unicode="&#x110;" horiz-adv-x="435" 
d="M21 359h55v306h151c50 0 87.167 -13.833 111.5 -41.5s36.5 -67.5 36.5 -119.5v-343c0 -52 -12.167 -91.833 -36.5 -119.5s-61.5 -41.5 -111.5 -41.5h-151v305h-55v54zM312 512c0 12 -1.5 23.668 -4.5 35.001s-7.83301 21.666 -14.5 30.999s-15.5 16.833 -26.5 22.5
s-24.167 8.5 -39.5 8.5h-88v-250h84v-54h-84v-250h88c15.333 0 28.5 2.83301 39.5 8.5s19.833 13.167 26.5 22.5s11.5 19.833 14.5 31.5s4.5 23.5 4.5 35.5v359z" />
    <glyph glyph-name="dcroat" unicode="&#x111;" horiz-adv-x="404" 
d="M333 627h37.002v-39h-37v-499c0 -16 2.83301 -27.333 8.5 -34s15.167 -10 28.5 -10v-55c-30.667 0 -52.334 5.16699 -65.001 15.5s-21.667 26.166 -27 47.499c-9.33301 -18 -22.333 -33 -39 -45s-38.667 -18 -66 -18c-76.667 0 -115 53.333 -115 160v202
c0 56.667 9.66699 98.5 29 125.5s49.666 40.5 90.999 40.5c21.333 0 39.5 -3.66699 54.5 -11s27.167 -16.666 36.5 -27.999v109h-136v39h136v83h57l7 -65v-18zM269.002 431c-5.33301 8.66699 -14.166 16.833 -26.499 24.5s-27.5 11.5 -45.5 11.5
c-14.667 0 -26.834 -2.66699 -36.501 -8s-17.5 -12.833 -23.5 -22.5s-10.167 -21 -12.5 -34s-3.5 -26.833 -3.5 -41.5v-212c0 -14.667 1 -28.5 3 -41.5s5.66699 -24.5 11 -34.5s13 -17.833 23 -23.5s22.667 -8.5 38 -8.5c17.333 0 32 4.83301 44 14.5s21.667 21.167 29 34.5
v341z" />
    <glyph glyph-name="Emacron" unicode="&#x112;" horiz-adv-x="358" 
d="M329 609h-196v-224h163v-55h-163v-275h196v-55h-259v665h259v-56zM97 799h199v-52h-199v52z" />
    <glyph glyph-name="emacron" unicode="&#x113;" horiz-adv-x="386" 
d="M121 294h148v62c0 14.667 -1 28.667 -3 42s-5.66699 25.166 -11 35.499s-12.833 18.5 -22.5 24.5s-22.167 9 -37.5 9s-27.833 -3 -37.5 -9s-17.167 -14.167 -22.5 -24.5s-9 -22.166 -11 -35.499s-3 -27.333 -3 -42v-62zM271 155l61.999 -0.00292969v-8
c0 -48 -11 -86.167 -33 -114.5s-57.333 -42.5 -106 -42.5c-50 0 -85.167 15 -105.5 45s-30.5 73 -30.5 129v180c0 56 10.5 99 31.5 129s55.833 45 104.5 45c50 0 85.667 -15 107 -45s32 -73 32 -129v-99h-212v-93c0 -14.667 1 -28.667 3 -42s5.66699 -25.166 11 -35.499
s12.833 -18.5 22.5 -24.5s22.167 -9 37.5 -9s27.833 2.83301 37.5 8.5s17.334 13.334 23.001 23.001s9.66699 20.834 12 33.501s3.5 26 3.5 40v9zM93.999 643.997h199v-52h-199v52z" />
    <glyph glyph-name="Ebreve" unicode="&#x114;" horiz-adv-x="358" 
d="M329 609h-196v-224h163v-55h-163v-275h196v-55h-259v665h259v-56zM307 820v-9c0 -26.667 -8.33301 -48.5 -25 -65.5s-41.667 -25.5 -75 -25.5s-58.333 8.5 -75 25.5s-25 38.833 -25 65.5v9h52v-9c0 -14 3.66699 -25 11 -33s19.666 -12 36.999 -12
c16.667 0 28.834 4 36.501 12s11.5 19 11.5 33v9h52z" />
    <glyph glyph-name="ebreve" unicode="&#x115;" horiz-adv-x="386" 
d="M121 294h148v62c0 14.667 -1 28.667 -3 42s-5.66699 25.166 -11 35.499s-12.833 18.5 -22.5 24.5s-22.167 9 -37.5 9s-27.833 -3 -37.5 -9s-17.167 -14.167 -22.5 -24.5s-9 -22.166 -11 -35.499s-3 -27.333 -3 -42v-62zM271 155l61.999 -0.00292969v-8
c0 -48 -11 -86.167 -33 -114.5s-57.333 -42.5 -106 -42.5c-50 0 -85.167 15 -105.5 45s-30.5 73 -30.5 129v180c0 56 10.5 99 31.5 129s55.833 45 104.5 45c50 0 85.667 -15 107 -45s32 -73 32 -129v-99h-212v-93c0 -14.667 1 -28.667 3 -42s5.66699 -25.166 11 -35.499
s12.833 -18.5 22.5 -24.5s22.167 -9 37.5 -9s27.833 2.83301 37.5 8.5s17.334 13.334 23.001 23.001s9.66699 20.834 12 33.501s3.5 26 3.5 40v9zM292.999 664.997v-9c0 -26.667 -8.33301 -48.5 -25 -65.5s-41.667 -25.5 -75 -25.5s-58.333 8.5 -75 25.5
s-25 38.833 -25 65.5v9h52v-9c0 -14 3.66699 -25 11 -33s19.666 -12 36.999 -12c16.667 0 28.834 4 36.501 12s11.5 19 11.5 33v9h52z" />
    <glyph glyph-name="Edotaccent" unicode="&#x116;" horiz-adv-x="358" 
d="M329 609h-196v-224h163v-55h-163v-275h196v-55h-259v665h259v-56zM202 810c12.667 0 22.667 -3.83301 30 -11.5s11 -17.5 11 -29.5c0 -11.333 -3.66699 -21 -11 -29s-17.333 -12 -30 -12s-22.834 4 -30.501 12s-11.5 17.667 -11.5 29c0 12 3.83301 21.833 11.5 29.5
s17.834 11.5 30.501 11.5z" />
    <glyph glyph-name="edotaccent" unicode="&#x117;" horiz-adv-x="386" 
d="M121 294h148v62c0 14.667 -1 28.667 -3 42s-5.66699 25.166 -11 35.499s-12.833 18.5 -22.5 24.5s-22.167 9 -37.5 9s-27.833 -3 -37.5 -9s-17.167 -14.167 -22.5 -24.5s-9 -22.166 -11 -35.499s-3 -27.333 -3 -42v-62zM271 155l61.999 -0.00292969v-8
c0 -48 -11 -86.167 -33 -114.5s-57.333 -42.5 -106 -42.5c-50 0 -85.167 15 -105.5 45s-30.5 73 -30.5 129v180c0 56 10.5 99 31.5 129s55.833 45 104.5 45c50 0 85.667 -15 107 -45s32 -73 32 -129v-99h-212v-93c0 -14.667 1 -28.667 3 -42s5.66699 -25.166 11 -35.499
s12.833 -18.5 22.5 -24.5s22.167 -9 37.5 -9s27.833 2.83301 37.5 8.5s17.334 13.334 23.001 23.001s9.66699 20.834 12 33.501s3.5 26 3.5 40v9zM193.999 654.997c12.667 0 22.667 -3.83301 30 -11.5s11 -17.5 11 -29.5c0 -11.333 -3.66699 -21 -11 -29
s-17.333 -12 -30 -12s-22.834 4 -30.501 12s-11.5 17.667 -11.5 29c0 12 3.83301 21.833 11.5 29.5s17.834 11.5 30.501 11.5z" />
    <glyph glyph-name="Eogonek" unicode="&#x118;" horiz-adv-x="358" 
d="M329 609l-195.997 0.000976562v-224h163v-55h-163v-275h196v-55h-15c-32.667 -14.667 -57.834 -32.5 -75.501 -53.5s-26.5 -43.5 -26.5 -67.5c0 -13.333 3.16699 -23 9.5 -29s14.833 -9 25.5 -9s19 3 25 9s9 16 9 30v6h43v-6c0 -21.333 -6.33301 -39.833 -19 -55.5
s-32.334 -23.5 -59.001 -23.5s-47 6.66699 -61 20s-21 31.666 -21 54.999c0 26 7.66699 49.5 23 70.5s35.666 38.833 60.999 53.5h-178v665h259v-56z" />
    <glyph glyph-name="eogonek" unicode="&#x119;" horiz-adv-x="386" 
d="M271 155h62.002v-8c0 -65.333 -20.667 -112.333 -62 -141c-28 -19.333 -50.333 -39.333 -67 -60s-25 -43 -25 -67c0 -13.333 3.16699 -23 9.5 -29s14.833 -9 25.5 -9s19.167 3 25.5 9s9.5 16 9.5 30v6h42v-6c0 -21.333 -6.33301 -39.833 -19 -55.5
s-32.334 -23.5 -59.001 -23.5s-46.834 6.66699 -60.501 20s-20.5 31.666 -20.5 54.999s6.16699 44.666 18.5 63.999s28.166 36 47.499 50c-52.667 0 -89.167 15.167 -109.5 45.5s-30.5 73.166 -30.5 128.499v180c0 56 10.5 99 31.5 129s55.833 45 104.5 45
c50 0 85.667 -15 107 -45s32 -73 32 -129v-99h-212v-93c0 -14.667 1 -28.667 3 -42s5.66699 -25.166 11 -35.499s12.833 -18.5 22.5 -24.5s22.167 -9 37.5 -9s27.833 2.83301 37.5 8.5s17.334 13.334 23.001 23.001s9.66699 20.834 12 33.501s3.5 26 3.5 40v9zM121.002 294
h148v62c0 14.667 -1 28.667 -3 42s-5.66699 25.166 -11 35.499s-12.833 18.5 -22.5 24.5s-22.167 9 -37.5 9s-27.833 -3 -37.5 -9s-17.167 -14.167 -22.5 -24.5s-9 -22.166 -11 -35.499s-3 -27.333 -3 -42v-62z" />
    <glyph glyph-name="Ecaron" unicode="&#x11a;" horiz-adv-x="358" 
d="M329 609h-196v-224h163v-55h-163v-275h196v-55h-259v665h259v-56zM172 703l-69 135h49l48 -94l47 94h50l-70 -135h-55z" />
    <glyph glyph-name="ecaron" unicode="&#x11b;" horiz-adv-x="386" 
d="M121 294h148v62c0 14.667 -1 28.667 -3 42s-5.66699 25.166 -11 35.499s-12.833 18.5 -22.5 24.5s-22.167 9 -37.5 9s-27.833 -3 -37.5 -9s-17.167 -14.167 -22.5 -24.5s-9 -22.166 -11 -35.499s-3 -27.333 -3 -42v-62zM271 155l61.999 -0.00292969v-8
c0 -48 -11 -86.167 -33 -114.5s-57.333 -42.5 -106 -42.5c-50 0 -85.167 15 -105.5 45s-30.5 73 -30.5 129v180c0 56 10.5 99 31.5 129s55.833 45 104.5 45c50 0 85.667 -15 107 -45s32 -73 32 -129v-99h-212v-93c0 -14.667 1 -28.667 3 -42s5.66699 -25.166 11 -35.499
s12.833 -18.5 22.5 -24.5s22.167 -9 37.5 -9s27.833 2.83301 37.5 8.5s17.334 13.334 23.001 23.001s9.66699 20.834 12 33.501s3.5 26 3.5 40v9zM165.999 547.997l-69 135h49l48 -94l47 94h50l-70 -135h-55z" />
    <glyph glyph-name="Gcircumflex" unicode="&#x11c;" horiz-adv-x="411" 
d="M219 321v54.9971h139v-205c0 -58.667 -12.5 -103.5 -37.5 -134.5s-62.5 -46.5 -112.5 -46.5s-87.5 15.5 -112.5 46.5s-37.5 75.833 -37.5 134.5v323c0 58.667 12.5 103.5 37.5 134.5s62.167 46.5 111.5 46.5c50.667 0 88.5 -14.833 113.5 -44.5s37.5 -70.5 37.5 -122.5
v-11h-64v17c0 12 -1.5 24.333 -4.5 37s-7.83301 24 -14.5 34s-15.5 18.333 -26.5 25s-24.5 10 -40.5 10s-29.5 -3.16699 -40.5 -9.5s-20 -15 -27 -26s-12 -23.667 -15 -38s-4.5 -29.166 -4.5 -44.499v-338c0 -15.333 1.5 -30.166 4.5 -44.499s8 -27 15 -38
s15.833 -19.833 26.5 -26.5s24 -10 40 -10s29.5 3.16699 40.5 9.5s20 14.833 27 25.5s12 23.334 15 38.001s4.5 30 4.5 46v157h-75zM234 837.997l71 -135h-51l-47 93l-48 -93h-51l71 135h55z" />
    <glyph glyph-name="gcircumflex" unicode="&#x11d;" horiz-adv-x="399" 
d="M269 431c-5.33301 8.66699 -13.667 16.8311 -25 24.498s-26 11.5 -44 11.5c-29.333 0 -49.833 -10.667 -61.5 -32s-17.5 -47.666 -17.5 -78.999v-204c0 -15.333 1 -29.666 3 -42.999s5.66699 -25 11 -35s12.833 -18 22.5 -24s22.5 -9 38.5 -9
c17.333 0 32 4.83301 44 14.5s21.667 21.167 29 34.5v341zM121.999 -78.0029v-8.99707c0 -22 5.66699 -39.5 17 -52.5s29 -19.5 53 -19.5c30.667 0 51.167 10.167 61.5 30.5s15.5 45.166 15.5 74.499v102c-9.33301 -17.333 -22 -31.333 -38 -42s-36.667 -16 -62 -16
c-37.333 0 -65.166 13.667 -83.499 41s-27.5 71.666 -27.5 132.999v180c0 56 10.833 99 32.5 129s53.834 45 96.501 45c27.333 0 48.166 -4.83301 62.499 -14.5s25.5 -20.834 33.5 -33.501l7 38h43v-547c0 -52 -11.5 -93.5 -34.5 -124.5s-58.5 -46.5 -106.5 -46.5
c-42.667 0 -75.334 10.167 -98.001 30.5s-34 50.833 -34 91.5v10h62zM226.999 683l71 -135h-51l-47 93l-48 -93h-51l71 135h55z" />
    <glyph glyph-name="Gbreve" unicode="&#x11e;" horiz-adv-x="411" 
d="M219 321v54.9971h139v-205c0 -58.667 -12.5 -103.5 -37.5 -134.5s-62.5 -46.5 -112.5 -46.5s-87.5 15.5 -112.5 46.5s-37.5 75.833 -37.5 134.5v323c0 58.667 12.5 103.5 37.5 134.5s62.167 46.5 111.5 46.5c50.667 0 88.5 -14.833 113.5 -44.5s37.5 -70.5 37.5 -122.5
v-11h-64v17c0 12 -1.5 24.333 -4.5 37s-7.83301 24 -14.5 34s-15.5 18.333 -26.5 25s-24.5 10 -40.5 10s-29.5 -3.16699 -40.5 -9.5s-20 -15 -27 -26s-12 -23.667 -15 -38s-4.5 -29.166 -4.5 -44.499v-338c0 -15.333 1.5 -30.166 4.5 -44.499s8 -27 15 -38
s15.833 -19.833 26.5 -26.5s24 -10 40 -10s29.5 3.16699 40.5 9.5s20 14.833 27 25.5s12 23.334 15 38.001s4.5 30 4.5 46v157h-75zM306 819.997v-9c0 -26.667 -8.33301 -48.5 -25 -65.5s-41.667 -25.5 -75 -25.5s-58.333 8.5 -75 25.5s-25 38.833 -25 65.5v9h52v-9
c0 -14 3.66699 -25 11 -33s19.666 -12 36.999 -12c16.667 0 28.834 4 36.501 12s11.5 19 11.5 33v9h52z" />
    <glyph glyph-name="gbreve" unicode="&#x11f;" horiz-adv-x="399" 
d="M269 431c-5.33301 8.66699 -13.667 16.8311 -25 24.498s-26 11.5 -44 11.5c-29.333 0 -49.833 -10.667 -61.5 -32s-17.5 -47.666 -17.5 -78.999v-204c0 -15.333 1 -29.666 3 -42.999s5.66699 -25 11 -35s12.833 -18 22.5 -24s22.5 -9 38.5 -9
c17.333 0 32 4.83301 44 14.5s21.667 21.167 29 34.5v341zM121.999 -78.0029v-8.99707c0 -22 5.66699 -39.5 17 -52.5s29 -19.5 53 -19.5c30.667 0 51.167 10.167 61.5 30.5s15.5 45.166 15.5 74.499v102c-9.33301 -17.333 -22 -31.333 -38 -42s-36.667 -16 -62 -16
c-37.333 0 -65.166 13.667 -83.499 41s-27.5 71.666 -27.5 132.999v180c0 56 10.833 99 32.5 129s53.834 45 96.501 45c27.333 0 48.166 -4.83301 62.499 -14.5s25.5 -20.834 33.5 -33.501l7 38h43v-547c0 -52 -11.5 -93.5 -34.5 -124.5s-58.5 -46.5 -106.5 -46.5
c-42.667 0 -75.334 10.167 -98.001 30.5s-34 50.833 -34 91.5v10h62zM298.999 665v-9c0 -26.667 -8.33301 -48.5 -25 -65.5s-41.667 -25.5 -75 -25.5s-58.333 8.5 -75 25.5s-25 38.833 -25 65.5v9h52v-9c0 -14 3.66699 -25 11 -33s19.666 -12 36.999 -12
c16.667 0 28.834 4 36.501 12s11.5 19 11.5 33v9h52z" />
    <glyph glyph-name="Gdotaccent" unicode="&#x120;" horiz-adv-x="411" 
d="M219 321v54.9971h139v-205c0 -58.667 -12.5 -103.5 -37.5 -134.5s-62.5 -46.5 -112.5 -46.5s-87.5 15.5 -112.5 46.5s-37.5 75.833 -37.5 134.5v323c0 58.667 12.5 103.5 37.5 134.5s62.167 46.5 111.5 46.5c50.667 0 88.5 -14.833 113.5 -44.5s37.5 -70.5 37.5 -122.5
v-11h-64v17c0 12 -1.5 24.333 -4.5 37s-7.83301 24 -14.5 34s-15.5 18.333 -26.5 25s-24.5 10 -40.5 10s-29.5 -3.16699 -40.5 -9.5s-20 -15 -27 -26s-12 -23.667 -15 -38s-4.5 -29.166 -4.5 -44.499v-338c0 -15.333 1.5 -30.166 4.5 -44.499s8 -27 15 -38
s15.833 -19.833 26.5 -26.5s24 -10 40 -10s29.5 3.16699 40.5 9.5s20 14.833 27 25.5s12 23.334 15 38.001s4.5 30 4.5 46v157h-75zM206 809.997c12.667 0 22.667 -3.83301 30 -11.5s11 -17.5 11 -29.5c0 -11.333 -3.66699 -21 -11 -29s-17.333 -12 -30 -12
s-22.834 4 -30.501 12s-11.5 17.667 -11.5 29c0 12 3.83301 21.833 11.5 29.5s17.834 11.5 30.501 11.5z" />
    <glyph glyph-name="gdotaccent" unicode="&#x121;" horiz-adv-x="399" 
d="M269 431c-5.33301 8.66699 -13.667 16.8311 -25 24.498s-26 11.5 -44 11.5c-29.333 0 -49.833 -10.667 -61.5 -32s-17.5 -47.666 -17.5 -78.999v-204c0 -15.333 1 -29.666 3 -42.999s5.66699 -25 11 -35s12.833 -18 22.5 -24s22.5 -9 38.5 -9
c17.333 0 32 4.83301 44 14.5s21.667 21.167 29 34.5v341zM121.999 -78.0029v-8.99707c0 -22 5.66699 -39.5 17 -52.5s29 -19.5 53 -19.5c30.667 0 51.167 10.167 61.5 30.5s15.5 45.166 15.5 74.499v102c-9.33301 -17.333 -22 -31.333 -38 -42s-36.667 -16 -62 -16
c-37.333 0 -65.166 13.667 -83.499 41s-27.5 71.666 -27.5 132.999v180c0 56 10.833 99 32.5 129s53.834 45 96.501 45c27.333 0 48.166 -4.83301 62.499 -14.5s25.5 -20.834 33.5 -33.501l7 38h43v-547c0 -52 -11.5 -93.5 -34.5 -124.5s-58.5 -46.5 -106.5 -46.5
c-42.667 0 -75.334 10.167 -98.001 30.5s-34 50.833 -34 91.5v10h62zM199.999 655c12.667 0 22.667 -3.83301 30 -11.5s11 -17.5 11 -29.5c0 -11.333 -3.66699 -21 -11 -29s-17.333 -12 -30 -12s-22.834 4 -30.501 12s-11.5 17.667 -11.5 29c0 12 3.83301 21.833 11.5 29.5
s17.834 11.5 30.501 11.5z" />
    <glyph glyph-name="Gcommaaccent" unicode="&#x122;" horiz-adv-x="411" 
d="M219 321v54.9971h139v-205c0 -58.667 -12.5 -103.5 -37.5 -134.5s-62.5 -46.5 -112.5 -46.5s-87.5 15.5 -112.5 46.5s-37.5 75.833 -37.5 134.5v323c0 58.667 12.5 103.5 37.5 134.5s62.167 46.5 111.5 46.5c50.667 0 88.5 -14.833 113.5 -44.5s37.5 -70.5 37.5 -122.5
v-11h-64v17c0 12 -1.5 24.333 -4.5 37s-7.83301 24 -14.5 34s-15.5 18.333 -26.5 25s-24.5 10 -40.5 10s-29.5 -3.16699 -40.5 -9.5s-20 -15 -27 -26s-12 -23.667 -15 -38s-4.5 -29.166 -4.5 -44.499v-338c0 -15.333 1.5 -30.166 4.5 -44.499s8 -27 15 -38
s15.833 -19.833 26.5 -26.5s24 -10 40 -10s29.5 3.16699 40.5 9.5s20 14.833 27 25.5s12 23.334 15 38.001s4.5 30 4.5 46v157h-75zM198 -161.003h-44l26 121h63z" />
    <glyph glyph-name="gcommaaccent" unicode="&#x123;" horiz-adv-x="399" 
d="M269 431c-5.33301 8.66699 -13.667 16.8311 -25 24.498s-26 11.5 -44 11.5c-29.333 0 -49.833 -10.667 -61.5 -32s-17.5 -47.666 -17.5 -78.999v-204c0 -15.333 1 -29.666 3 -42.999s5.66699 -25 11 -35s12.833 -18 22.5 -24s22.5 -9 38.5 -9
c17.333 0 32 4.83301 44 14.5s21.667 21.167 29 34.5v341zM121.999 -78.0029v-8.99707c0 -22 5.66699 -39.5 17 -52.5s29 -19.5 53 -19.5c30.667 0 51.167 10.167 61.5 30.5s15.5 45.166 15.5 74.499v102c-9.33301 -17.333 -22 -31.333 -38 -42s-36.667 -16 -62 -16
c-37.333 0 -65.166 13.667 -83.499 41s-27.5 71.666 -27.5 132.999v180c0 56 10.833 99 32.5 129s53.834 45 96.501 45c27.333 0 48.166 -4.83301 62.499 -14.5s25.5 -20.834 33.5 -33.501l7 38h43v-547c0 -52 -11.5 -93.5 -34.5 -124.5s-58.5 -46.5 -106.5 -46.5
c-42.667 0 -75.334 10.167 -98.001 30.5s-34 50.833 -34 91.5v10h62zM215.999 677h42l-20 -121h-63z" />
    <glyph glyph-name="Hcircumflex" unicode="&#x124;" horiz-adv-x="450" 
d="M317 0v328h-184v-328h-63v665h63v-282h184v282h64v-665h-64zM252 838l71 -135h-51l-47 93l-48 -93h-51l71 135h55z" />
    <glyph glyph-name="hcircumflex" unicode="&#x125;" horiz-adv-x="409" 
d="M133 468c10 13.333 22.999 25 38.999 35s37.333 15 64 15c40 0 68.167 -13 84.5 -39s24.5 -65 24.5 -117v-362h-58l-6 64v304c0 13.333 -1 26 -3 38s-5.5 22.5 -10.5 31.5s-12 16.167 -21 21.5s-20.5 8 -34.5 8c-19.333 0 -35.666 -4.83301 -48.999 -14.5
s-23.333 -20.5 -30 -32.5v-420h-63v710h57l6 -65v-177zM194.999 875l71 -135h-51l-47 93l-48 -93h-51l71 135h55z" />
    <glyph glyph-name="Hbar" unicode="&#x126;" horiz-adv-x="450" 
d="M317 0v328h-184v-328h-63v665h63v-136h184v136h64v-665h-64zM317 383v95h-184v-95h184z" />
    <glyph glyph-name="hbar" unicode="&#x127;" horiz-adv-x="409" 
d="M133 627h148.999v-39h-149v-120c10 13.333 23 25 39 35s37.333 15 64 15c40 0 68.167 -13 84.5 -39s24.5 -65 24.5 -117v-362h-58l-6 64v304c0 13.333 -1 26 -3 38s-5.5 22.5 -10.5 31.5s-12 16.167 -21 21.5s-20.5 8 -34.5 8c-19.333 0 -35.666 -4.83301 -48.999 -14.5
s-23.333 -20.5 -30 -32.5v-420h-63v588h-30v39h30v83h57l6 -65v-18z" />
    <glyph glyph-name="Itilde" unicode="&#x128;" horiz-adv-x="203" 
d="M70 0v665h63v-665h-63zM-25 724c0 18 1.83496 32.832 5.50195 44.499s8.66699 21 15 28s13.666 12 21.999 15s16.833 4.5 25.5 4.5c12.667 0 23.834 -2.16699 33.501 -6.5s18.5 -9.33301 26.5 -15s15.667 -10.667 23 -15s15.666 -6.5 24.999 -6.5
c7.33301 0 13.5 2.5 18.5 7.5s7.5 16.167 7.5 33.5v5h49v-5c0 -18 -1.83301 -32.833 -5.5 -44.5s-8.5 -21 -14.5 -28s-13 -12 -21 -15s-16.333 -4.5 -25 -4.5c-12.667 0 -23.834 2.33301 -33.501 7s-18.667 9.83398 -27 15.501l-23.5 15.5c-7.33301 4.66699 -15.333 7 -24 7
c-8 0 -14.5 -2.66699 -19.5 -8s-7.5 -17 -7.5 -35v-4h-50v4z" />
    <glyph glyph-name="itilde" unicode="&#x129;" horiz-adv-x="203" 
d="M70 508h58l7 -65v-443h-65v508zM-25 569c0 18 1.83496 32.832 5.50195 44.499s8.66699 21 15 28s13.666 12 21.999 15s16.833 4.5 25.5 4.5c12.667 0 23.834 -2.16699 33.501 -6.5s18.5 -9.33301 26.5 -15s15.667 -10.667 23 -15s15.666 -6.5 24.999 -6.5
c7.33301 0 13.5 2.5 18.5 7.5s7.5 16.167 7.5 33.5v5h49v-5c0 -18 -1.83301 -32.833 -5.5 -44.5s-8.5 -21 -14.5 -28s-13 -12 -21 -15s-16.333 -4.5 -25 -4.5c-12.667 0 -23.834 2.33301 -33.501 7s-18.667 9.83398 -27 15.501l-23.5 15.5c-7.33301 4.66699 -15.333 7 -24 7
c-8 0 -14.5 -2.66699 -19.5 -8s-7.5 -17 -7.5 -35v-4h-50v4z" />
    <glyph glyph-name="Imacron" unicode="&#x12a;" horiz-adv-x="203" 
d="M70 0v665h63v-665h-63zM1 799h199v-52h-199v52z" />
    <glyph glyph-name="imacron" unicode="&#x12b;" horiz-adv-x="203" 
d="M70 508h58l7 -65v-443h-65v508zM1 644h199v-52h-199v52z" />
    <glyph glyph-name="Ibreve" unicode="&#x12c;" horiz-adv-x="203" 
d="M70 0v665h63v-665h-63zM201 820v-9c0 -26.667 -8.33301 -48.5 -25 -65.5s-41.667 -25.5 -75 -25.5s-58.333 8.5 -75 25.5s-25 38.833 -25 65.5v9h52v-9c0 -14 3.66699 -25 11 -33s19.666 -12 36.999 -12c16.667 0 28.834 4 36.501 12s11.5 19 11.5 33v9h52z" />
    <glyph glyph-name="ibreve" unicode="&#x12d;" horiz-adv-x="203" 
d="M70 508h58l7 -65v-443h-65v508zM201 665v-9c0 -26.667 -8.33301 -48.5 -25 -65.5s-41.667 -25.5 -75 -25.5s-58.333 8.5 -75 25.5s-25 38.833 -25 65.5v9h52v-9c0 -14 3.66699 -25 11 -33s19.666 -12 36.999 -12c16.667 0 28.834 4 36.501 12s11.5 19 11.5 33v9h52z" />
    <glyph glyph-name="Iogonek" unicode="&#x12e;" horiz-adv-x="203" 
d="M126 0c-33.333 -16 -56.668 -35.498 -70.001 -58.498s-20 -44.167 -20 -63.5c0 -24.667 9.33301 -37 28 -37c9.33301 0 16.5 3 21.5 9s7.5 16 7.5 30v6h43v-6c0 -21.333 -5.66699 -39.833 -17 -55.5s-29.666 -23.5 -54.999 -23.5s-44.333 6.5 -57 19.5s-19 30.5 -19 52.5
c0 27.333 7 52.166 21 74.499s34.333 41.166 61 56.499v661h63v-665h-7z" />
    <glyph glyph-name="iogonek" unicode="&#x12f;" horiz-adv-x="201" 
d="M125 0c-33.333 -16 -56.667 -35.498 -70 -58.498s-20 -44.167 -20 -63.5c0 -24.667 9.66699 -37 29 -37c9.33301 0 16.5 3 21.5 9s7.5 16 7.5 30v6h42v-6c0 -21.333 -5.66699 -39.833 -17 -55.5s-29.666 -23.5 -54.999 -23.5c-24.667 0 -43.334 6.5 -56.001 19.5
s-19 30.5 -19 52.5c0 27.333 7 52.166 21 74.499s34.333 41.166 61 56.499v504h55l8 -65v-443h-8zM100.999 655.002c12 0 21.833 -3.66699 29.5 -11s11.5 -17 11.5 -29s-3.83301 -21.833 -11.5 -29.5s-17.5 -11.5 -29.5 -11.5s-21.833 3.83301 -29.5 11.5
s-11.5 17.5 -11.5 29.5s3.83301 21.667 11.5 29s17.5 11 29.5 11z" />
    <glyph glyph-name="Idotaccent" unicode="&#x130;" horiz-adv-x="203" 
d="M70 0v665h63v-665h-63zM102 810c12.667 0 22.667 -3.83301 30 -11.5s11 -17.5 11 -29.5c0 -11.333 -3.66699 -21 -11 -29s-17.333 -12 -30 -12s-22.834 4 -30.501 12s-11.5 17.667 -11.5 29c0 12 3.83301 21.833 11.5 29.5s17.834 11.5 30.501 11.5z" />
    <glyph glyph-name="dotlessi" unicode="&#x131;" horiz-adv-x="202" 
d="M70 508h58l7 -65v-443h-65v508z" />
    <glyph glyph-name="IJ" unicode="&#x132;" horiz-adv-x="459" 
d="M70 0v665h63v-665h-63zM232 44c18 0.666992 33.166 4.16895 45.499 10.502s22.333 14.5 30 24.5s13 21.167 16 33.5s4.5 25.166 4.5 38.499v514h63v-506c0 -52.667 -13.167 -93.334 -39.5 -122.001s-66.166 -44.667 -119.499 -48v55z" />
    <glyph glyph-name="ij" unicode="&#x133;" horiz-adv-x="400" 
d="M70 508h57l6 -65v-443h-63v508zM101 655c12 0 21.833 -3.66699 29.5 -11s11.5 -17 11.5 -29s-3.83301 -21.833 -11.5 -29.5s-17.5 -11.5 -29.5 -11.5s-21.833 3.83301 -29.5 11.5s-11.5 17.5 -11.5 29.5s3.83301 21.667 11.5 29s17.5 11 29.5 11zM325 508l6.00098 -65
v-483c0 -60.667 -10.5 -104.167 -31.5 -130.5s-56.5 -39.5 -106.5 -39.5v55c16.667 0 30 2.83301 40 8.5s17.667 13.167 23 22.5s8.66602 20.5 9.99902 33.5s2 26.833 2 41.5v557h57zM299.001 655c12 0 21.833 -3.66699 29.5 -11s11.5 -17 11.5 -29
s-3.83301 -21.833 -11.5 -29.5s-17.5 -11.5 -29.5 -11.5s-21.833 3.83301 -29.5 11.5s-11.5 17.5 -11.5 29.5s3.83301 21.667 11.5 29s17.5 11 29.5 11z" />
    <glyph glyph-name="Jcircumflex" unicode="&#x134;" horiz-adv-x="256" 
d="M29 44c18 0.666992 33.166 4.16895 45.499 10.502s22.333 14.5 30 24.5s13 21.167 16 33.5s4.5 25.166 4.5 38.499v514h63v-506c0 -52.667 -13.167 -93.334 -39.5 -122.001s-66.166 -44.667 -119.499 -48v55zM183.999 838.002l71 -135h-51l-47 93l-48 -93h-51l71 135h55z
" />
    <glyph glyph-name="jcircumflex" unicode="&#x135;" horiz-adv-x="204" 
d="M127 508l6.00098 -65v-483c0 -60.667 -10.5 -104.167 -31.5 -130.5s-56.5 -39.5 -106.5 -39.5v55c16.667 0 30 2.83301 40 8.5s17.667 13.167 23 22.5s8.66602 20.5 9.99902 33.5s2 26.833 2 41.5v557h57zM130.001 683l71 -135h-51l-47 93l-48 -93h-51l71 135h55z" />
    <glyph glyph-name="Kcommaaccent" unicode="&#x136;" horiz-adv-x="419" 
d="M237 389l166 -389h-67l-140 330l-63 -99v-231h-63v665h63v-343l198 343h66zM201 -161h-44l26 121h63z" />
    <glyph glyph-name="kcommaaccent" unicode="&#x137;" horiz-adv-x="387" 
d="M238 325l130 -325h-66l-107 272l-62 -81v-191h-63v710h57l6 -64v-382l167 244h65zM203 -161h-44l26 121h63z" />
    <glyph glyph-name="Lacute" unicode="&#x139;" horiz-adv-x="360" 
d="M133 665v-610h203v-55h-266v665h63zM234 838l-72 -135h-52l57 135h67z" />
    <glyph glyph-name="lacute" unicode="&#x13a;" horiz-adv-x="202" 
d="M133 645v-645h-58l-5 65v645h57zM189 875l-72 -135h-52l57 135h67z" />
    <glyph glyph-name="Lcommaaccent" unicode="&#x13b;" horiz-adv-x="360" 
d="M133 665v-610h203v-55h-266v665h63zM189 -161h-44l26 121h63z" />
    <glyph glyph-name="lcommaaccent" unicode="&#x13c;" horiz-adv-x="202" 
d="M133 645v-645h-58l-5 65v645h57zM92 -161h-44l26 121h63z" />
    <glyph glyph-name="Lcaron" unicode="&#x13d;" horiz-adv-x="360" 
d="M133 665v-610h203v-55h-266v665h63zM270 548h-34l20 125h56z" />
    <glyph glyph-name="lcaron" unicode="&#x13e;" horiz-adv-x="255" 
d="M133 645v-645h-58l-5 65v645h57zM221 570h-34l20 125h56z" />
    <glyph glyph-name="Ldot" unicode="&#x13f;" horiz-adv-x="360" 
d="M133 665v-610h203v-55h-266v665h63zM276 383c12 0 21.833 -3.83301 29.5 -11.5s11.5 -17.167 11.5 -28.5c0 -12 -3.83301 -21.833 -11.5 -29.5s-17.5 -11.5 -29.5 -11.5s-22 3.83301 -30 11.5s-12 17.5 -12 29.5c0 11.333 4 20.833 12 28.5s18 11.5 30 11.5z" />
    <glyph glyph-name="ldot" unicode="&#x140;" horiz-adv-x="276" 
d="M133 645v-645h-58l-5 65v645h57zM230 383c12 0 21.833 -3.83301 29.5 -11.5s11.5 -17.167 11.5 -28.5c0 -12 -3.83301 -21.833 -11.5 -29.5s-17.5 -11.5 -29.5 -11.5s-22 3.83301 -30 11.5s-12 17.5 -12 29.5c0 11.333 4 20.833 12 28.5s18 11.5 30 11.5z" />
    <glyph glyph-name="Lslash" unicode="&#x141;" horiz-adv-x="355" 
d="M133 665v-320l115 53v-62l-115 -53v-228h203v-55h-266v255l-53 -24v61l53 24v349h63z" />
    <glyph glyph-name="lslash" unicode="&#x142;" horiz-adv-x="202" 
d="M133 645v-233l54 28v-60l-54 -28v-352h-58l-5 65v255l-54 -28v60l54 28v330h57z" />
    <glyph glyph-name="Nacute" unicode="&#x143;" horiz-adv-x="460" 
d="M390 0h-78l-185 550h-3v-550h-54v665h77l185 -560h4v560h54v-665zM302 838l-72 -135h-52l57 135h67z" />
    <glyph glyph-name="nacute" unicode="&#x144;" horiz-adv-x="409" 
d="M119 458c9.33301 16.667 23.834 30.834 43.501 42.501s42.5 17.5 68.5 17.5c40 0 69 -13 87 -39s27 -65 27 -117v-362h-58l-6 65v302c0 13.333 -0.833008 26.166 -2.5 38.499s-5 23 -10 32s-12 16.167 -21 21.5s-20.5 8 -34.5 8c-19.333 0 -35.833 -4.83301 -49.5 -14.5
s-23.834 -20.5 -30.501 -32.5v-420h-63v508h44zM278.001 683l-72 -135h-52l57 135h67z" />
    <glyph glyph-name="Ncommaaccent" unicode="&#x145;" horiz-adv-x="460" 
d="M390 0h-78l-185 550h-3v-550h-54v665h77l185 -560h4v560h54v-665zM220 -161h-44l26 121h63z" />
    <glyph glyph-name="ncommaaccent" unicode="&#x146;" horiz-adv-x="409" 
d="M119 458c9.33301 16.667 23.834 30.834 43.501 42.501s42.5 17.5 68.5 17.5c40 0 69 -13 87 -39s27 -65 27 -117v-362h-58l-6 65v302c0 13.333 -0.833008 26.166 -2.5 38.499s-5 23 -10 32s-12 16.167 -21 21.5s-20.5 8 -34.5 8c-19.333 0 -35.833 -4.83301 -49.5 -14.5
s-23.834 -20.5 -30.501 -32.5v-420h-63v508h44zM197.001 -161h-44l26 121h63z" />
    <glyph glyph-name="Ncaron" unicode="&#x147;" horiz-adv-x="460" 
d="M390 0h-78l-185 550h-3v-550h-54v665h77l185 -560h4v560h54v-665zM201 703l-69 135h49l48 -94l47 94h50l-70 -135h-55z" />
    <glyph glyph-name="ncaron" unicode="&#x148;" horiz-adv-x="409" 
d="M119 458c9.33301 16.667 23.834 30.834 43.501 42.501s42.5 17.5 68.5 17.5c40 0 69 -13 87 -39s27 -65 27 -117v-362h-58l-6 65v302c0 13.333 -0.833008 26.166 -2.5 38.499s-5 23 -10 32s-12 16.167 -21 21.5s-20.5 8 -34.5 8c-19.333 0 -35.833 -4.83301 -49.5 -14.5
s-23.834 -20.5 -30.501 -32.5v-420h-63v508h44zM177.001 548l-69 135h49l48 -94l47 94h50l-70 -135h-55z" />
    <glyph glyph-name="Omacron" unicode="&#x14c;" horiz-adv-x="412" 
d="M354 171c0 -58.667 -12.333 -103.5 -37 -134.5s-62 -46.5 -112 -46.5s-87 15.5 -111 46.5s-36 75.833 -36 134.5v323c0 58.667 12.167 103.5 36.5 134.5s61.5 46.5 111.5 46.5s87.167 -15.5 111.5 -46.5s36.5 -75.833 36.5 -134.5v-323zM290 502
c0 14 -1.33301 28.166 -4 42.499s-7.33398 27 -14.001 38s-15.5 20 -26.5 27s-24.5 10.5 -40.5 10.5s-29.333 -3.5 -40 -10.5s-19.167 -16 -25.5 -27s-11 -23.667 -14 -38s-4.5 -28.5 -4.5 -42.5v-338c0 -14 1.5 -28.167 4.5 -42.5s7.66699 -27.166 14 -38.499
s14.833 -20.5 25.5 -27.5s24 -10.5 40 -10.5s29.5 3.5 40.5 10.5s19.833 16.167 26.5 27.5s11.334 24 14.001 38s4 28.333 4 43v338zM107 798.999h199v-52h-199v52z" />
    <glyph glyph-name="omacron" unicode="&#x14d;" horiz-adv-x="391" 
d="M333 163c0 -56 -10.667 -98.833 -32 -128.5s-57 -44.5 -107 -44.5c-48.667 0 -83.5 14.833 -104.5 44.5s-31.5 72.5 -31.5 128.5v182c0 56 10.667 98.833 32 128.5s56 44.5 104 44.5c48.667 0 84 -14.833 106 -44.5s33 -72.5 33 -128.5v-182zM269 356
c0 14.667 -1 28.667 -3 42s-5.66699 25.166 -11 35.499s-12.833 18.5 -22.5 24.5s-22.167 9 -37.5 9s-27.833 -3 -37.5 -9s-17.167 -14.167 -22.5 -24.5s-9 -22.166 -11 -35.499s-3 -27.333 -3 -42v-204c0 -14.667 1 -28.667 3 -42s5.66699 -25.166 11 -35.499
s12.833 -18.5 22.5 -24.5s22.167 -9 37.5 -9s27.833 3 37.5 9s17.167 14.167 22.5 24.5s9 22.166 11 35.499s3 27.333 3 42v204zM96 644h199v-52h-199v52z" />
    <glyph glyph-name="Obreve" unicode="&#x14e;" horiz-adv-x="412" 
d="M354 171c0 -58.667 -12.333 -103.5 -37 -134.5s-62 -46.5 -112 -46.5s-87 15.5 -111 46.5s-36 75.833 -36 134.5v323c0 58.667 12.167 103.5 36.5 134.5s61.5 46.5 111.5 46.5s87.167 -15.5 111.5 -46.5s36.5 -75.833 36.5 -134.5v-323zM290 502
c0 14 -1.33301 28.166 -4 42.499s-7.33398 27 -14.001 38s-15.5 20 -26.5 27s-24.5 10.5 -40.5 10.5s-29.333 -3.5 -40 -10.5s-19.167 -16 -25.5 -27s-11 -23.667 -14 -38s-4.5 -28.5 -4.5 -42.5v-338c0 -14 1.5 -28.167 4.5 -42.5s7.66699 -27.166 14 -38.499
s14.833 -20.5 25.5 -27.5s24 -10.5 40 -10.5s29.5 3.5 40.5 10.5s19.833 16.167 26.5 27.5s11.334 24 14.001 38s4 28.333 4 43v338zM306 819.999v-9c0 -26.667 -8.33301 -48.5 -25 -65.5s-41.667 -25.5 -75 -25.5s-58.333 8.5 -75 25.5s-25 38.833 -25 65.5v9h52v-9
c0 -14 3.66699 -25 11 -33s19.666 -12 36.999 -12c16.667 0 28.834 4 36.501 12s11.5 19 11.5 33v9h52z" />
    <glyph glyph-name="obreve" unicode="&#x14f;" horiz-adv-x="391" 
d="M333 163c0 -56 -10.667 -98.833 -32 -128.5s-57 -44.5 -107 -44.5c-48.667 0 -83.5 14.833 -104.5 44.5s-31.5 72.5 -31.5 128.5v182c0 56 10.667 98.833 32 128.5s56 44.5 104 44.5c48.667 0 84 -14.833 106 -44.5s33 -72.5 33 -128.5v-182zM269 356
c0 14.667 -1 28.667 -3 42s-5.66699 25.166 -11 35.499s-12.833 18.5 -22.5 24.5s-22.167 9 -37.5 9s-27.833 -3 -37.5 -9s-17.167 -14.167 -22.5 -24.5s-9 -22.166 -11 -35.499s-3 -27.333 -3 -42v-204c0 -14.667 1 -28.667 3 -42s5.66699 -25.166 11 -35.499
s12.833 -18.5 22.5 -24.5s22.167 -9 37.5 -9s27.833 3 37.5 9s17.167 14.167 22.5 24.5s9 22.166 11 35.499s3 27.333 3 42v204zM295 665v-9c0 -26.667 -8.33301 -48.5 -25 -65.5s-41.667 -25.5 -75 -25.5s-58.333 8.5 -75 25.5s-25 38.833 -25 65.5v9h52v-9
c0 -14 3.66699 -25 11 -33s19.666 -12 36.999 -12c16.667 0 28.834 4 36.501 12s11.5 19 11.5 33v9h52z" />
    <glyph glyph-name="Ohungarumlaut" unicode="&#x150;" horiz-adv-x="412" 
d="M354 171c0 -58.667 -12.333 -103.5 -37 -134.5s-62 -46.5 -112 -46.5s-87 15.5 -111 46.5s-36 75.833 -36 134.5v323c0 58.667 12.167 103.5 36.5 134.5s61.5 46.5 111.5 46.5s87.167 -15.5 111.5 -46.5s36.5 -75.833 36.5 -134.5v-323zM290 502
c0 14 -1.33301 28.166 -4 42.499s-7.33398 27 -14.001 38s-15.5 20 -26.5 27s-24.5 10.5 -40.5 10.5s-29.333 -3.5 -40 -10.5s-19.167 -16 -25.5 -27s-11 -23.667 -14 -38s-4.5 -28.5 -4.5 -42.5v-338c0 -14 1.5 -28.167 4.5 -42.5s7.66699 -27.166 14 -38.499
s14.833 -20.5 25.5 -27.5s24 -10.5 40 -10.5s29.5 3.5 40.5 10.5s19.833 16.167 26.5 27.5s11.334 24 14.001 38s4 28.333 4 43v338zM360 837.999l-77 -135h-50l63 135h64zM235 837.999l-73 -135h-50l59 135h64z" />
    <glyph glyph-name="ohungarumlaut" unicode="&#x151;" horiz-adv-x="391" 
d="M333 163c0 -56 -10.667 -98.833 -32 -128.5s-57 -44.5 -107 -44.5c-48.667 0 -83.5 14.833 -104.5 44.5s-31.5 72.5 -31.5 128.5v182c0 56 10.667 98.833 32 128.5s56 44.5 104 44.5c48.667 0 84 -14.833 106 -44.5s33 -72.5 33 -128.5v-182zM269 356
c0 14.667 -1 28.667 -3 42s-5.66699 25.166 -11 35.499s-12.833 18.5 -22.5 24.5s-22.167 9 -37.5 9s-27.833 -3 -37.5 -9s-17.167 -14.167 -22.5 -24.5s-9 -22.166 -11 -35.499s-3 -27.333 -3 -42v-204c0 -14.667 1 -28.667 3 -42s5.66699 -25.166 11 -35.499
s12.833 -18.5 22.5 -24.5s22.167 -9 37.5 -9s27.833 3 37.5 9s17.167 14.167 22.5 24.5s9 22.166 11 35.499s3 27.333 3 42v204zM350 683l-77 -135h-50l63 135h64zM225 683l-73 -135h-50l59 135h64z" />
    <glyph glyph-name="OE" unicode="&#x152;" horiz-adv-x="580" 
d="M551 609l-196 0.000976562v-224h163v-55h-163v-275h196v-55h-248v48c-10.667 -19.333 -24.5 -33.833 -41.5 -43.5s-38.5 -14.5 -64.5 -14.5c-44 0 -78.167 15.5 -102.5 46.5s-36.5 75.833 -36.5 134.5v327c0 57.333 12.167 101.166 36.5 131.499s58.5 45.5 102.5 45.5
c26 0 47.833 -5.16699 65.5 -15.5s31.167 -24.5 40.5 -42.5v48h248v-56zM207 45.001c14.667 0 27.501 3.33203 38.501 9.99902s19.833 15.167 26.5 25.5s11.667 22.333 15 36s5 27.5 5 41.5v348c0 14 -1.5 27.667 -4.5 41s-7.83301 25.5 -14.5 36.5
s-15.334 19.833 -26.001 26.5s-24 10 -40 10s-29.333 -3.33301 -40 -10s-19.334 -15.5 -26.001 -26.5s-11.334 -23.167 -14.001 -36.5s-4 -27 -4 -41v-342c0 -15.333 1.33301 -30.166 4 -44.499s7.33398 -27 14.001 -38s15.334 -19.833 26.001 -26.5s24 -10 40 -10z" />
    <glyph glyph-name="oe" unicode="&#x153;" horiz-adv-x="597" 
d="M301 449c21.333 46 58.335 68.998 111.002 68.998c46.667 0 80.334 -15 101.001 -45s31 -73 31 -129v-99h-211v-93c0 -14.667 1 -28.667 3 -42s5.66699 -25.166 11 -35.499s12.666 -18.5 21.999 -24.5s21.666 -9 36.999 -9s27.833 2.83301 37.5 8.5
s17.334 13.334 23.001 23.001s9.5 20.834 11.5 33.501s3 26 3 40v9h63v-8c0 -48 -10 -86.167 -30 -114.5s-54 -42.5 -102 -42.5c-26.667 0 -49.334 6.16699 -68.001 18.5s-33.334 29.5 -44.001 51.5c-11.333 -21.333 -25.666 -38.333 -42.999 -51s-40 -19 -68 -19
c-46 0 -79.333 14.833 -100 44.5s-31 72.5 -31 128.5v182c0 56 11.167 98.833 33.5 128.5s55.833 44.5 100.5 44.5c27.333 0 49.666 -5.83301 66.999 -17.5s31.333 -28.834 42 -51.501zM269.002 355.998c0 14.667 -1 28.667 -3 42s-5.66699 25.166 -11 35.499
s-12.833 18.5 -22.5 24.5s-22.167 9 -37.5 9s-27.833 -3 -37.5 -9s-17.167 -14.167 -22.5 -24.5s-9 -22.166 -11 -35.499s-3 -27.333 -3 -42v-204c0 -14.667 1 -28.667 3 -42s5.66699 -25.166 11 -35.499s12.833 -18.5 22.5 -24.5s22.167 -9 37.5 -9s27.833 3 37.5 9
s17.167 14.167 22.5 24.5s9 22.166 11 35.499s3 27.333 3 42v204zM333.002 293.998h146.998v62c0 14.667 -1 28.667 -3 42s-5.66699 25.166 -11 35.499s-12.833 18.5 -22.5 24.5s-22.167 9 -37.5 9s-27.666 -3 -36.999 -9s-16.666 -14.167 -21.999 -24.5
s-9 -22.166 -11 -35.499s-3 -27.333 -3 -42v-62z" />
    <glyph glyph-name="Racute" unicode="&#x154;" horiz-adv-x="426" 
d="M367 480c0 -36.667 -7.33301 -67.668 -22 -93.001s-36 -43.666 -64 -54.999l116 -332h-67l-104 315h-93v-315h-63v665h148c50 0 87.333 -13.833 112 -41.5s37 -67.5 37 -119.5v-24zM304 511.999c0 12.667 -1.66797 24.834 -5.00098 36.501s-8.5 22 -15.5 31
s-16.167 16.167 -27.5 21.5s-25 8 -41 8h-82v-239h81c32.667 0 55.834 9.66699 69.501 29s20.5 42.666 20.5 69.999v43zM283.999 837.999l-72 -135h-52l57 135h67z" />
    <glyph glyph-name="racute" unicode="&#x155;" horiz-adv-x="287" 
d="M70 508h44.001l5 -50c11.333 18 26.333 32.5 45 43.5s39 16.5 61 16.5c12 0 22 -1 30 -3s15.667 -5.33301 23 -10l-21 -55c-5.33301 4 -11.166 6.66699 -17.499 8s-13.5 2 -21.5 2c-18.667 0 -35.334 -5 -50.001 -15s-26.334 -21.667 -35.001 -35v-410h-63v508z
M241.001 683l-72 -135h-52l57 135h67z" />
    <glyph glyph-name="Rcommaaccent" unicode="&#x156;" horiz-adv-x="427" 
d="M367 480c0 -36.667 -7.33301 -67.668 -22 -93.001s-36 -43.666 -64 -54.999l116 -332h-67l-104 315h-93v-315h-63v665h148c50 0 87.333 -13.833 112 -41.5s37 -67.5 37 -119.5v-24zM304 511.999c0 12.667 -1.66797 24.834 -5.00098 36.501s-8.5 22 -15.5 31
s-16.167 16.167 -27.5 21.5s-25 8 -41 8h-82v-239h81c32.667 0 55.834 9.66699 69.501 29s20.5 42.666 20.5 69.999v43zM201.999 -161.001h-44l26 121h63z" />
    <glyph glyph-name="rcommaaccent" unicode="&#x157;" horiz-adv-x="287" 
d="M70 508h44.001l5 -50c11.333 18 26.333 32.5 45 43.5s39 16.5 61 16.5c12 0 22 -1 30 -3s15.667 -5.33301 23 -10l-21 -55c-5.33301 4 -11.166 6.66699 -17.499 8s-13.5 2 -21.5 2c-18.667 0 -35.334 -5 -50.001 -15s-26.334 -21.667 -35.001 -35v-410h-63v508z
M96.001 -161h-44l26 121h63z" />
    <glyph glyph-name="Rcaron" unicode="&#x158;" horiz-adv-x="426" 
d="M367 480c0 -36.667 -7.33301 -67.668 -22 -93.001s-36 -43.666 -64 -54.999l116 -332h-67l-104 315h-93v-315h-63v665h148c50 0 87.333 -13.833 112 -41.5s37 -67.5 37 -119.5v-24zM304 511.999c0 12.667 -1.66797 24.834 -5.00098 36.501s-8.5 22 -15.5 31
s-16.167 16.167 -27.5 21.5s-25 8 -41 8h-82v-239h81c32.667 0 55.834 9.66699 69.501 29s20.5 42.666 20.5 69.999v43zM182.999 702.999l-69 135h49l48 -94l47 94h50l-70 -135h-55z" />
    <glyph glyph-name="rcaron" unicode="&#x159;" horiz-adv-x="287" 
d="M70 508h44.001l5 -50c11.333 18 26.333 32.5 45 43.5s39 16.5 61 16.5c12 0 22 -1 30 -3s15.667 -5.33301 23 -10l-21 -55c-5.33301 4 -11.166 6.66699 -17.499 8s-13.5 2 -21.5 2c-18.667 0 -35.334 -5 -50.001 -15s-26.334 -21.667 -35.001 -35v-410h-63v508z
M136.001 548l-69 135h49l48 -94l47 94h50l-70 -135h-55z" />
    <glyph glyph-name="Sacute" unicode="&#x15a;" horiz-adv-x="372" 
d="M42 529c0 17.333 2.66406 34.667 7.99707 52s13.833 33 25.5 47s26.667 25.333 45 34s40.166 13 65.499 13c46.667 0 82.334 -12.5 107.001 -37.5s37 -64.833 37 -119.5v-21h-63v25c0 12 -1.16699 23.833 -3.5 35.5s-6.66602 22.167 -12.999 31.5
s-14.666 16.833 -24.999 22.5s-23.5 8.5 -39.5 8.5c-25.333 0 -44.833 -9 -58.5 -27s-20.5 -39 -20.5 -63v-29c0 -22.667 6.33301 -42.667 19 -60s34.667 -36 66 -56c18.667 -12 36.334 -24.667 53.001 -38s31.334 -27.666 44.001 -42.999s22.667 -32.166 30 -50.499
s11 -38.833 11 -61.5v-56c0 -18 -2.83301 -35.667 -8.5 -53s-14.334 -32.833 -26.001 -46.5s-26.5 -24.834 -44.5 -33.501s-39.667 -13 -65 -13c-49.333 0 -85.666 13.833 -108.999 41.5s-35 66.5 -35 116.5v20h65v-25c0 -12 1.16699 -23.833 3.5 -35.5
s6.33301 -22.167 12 -31.5s13.667 -16.833 24 -22.5s23.5 -8.5 39.5 -8.5c25.333 0 45.166 8.66699 59.499 26s21.5 38.333 21.5 63v45c0 31.333 -9.16699 58.666 -27.5 81.999s-44.5 46 -78.5 68c-36 23.333 -64.833 47 -86.5 71s-32.5 54.667 -32.5 92v37z
M259.997 838.001l-72 -135h-52l57 135h67z" />
    <glyph glyph-name="sacute" unicode="&#x15b;" horiz-adv-x="350" 
d="M104 153l0.00195312 -10.001c0 -13.333 0.833008 -26 2.5 -38s5.16699 -22.833 10.5 -32.5s12.5 -17.334 21.5 -23.001s21.167 -8.5 36.5 -8.5c23.333 0 41.333 7.83301 54 23.5s19 35.5 19 59.5c0 25.333 -7 47.5 -21 66.5s-39.333 38.5 -76 58.5
c-34.667 19.333 -61.667 40 -81 62s-29 50.667 -29 86c0 14.667 2.5 29.334 7.5 44.001s13 27.667 24 39s24.667 20.5 41 27.5s36.166 10.5 59.499 10.5c45.333 0 79 -13 101 -39s33 -63.333 33 -112v-9h-62v13c0 12 -1 23.667 -3 35s-5.5 21.5 -10.5 30.5
s-12.333 16.333 -22 22s-21.834 8.5 -36.501 8.5c-26.667 0 -45 -7 -55 -21s-15 -29.333 -15 -46c0 -23.333 7.16699 -43.166 21.5 -59.499s38.833 -33.5 73.5 -51.5c40 -20 68.5 -42.833 85.5 -68.5s25.5 -55.5 25.5 -89.5c0 -16 -2.5 -32.5 -7.5 -49.5
s-12.667 -32.167 -23 -45.5s-23.833 -24.333 -40.5 -33s-37 -13 -61 -13c-47.333 0 -81.5 13.167 -102.5 39.5s-31.5 64.5 -31.5 114.5v9h61zM248.002 682.999l-72 -135h-52l57 135h67z" />
    <glyph glyph-name="Scircumflex" unicode="&#x15c;" horiz-adv-x="372" 
d="M42 529c0 17.333 2.66406 34.667 7.99707 52s13.833 33 25.5 47s26.667 25.333 45 34s40.166 13 65.499 13c46.667 0 82.334 -12.5 107.001 -37.5s37 -64.833 37 -119.5v-21h-63v25c0 12 -1.16699 23.833 -3.5 35.5s-6.66602 22.167 -12.999 31.5
s-14.666 16.833 -24.999 22.5s-23.5 8.5 -39.5 8.5c-25.333 0 -44.833 -9 -58.5 -27s-20.5 -39 -20.5 -63v-29c0 -22.667 6.33301 -42.667 19 -60s34.667 -36 66 -56c18.667 -12 36.334 -24.667 53.001 -38s31.334 -27.666 44.001 -42.999s22.667 -32.166 30 -50.499
s11 -38.833 11 -61.5v-56c0 -18 -2.83301 -35.667 -8.5 -53s-14.334 -32.833 -26.001 -46.5s-26.5 -24.834 -44.5 -33.501s-39.667 -13 -65 -13c-49.333 0 -85.666 13.833 -108.999 41.5s-35 66.5 -35 116.5v20h65v-25c0 -12 1.16699 -23.833 3.5 -35.5
s6.33301 -22.167 12 -31.5s13.667 -16.833 24 -22.5s23.5 -8.5 39.5 -8.5c25.333 0 45.166 8.66699 59.499 26s21.5 38.333 21.5 63v45c0 31.333 -9.16699 58.666 -27.5 81.999s-44.5 46 -78.5 68c-36 23.333 -64.833 47 -86.5 71s-32.5 54.667 -32.5 92v37z
M213.997 838.001l71 -135h-51l-47 93l-48 -93h-51l71 135h55z" />
    <glyph glyph-name="scircumflex" unicode="&#x15d;" horiz-adv-x="350" 
d="M104 153l0.00195312 -10.001c0 -13.333 0.833008 -26 2.5 -38s5.16699 -22.833 10.5 -32.5s12.5 -17.334 21.5 -23.001s21.167 -8.5 36.5 -8.5c23.333 0 41.333 7.83301 54 23.5s19 35.5 19 59.5c0 25.333 -7 47.5 -21 66.5s-39.333 38.5 -76 58.5
c-34.667 19.333 -61.667 40 -81 62s-29 50.667 -29 86c0 14.667 2.5 29.334 7.5 44.001s13 27.667 24 39s24.667 20.5 41 27.5s36.166 10.5 59.499 10.5c45.333 0 79 -13 101 -39s33 -63.333 33 -112v-9h-62v13c0 12 -1 23.667 -3 35s-5.5 21.5 -10.5 30.5
s-12.333 16.333 -22 22s-21.834 8.5 -36.501 8.5c-26.667 0 -45 -7 -55 -21s-15 -29.333 -15 -46c0 -23.333 7.16699 -43.166 21.5 -59.499s38.833 -33.5 73.5 -51.5c40 -20 68.5 -42.833 85.5 -68.5s25.5 -55.5 25.5 -89.5c0 -16 -2.5 -32.5 -7.5 -49.5
s-12.667 -32.167 -23 -45.5s-23.833 -24.333 -40.5 -33s-37 -13 -61 -13c-47.333 0 -81.5 13.167 -102.5 39.5s-31.5 64.5 -31.5 114.5v9h61zM202.002 682.999l71 -135h-51l-47 93l-48 -93h-51l71 135h55z" />
    <glyph glyph-name="Scedilla" unicode="&#x15e;" horiz-adv-x="372" 
d="M163 -9c-42 4.66699 -72.6699 20.502 -92.0029 47.502s-29 63.5 -29 109.5v20h65v-25c0 -12 1.16699 -23.833 3.5 -35.5s6.33301 -22.167 12 -31.5s13.667 -16.833 24 -22.5s23.5 -8.5 39.5 -8.5c25.333 0 45.166 8.66699 59.499 26s21.5 38.333 21.5 63v45
c0 31.333 -9.16699 58.666 -27.5 81.999s-44.5 46 -78.5 68c-36 23.333 -64.833 47 -86.5 71s-32.5 54.667 -32.5 92v37c0 17.333 2.66699 34.666 8 51.999s13.833 33 25.5 47s26.667 25.333 45 34s40.166 13 65.499 13c46.667 0 82.334 -12.5 107.001 -37.5
s37 -64.833 37 -119.5v-21h-63v25c0 12 -1.16699 23.833 -3.5 35.5s-6.66602 22.167 -12.999 31.5s-14.666 16.833 -24.999 22.5s-23.5 8.5 -39.5 8.5c-25.333 0 -44.833 -9 -58.5 -27s-20.5 -39 -20.5 -63v-29c0 -22.667 6.33301 -42.667 19 -60s34.667 -36 66 -56
c18.667 -12 36.334 -24.667 53.001 -38s31.334 -27.666 44.001 -42.999s22.667 -32.166 30 -50.499s11 -38.833 11 -61.5v-56c0 -16.667 -2.5 -33.334 -7.5 -50.001s-12.667 -31.667 -23 -45s-23.666 -24.5 -39.999 -33.5s-35.5 -14.5 -57.5 -16.5v-35h9
c24 0 43.5 -5.66699 58.5 -17s22.5 -31 22.5 -59c0 -26.667 -8 -47 -24 -61s-37.667 -21 -65 -21c-26.667 0 -47.334 6.16699 -62.001 18.5s-22 32.166 -22 59.499v2h43v-2c0 -26.667 13.667 -40 41 -40c13.333 0 23.833 3.5 31.5 10.5s11.5 17.833 11.5 32.5
c0 15.333 -4.33301 26.333 -13 33s-21.667 10 -39 10h-31v69z" />
    <glyph glyph-name="scedilla" unicode="&#x15f;" horiz-adv-x="350" 
d="M152 -8c-38 4.66699 -65.6631 19.834 -82.9961 45.501s-26 61.167 -26 106.5v9h61v-10c0 -13.333 0.833008 -26 2.5 -38s5.16699 -22.833 10.5 -32.5s12.5 -17.334 21.5 -23.001s21.167 -8.5 36.5 -8.5c23.333 0 41.333 7.83301 54 23.5s19 35.5 19 59.5
c0 25.333 -7 47.666 -21 66.999s-39.333 39 -76 59c-34.667 19.333 -61.667 39.833 -81 61.5s-29 50.167 -29 85.5c0 14.667 2.5 29.334 7.5 44.001s13 27.667 24 39s24.667 20.5 41 27.5s36.166 10.5 59.499 10.5c45.333 0 79 -13 101 -39s33 -63.333 33 -112v-9h-62v13
c0 12 -1 23.667 -3 35s-5.5 21.5 -10.5 30.5s-12.333 16.333 -22 22s-21.834 8.5 -36.501 8.5c-26.667 0 -45 -7 -55 -21s-15 -29.333 -15 -46c0 -23.333 7.16699 -43.166 21.5 -59.499s38.833 -33.5 73.5 -51.5c40 -20 68.5 -42.833 85.5 -68.5s25.5 -55.5 25.5 -89.5
c0 -15.333 -2.16699 -31 -6.5 -47s-11.333 -30.667 -21 -44s-22 -24.5 -37 -33.5s-33.167 -14.167 -54.5 -15.5v-35h9c24.667 0 44.5 -5.66699 59.5 -17s22.5 -31 22.5 -59c0 -26.667 -8.16699 -47 -24.5 -61s-37.833 -21 -64.5 -21s-47.334 6.16699 -62.001 18.5
s-22 32.166 -22 59.499v2h42v-2c0 -13.333 3.66699 -23.333 11 -30s17.666 -10 30.999 -10s23.833 3.5 31.5 10.5s11.5 17.833 11.5 32.5c0 15.333 -4.33301 26.333 -13 33s-21.667 10 -39 10h-31v70z" />
    <glyph glyph-name="Scaron" unicode="&#x160;" horiz-adv-x="372" 
d="M42 529c0 17.333 2.66406 34.667 7.99707 52s13.833 33 25.5 47s26.667 25.333 45 34s40.166 13 65.499 13c46.667 0 82.334 -12.5 107.001 -37.5s37 -64.833 37 -119.5v-21h-63v25c0 12 -1.16699 23.833 -3.5 35.5s-6.66602 22.167 -12.999 31.5
s-14.666 16.833 -24.999 22.5s-23.5 8.5 -39.5 8.5c-25.333 0 -44.833 -9 -58.5 -27s-20.5 -39 -20.5 -63v-29c0 -22.667 6.33301 -42.667 19 -60s34.667 -36 66 -56c18.667 -12 36.334 -24.667 53.001 -38s31.334 -27.666 44.001 -42.999s22.667 -32.166 30 -50.499
s11 -38.833 11 -61.5v-56c0 -18 -2.83301 -35.667 -8.5 -53s-14.334 -32.833 -26.001 -46.5s-26.5 -24.834 -44.5 -33.501s-39.667 -13 -65 -13c-49.333 0 -85.666 13.833 -108.999 41.5s-35 66.5 -35 116.5v20h65v-25c0 -12 1.16699 -23.833 3.5 -35.5
s6.33301 -22.167 12 -31.5s13.667 -16.833 24 -22.5s23.5 -8.5 39.5 -8.5c25.333 0 45.166 8.66699 59.499 26s21.5 38.333 21.5 63v45c0 31.333 -9.16699 58.666 -27.5 81.999s-44.5 46 -78.5 68c-36 23.333 -64.833 47 -86.5 71s-32.5 54.667 -32.5 92v37z
M158.997 703.001l-69 135h49l48 -94l47 94h50l-70 -135h-55z" />
    <glyph glyph-name="scaron" unicode="&#x161;" horiz-adv-x="350" 
d="M104 153l0.00195312 -10.001c0 -13.333 0.833008 -26 2.5 -38s5.16699 -22.833 10.5 -32.5s12.5 -17.334 21.5 -23.001s21.167 -8.5 36.5 -8.5c23.333 0 41.333 7.83301 54 23.5s19 35.5 19 59.5c0 25.333 -7 47.5 -21 66.5s-39.333 38.5 -76 58.5
c-34.667 19.333 -61.667 40 -81 62s-29 50.667 -29 86c0 14.667 2.5 29.334 7.5 44.001s13 27.667 24 39s24.667 20.5 41 27.5s36.166 10.5 59.499 10.5c45.333 0 79 -13 101 -39s33 -63.333 33 -112v-9h-62v13c0 12 -1 23.667 -3 35s-5.5 21.5 -10.5 30.5
s-12.333 16.333 -22 22s-21.834 8.5 -36.501 8.5c-26.667 0 -45 -7 -55 -21s-15 -29.333 -15 -46c0 -23.333 7.16699 -43.166 21.5 -59.499s38.833 -33.5 73.5 -51.5c40 -20 68.5 -42.833 85.5 -68.5s25.5 -55.5 25.5 -89.5c0 -16 -2.5 -32.5 -7.5 -49.5
s-12.667 -32.167 -23 -45.5s-23.833 -24.333 -40.5 -33s-37 -13 -61 -13c-47.333 0 -81.5 13.167 -102.5 39.5s-31.5 64.5 -31.5 114.5v9h61zM147.002 547.999l-69 135h49l48 -94l47 94h50l-70 -135h-55z" />
    <glyph glyph-name="uni0162" unicode="&#x162;" horiz-adv-x="380" 
d="M156 0v609h-135v56h338v-56h-139v-609h-64zM178 -161h-44l26 121h63z" />
    <glyph glyph-name="uni0163" unicode="&#x163;" horiz-adv-x="285" 
d="M271 5c-10.667 -4.66699 -21.167 -8.33398 -31.5 -11.001s-22.166 -4 -35.499 -4c-48.667 0 -83.5 13.5 -104.5 40.5s-31.5 66.833 -31.5 119.5v458h57l6 -63v-37h123v-51h-123v-314c0 -11.333 1 -22.833 3 -34.5s5.83301 -22.167 11.5 -31.5s13.667 -17 24 -23
s23.5 -9 39.5 -9c9.33301 0 17.666 0.833008 24.999 2.5s14 3.83398 20 6.50098zM157 -161h-44l26 121h63z" />
    <glyph glyph-name="Tcaron" unicode="&#x164;" horiz-adv-x="380" 
d="M156 0v609h-135v56h338v-56h-139v-609h-64zM162 703l-69 135h49l48 -94l47 94h50l-70 -135h-55z" />
    <glyph glyph-name="tcaron" unicode="&#x165;" horiz-adv-x="291" 
d="M271 5c-10.667 -4.66699 -21.167 -8.33398 -31.5 -11.001s-22.166 -4 -35.499 -4c-48.667 0 -83.5 13.5 -104.5 40.5s-31.5 66.833 -31.5 119.5v458h57l6 -63v-37h123v-51h-123v-314c0 -11.333 1 -22.833 3 -34.5s5.83301 -22.167 11.5 -31.5s13.667 -17 24 -23
s23.5 -9 39.5 -9c9.33301 0 17.666 0.833008 24.999 2.5s14 3.83398 20 6.50098zM220 576h-34l20 125h56z" />
    <glyph glyph-name="Tbar" unicode="&#x166;" horiz-adv-x="380" 
d="M64 427h92v182h-135v56h338v-56h-139v-182h95v-51h-95v-376h-64v376h-92v51z" />
    <glyph glyph-name="tbar" unicode="&#x167;" horiz-adv-x="285" 
d="M271 5c-10.667 -4.66699 -21.168 -8.33496 -31.501 -11.002s-22.166 -4 -35.499 -4c-48.667 0 -83.5 13.5 -104.5 40.5s-31.5 66.833 -31.5 119.5v458h57l6 -63v-37h123v-51h-123v-115h123v-47h-123v-152c0 -11.333 1 -22.666 3 -33.999s5.83301 -21.833 11.5 -31.5
s13.667 -17.5 24 -23.5s23.5 -9 39.5 -9c8 0 16 0.833008 24 2.5s15 3.83398 21 6.50098z" />
    <glyph glyph-name="Utilde" unicode="&#x168;" horiz-adv-x="433" 
d="M365 665v-494c0 -58.667 -12.333 -103.5 -37 -134.5s-62 -46.5 -112 -46.5s-87.167 15.5 -111.5 46.5s-36.5 75.833 -36.5 134.5v494h63v-502c0 -14 1.5 -28 4.5 -42s8 -26.667 15 -38s15.833 -20.5 26.5 -27.5s23.667 -10.5 39 -10.5c16 0 29.5 3.5 40.5 10.5
s19.833 16.167 26.5 27.5s11.5 24 14.5 38s4.5 28 4.5 42v502h63zM92 724c0 18 1.83496 32.832 5.50195 44.499s8.66699 21 15 28s13.666 12 21.999 15s16.833 4.5 25.5 4.5c12.667 0 23.834 -2.16699 33.501 -6.5s18.5 -9.33301 26.5 -15s15.667 -10.667 23 -15
s15.666 -6.5 24.999 -6.5c7.33301 0 13.5 2.5 18.5 7.5s7.5 16.167 7.5 33.5v5h49v-5c0 -18 -1.83301 -32.833 -5.5 -44.5s-8.5 -21 -14.5 -28s-13 -12 -21 -15s-16.333 -4.5 -25 -4.5c-12.667 0 -23.834 2.33301 -33.501 7s-18.667 9.83398 -27 15.501l-23.5 15.5
c-7.33301 4.66699 -15.333 7 -24 7c-8 0 -14.5 -2.66699 -19.5 -8s-7.5 -17 -7.5 -35v-4h-50v4z" />
    <glyph glyph-name="utilde" unicode="&#x169;" horiz-adv-x="409" 
d="M65 508l64.0039 0.000976562v-369c0 -14 1 -26.833 3 -38.5s5.66699 -22 11 -31s12.666 -16 21.999 -21s21.333 -7.5 36 -7.5c17.333 0 32.5 4.66699 45.5 14s22.833 20.666 29.5 33.999v419h64v-420c0 -12 2.33301 -22.167 7 -30.5s14.667 -12.5 30 -12.5v-55
c-30.667 0 -52.334 5.33301 -65.001 16s-21.334 26.667 -26.001 48c-10.667 -19.333 -25 -34.833 -43 -46.5s-40.333 -17.5 -67 -17.5c-38.667 0 -66.834 12.333 -84.501 37s-26.5 62.667 -26.5 114v367zM79.0039 569.001c0 18 1.83496 32.832 5.50195 44.499
s8.66699 21 15 28s13.666 12 21.999 15s16.833 4.5 25.5 4.5c12.667 0 23.834 -2.16699 33.501 -6.5s18.5 -9.33301 26.5 -15s15.667 -10.667 23 -15s15.666 -6.5 24.999 -6.5c7.33301 0 13.5 2.5 18.5 7.5s7.5 16.167 7.5 33.5v5h49v-5c0 -18 -1.83301 -32.833 -5.5 -44.5
s-8.5 -21 -14.5 -28s-13 -12 -21 -15s-16.333 -4.5 -25 -4.5c-12.667 0 -23.834 2.33301 -33.501 7s-18.667 9.83398 -27 15.501l-23.5 15.5c-7.33301 4.66699 -15.333 7 -24 7c-8 0 -14.5 -2.66699 -19.5 -8s-7.5 -17 -7.5 -35v-4h-50v4z" />
    <glyph glyph-name="Umacron" unicode="&#x16a;" horiz-adv-x="434" 
d="M365 665v-494c0 -58.667 -12.333 -103.5 -37 -134.5s-62 -46.5 -112 -46.5s-87.167 15.5 -111.5 46.5s-36.5 75.833 -36.5 134.5v494h63v-502c0 -14 1.5 -28 4.5 -42s8 -26.667 15 -38s15.833 -20.5 26.5 -27.5s23.667 -10.5 39 -10.5c16 0 29.5 3.5 40.5 10.5
s19.833 16.167 26.5 27.5s11.5 24 14.5 38s4.5 28 4.5 42v502h63zM119 799h199v-52h-199v52z" />
    <glyph glyph-name="umacron" unicode="&#x16b;" horiz-adv-x="409" 
d="M65 508l64.0039 0.000976562v-369c0 -14 1 -26.833 3 -38.5s5.66699 -22 11 -31s12.666 -16 21.999 -21s21.333 -7.5 36 -7.5c17.333 0 32.5 4.66699 45.5 14s22.833 20.666 29.5 33.999v419h64v-420c0 -12 2.33301 -22.167 7 -30.5s14.667 -12.5 30 -12.5v-55
c-30.667 0 -52.334 5.33301 -65.001 16s-21.334 26.667 -26.001 48c-10.667 -19.333 -25 -34.833 -43 -46.5s-40.333 -17.5 -67 -17.5c-38.667 0 -66.834 12.333 -84.501 37s-26.5 62.667 -26.5 114v367zM105.004 644.001h199v-52h-199v52z" />
    <glyph glyph-name="Ubreve" unicode="&#x16c;" horiz-adv-x="433" 
d="M365 665v-494c0 -58.667 -12.333 -103.5 -37 -134.5s-62 -46.5 -112 -46.5s-87.167 15.5 -111.5 46.5s-36.5 75.833 -36.5 134.5v494h63v-502c0 -14 1.5 -28 4.5 -42s8 -26.667 15 -38s15.833 -20.5 26.5 -27.5s23.667 -10.5 39 -10.5c16 0 29.5 3.5 40.5 10.5
s19.833 16.167 26.5 27.5s11.5 24 14.5 38s4.5 28 4.5 42v502h63zM317 820v-9c0 -26.667 -8.33301 -48.5 -25 -65.5s-41.667 -25.5 -75 -25.5s-58.333 8.5 -75 25.5s-25 38.833 -25 65.5v9h52v-9c0 -14 3.66699 -25 11 -33s19.666 -12 36.999 -12
c16.667 0 28.834 4 36.501 12s11.5 19 11.5 33v9h52z" />
    <glyph glyph-name="ubreve" unicode="&#x16d;" horiz-adv-x="409" 
d="M65 508l64.0039 0.000976562v-369c0 -14 1 -26.833 3 -38.5s5.66699 -22 11 -31s12.666 -16 21.999 -21s21.333 -7.5 36 -7.5c17.333 0 32.5 4.66699 45.5 14s22.833 20.666 29.5 33.999v419h64v-420c0 -12 2.33301 -22.167 7 -30.5s14.667 -12.5 30 -12.5v-55
c-30.667 0 -52.334 5.33301 -65.001 16s-21.334 26.667 -26.001 48c-10.667 -19.333 -25 -34.833 -43 -46.5s-40.333 -17.5 -67 -17.5c-38.667 0 -66.834 12.333 -84.501 37s-26.5 62.667 -26.5 114v367zM304.004 665.001v-9c0 -26.667 -8.33301 -48.5 -25 -65.5
s-41.667 -25.5 -75 -25.5s-58.333 8.5 -75 25.5s-25 38.833 -25 65.5v9h52v-9c0 -14 3.66699 -25 11 -33s19.666 -12 36.999 -12c16.667 0 28.834 4 36.501 12s11.5 19 11.5 33v9h52z" />
    <glyph glyph-name="Uring" unicode="&#x16e;" horiz-adv-x="433" 
d="M365 665v-494c0 -58.667 -12.333 -103.5 -37 -134.5s-62 -46.5 -112 -46.5s-87.167 15.5 -111.5 46.5s-36.5 75.833 -36.5 134.5v494h63v-502c0 -14 1.5 -28 4.5 -42s8 -26.667 15 -38s15.833 -20.5 26.5 -27.5s23.667 -10.5 39 -10.5c16 0 29.5 3.5 40.5 10.5
s19.833 16.167 26.5 27.5s11.5 24 14.5 38s4.5 28 4.5 42v502h63zM175 776c0 -11.333 3.33301 -21.333 10 -30s17.667 -13 33 -13s26.333 4.33301 33 13s10 18.667 10 30c0 12 -3.33301 22.333 -10 31s-17.667 13 -33 13s-26.333 -4.33301 -33 -13s-10 -19 -10 -31zM136 776
c0 23.333 7.33301 42.166 22 56.499s34.667 21.5 60 21.5s45.333 -7.16699 60 -21.5s22 -33.166 22 -56.499c0 -22.667 -7.33301 -41.167 -22 -55.5s-34.667 -21.5 -60 -21.5s-45.333 7.16699 -60 21.5s-22 32.833 -22 55.5z" />
    <glyph glyph-name="uring" unicode="&#x16f;" horiz-adv-x="409" 
d="M65 508l64.0039 0.000976562v-369c0 -14 1 -26.833 3 -38.5s5.66699 -22 11 -31s12.666 -16 21.999 -21s21.333 -7.5 36 -7.5c17.333 0 32.5 4.66699 45.5 14s22.833 20.666 29.5 33.999v419h64v-420c0 -12 2.33301 -22.167 7 -30.5s14.667 -12.5 30 -12.5v-55
c-30.667 0 -52.334 5.33301 -65.001 16s-21.334 26.667 -26.001 48c-10.667 -19.333 -25 -34.833 -43 -46.5s-40.333 -17.5 -67 -17.5c-38.667 0 -66.834 12.333 -84.501 37s-26.5 62.667 -26.5 114v367zM162.004 621.001c0 -11.333 3.33301 -21.333 10 -30
s17.667 -13 33 -13s26.333 4.33301 33 13s10 18.667 10 30c0 12 -3.33301 22.333 -10 31s-17.667 13 -33 13s-26.333 -4.33301 -33 -13s-10 -19 -10 -31zM123.004 621.001c0 23.333 7.33301 42.166 22 56.499s34.667 21.5 60 21.5s45.333 -7.16699 60 -21.5
s22 -33.166 22 -56.499c0 -22.667 -7.33301 -41.167 -22 -55.5s-34.667 -21.5 -60 -21.5s-45.333 7.16699 -60 21.5s-22 32.833 -22 55.5z" />
    <glyph glyph-name="Uhungarumlaut" unicode="&#x170;" horiz-adv-x="433" 
d="M365 665v-494c0 -58.667 -12.333 -103.5 -37 -134.5s-62 -46.5 -112 -46.5s-87.167 15.5 -111.5 46.5s-36.5 75.833 -36.5 134.5v494h63v-502c0 -14 1.5 -28 4.5 -42s8 -26.667 15 -38s15.833 -20.5 26.5 -27.5s23.667 -10.5 39 -10.5c16 0 29.5 3.5 40.5 10.5
s19.833 16.167 26.5 27.5s11.5 24 14.5 38s4.5 28 4.5 42v502h63zM372 838l-77 -135h-50l63 135h64zM247 838l-73 -135h-50l59 135h64z" />
    <glyph glyph-name="uhungarumlaut" unicode="&#x171;" horiz-adv-x="409" 
d="M65 508l64.0039 0.000976562v-369c0 -14 1 -26.833 3 -38.5s5.66699 -22 11 -31s12.666 -16 21.999 -21s21.333 -7.5 36 -7.5c17.333 0 32.5 4.66699 45.5 14s22.833 20.666 29.5 33.999v419h64v-420c0 -12 2.33301 -22.167 7 -30.5s14.667 -12.5 30 -12.5v-55
c-30.667 0 -52.334 5.33301 -65.001 16s-21.334 26.667 -26.001 48c-10.667 -19.333 -25 -34.833 -43 -46.5s-40.333 -17.5 -67 -17.5c-38.667 0 -66.834 12.333 -84.501 37s-26.5 62.667 -26.5 114v367zM359.004 683.001l-77 -135h-50l63 135h64zM234.004 683.001l-73 -135
h-50l59 135h64z" />
    <glyph glyph-name="Uogonek" unicode="&#x172;" horiz-adv-x="433" 
d="M365 665l0.000976562 -493.998c0 -44 -6.66699 -79.333 -20 -106s-31.666 -47 -54.999 -61c-30 -17.333 -53 -36.5 -69 -57.5s-24 -43.5 -24 -67.5c0 -13.333 3.16699 -23 9.5 -29s14.833 -9 25.5 -9s19.167 3 25.5 9s9.5 16 9.5 30v6h42v-6
c0 -21.333 -6.33301 -39.833 -19 -55.5s-32.334 -23.5 -59.001 -23.5s-46.834 6.66699 -60.501 20s-20.5 31.666 -20.5 54.999s6 44.666 18 63.999s28.333 36 49 50c-50 0 -87.333 15.5 -112 46.5s-37 75.833 -37 134.5v494h63v-502c0 -14 1.5 -28 4.5 -42s8 -26.667 15 -38
s15.833 -20.5 26.5 -27.5s23.667 -10.5 39 -10.5c16 0 29.5 3.5 40.5 10.5s19.833 16.167 26.5 27.5s11.5 24 14.5 38s4.5 28 4.5 42v502h63z" />
    <glyph glyph-name="uogonek" unicode="&#x173;" horiz-adv-x="409" 
d="M65 508l64.002 0.00292969v-370c0 -14 1 -26.833 3 -38.5s5.66699 -21.834 11 -30.501s12.666 -15.5 21.999 -20.5s21.333 -7.5 36 -7.5c17.333 0 32.5 4.66699 45.5 14s22.833 20.666 29.5 33.999v419h64v-423c0 -12 2.33301 -21.667 7 -29s14.667 -11 30 -11v-55
c-13.333 0 -25 1 -35 3c-28 -14.667 -49.5 -31.667 -64.5 -51s-22.5 -40.333 -22.5 -63c0 -13.333 3.16699 -23 9.5 -29s14.833 -9 25.5 -9s19 3 25 9s9 16 9 30v6h43v-6c0 -21.333 -6.5 -39.833 -19.5 -55.5s-32.5 -23.5 -58.5 -23.5c-27.333 0 -47.833 6.66699 -61.5 20
s-20.5 31.666 -20.5 54.999c0 29.333 9.33301 55.333 28 78s43 41 73 55c-6 5.33301 -10.667 11.833 -14 19.5s-6 16.167 -8 25.5c-10.667 -19.333 -25 -34.833 -43 -46.5s-40.333 -17.5 -67 -17.5c-38.667 0 -66.834 12.667 -84.501 38s-26.5 63 -26.5 113v367z" />
    <glyph glyph-name="Wcircumflex" unicode="&#x174;" horiz-adv-x="591" 
d="M315 665l103 -557h3l77 557h63l-103 -665h-68l-98 502h-3l-99 -502h-63l-98 665h64l69 -557h3l103 557h47zM322 838l71 -135h-51l-47 93l-48 -93h-51l71 135h55z" />
    <glyph glyph-name="wcircumflex" unicode="&#x175;" horiz-adv-x="573" 
d="M258 508h56l87 -404h3l75 404h63l-99 -508h-67l-88 394h-5l-88 -394h-67l-98 508h64l73 -404h4zM314 683l71 -135h-51l-47 93l-48 -93h-51l71 135h55z" />
    <glyph glyph-name="Ycircumflex" unicode="&#x176;" horiz-adv-x="409" 
d="M236 215v-215h-64v216l-143 449h66l107 -364h3l108 364h66zM231 838l71 -135h-51l-47 93l-48 -93h-51l71 135h55z" />
    <glyph glyph-name="ycircumflex" unicode="&#x177;" horiz-adv-x="353" 
d="M37 508h62.998l79 -410h3l82 410h63l-131 -564c-10.667 -46 -29.167 -83 -55.5 -111s-63.833 -42 -112.5 -42v54c24.667 0 47.334 8.33301 68.001 25s35.334 43 44.001 79l10 40zM203.998 683l71 -135h-51l-47 93l-48 -93h-51l71 135h55z" />
    <glyph glyph-name="Ydieresis" unicode="&#x178;" horiz-adv-x="409" 
d="M236 215v-215h-64v216l-143 449h66l107 -364h3l108 364h66zM139 810c11.333 0 20.666 -3.66699 27.999 -11s11 -16.666 11 -27.999s-3.66699 -20.5 -11 -27.5s-16.666 -10.5 -27.999 -10.5s-20.833 3.5 -28.5 10.5s-11.5 16.167 -11.5 27.5s3.83301 20.666 11.5 27.999
s17.167 11 28.5 11zM269 810c11.333 0 20.666 -3.66699 27.999 -11s11 -16.666 11 -27.999s-3.66699 -20.5 -11 -27.5s-16.666 -10.5 -27.999 -10.5s-20.666 3.5 -27.999 10.5s-11 16.167 -11 27.5s3.66699 20.666 11 27.999s16.666 11 27.999 11z" />
    <glyph glyph-name="Zacute" unicode="&#x179;" horiz-adv-x="346" 
d="M38 609v56h276v-66l-223 -544h217v-55h-276v66l223 543h-217zM247 838l-72 -135h-52l57 135h67z" />
    <glyph glyph-name="zacute" unicode="&#x17a;" horiz-adv-x="294" 
d="M36 453v55h229v-64l-177 -389h170v-55h-229v61l179 392h-172zM221 683l-72 -135h-52l57 135h67z" />
    <glyph glyph-name="Zdotaccent" unicode="&#x17b;" horiz-adv-x="346" 
d="M38 609v56h276v-66l-223 -544h217v-55h-276v66l223 543h-217zM174 810c12.667 0 22.667 -3.83301 30 -11.5s11 -17.5 11 -29.5c0 -11.333 -3.66699 -21 -11 -29s-17.333 -12 -30 -12s-22.834 4 -30.501 12s-11.5 17.667 -11.5 29c0 12 3.83301 21.833 11.5 29.5
s17.834 11.5 30.501 11.5z" />
    <glyph glyph-name="zdotaccent" unicode="&#x17c;" horiz-adv-x="294" 
d="M36 453v55h229v-64l-177 -389h170v-55h-229v61l179 392h-172zM148 655c12.667 0 22.667 -3.83301 30 -11.5s11 -17.5 11 -29.5c0 -11.333 -3.66699 -21 -11 -29s-17.333 -12 -30 -12s-22.834 4 -30.501 12s-11.5 17.667 -11.5 29c0 12 3.83301 21.833 11.5 29.5
s17.834 11.5 30.501 11.5z" />
    <glyph glyph-name="Zcaron" unicode="&#x17d;" horiz-adv-x="346" 
d="M38 609v56h276v-66l-223 -544h217v-55h-276v66l223 543h-217zM146 703l-69 135h49l48 -94l47 94h50l-70 -135h-55z" />
    <glyph glyph-name="zcaron" unicode="&#x17e;" horiz-adv-x="294" 
d="M36 453v55h229v-64l-177 -389h170v-55h-229v61l179 392h-172zM120 548l-69 135h49l48 -94l47 94h50l-70 -135h-55z" />
    <glyph glyph-name="florin" unicode="&#x192;" horiz-adv-x="483" 
d="M273 163c0 -54.667 -11.3311 -97.167 -33.998 -127.5s-58 -45.5 -106 -45.5c-26 0 -47.833 4.33301 -65.5 13s-32.167 19.667 -43.5 33l41 36c6.66699 -7.33301 15.167 -14.333 25.5 -21s23.166 -10 38.499 -10c16.667 0 30.167 3.16699 40.5 9.5
s18.5 14.666 24.5 24.999s10 22 12 35s3 26.167 3 39.5v348c0 56 11 99.5 33 130.5s57 46.5 105 46.5c27.333 0 49.833 -4.16699 67.5 -12.5s32.167 -19.166 43.5 -32.499l-41 -38c-7.33301 9.33301 -15.833 17 -25.5 23s-22.834 9 -39.501 9
c-16 0 -29.167 -3.33301 -39.5 -10s-18.333 -15.167 -24 -25.5s-9.66699 -22 -12 -35s-3.5 -25.5 -3.5 -37.5v-133h130v-51h-130v-169z" />
    <glyph glyph-name="uni0218" unicode="&#x218;" horiz-adv-x="372" 
d="M42 529c0 17.333 2.66406 34.667 7.99707 52s13.833 33 25.5 47s26.667 25.333 45 34s40.166 13 65.499 13c46.667 0 82.334 -12.5 107.001 -37.5s37 -64.833 37 -119.5v-21h-63v25c0 12 -1.16699 23.833 -3.5 35.5s-6.66602 22.167 -12.999 31.5
s-14.666 16.833 -24.999 22.5s-23.5 8.5 -39.5 8.5c-25.333 0 -44.833 -9 -58.5 -27s-20.5 -39 -20.5 -63v-29c0 -22.667 6.33301 -42.667 19 -60s34.667 -36 66 -56c18.667 -12 36.334 -24.667 53.001 -38s31.334 -27.666 44.001 -42.999s22.667 -32.166 30 -50.499
s11 -38.833 11 -61.5v-56c0 -18 -2.83301 -35.667 -8.5 -53s-14.334 -32.833 -26.001 -46.5s-26.5 -24.834 -44.5 -33.501s-39.667 -13 -65 -13c-49.333 0 -85.666 13.833 -108.999 41.5s-35 66.5 -35 116.5v20h65v-25c0 -12 1.16699 -23.833 3.5 -35.5
s6.33301 -22.167 12 -31.5s13.667 -16.833 24 -22.5s23.5 -8.5 39.5 -8.5c25.333 0 45.166 8.66699 59.499 26s21.5 38.333 21.5 63v45c0 31.333 -9.16699 58.666 -27.5 81.999s-44.5 46 -78.5 68c-36 23.333 -64.833 47 -86.5 71s-32.5 54.667 -32.5 92v37z
M177.997 -160.999h-44l26 121h63z" />
    <glyph glyph-name="uni0219" unicode="&#x219;" horiz-adv-x="350" 
d="M104 153l0.00195312 -10.001c0 -13.333 0.833008 -26 2.5 -38s5.16699 -22.833 10.5 -32.5s12.5 -17.334 21.5 -23.001s21.167 -8.5 36.5 -8.5c23.333 0 41.333 7.83301 54 23.5s19 35.5 19 59.5c0 25.333 -7 47.5 -21 66.5s-39.333 38.5 -76 58.5
c-34.667 19.333 -61.667 40 -81 62s-29 50.667 -29 86c0 14.667 2.5 29.334 7.5 44.001s13 27.667 24 39s24.667 20.5 41 27.5s36.166 10.5 59.499 10.5c45.333 0 79 -13 101 -39s33 -63.333 33 -112v-9h-62v13c0 12 -1 23.667 -3 35s-5.5 21.5 -10.5 30.5
s-12.333 16.333 -22 22s-21.834 8.5 -36.501 8.5c-26.667 0 -45 -7 -55 -21s-15 -29.333 -15 -46c0 -23.333 7.16699 -43.166 21.5 -59.499s38.833 -33.5 73.5 -51.5c40 -20 68.5 -42.833 85.5 -68.5s25.5 -55.5 25.5 -89.5c0 -16 -2.5 -32.5 -7.5 -49.5
s-12.667 -32.167 -23 -45.5s-23.833 -24.333 -40.5 -33s-37 -13 -61 -13c-47.333 0 -81.5 13.167 -102.5 39.5s-31.5 64.5 -31.5 114.5v9h61zM166.002 -161.001h-44l26 121h63z" />
    <glyph glyph-name="uni021A" unicode="&#x21a;" horiz-adv-x="380" 
d="M156 0v609h-135v56h338v-56h-139v-609h-64zM178 -161h-44l26 121h63z" />
    <glyph glyph-name="uni021B" unicode="&#x21b;" horiz-adv-x="285" 
d="M271 5c-10.667 -4.66699 -21.167 -8.33398 -31.5 -11.001s-22.166 -4 -35.499 -4c-48.667 0 -83.5 13.5 -104.5 40.5s-31.5 66.833 -31.5 119.5v458h57l6 -63v-37h123v-51h-123v-314c0 -11.333 1 -22.833 3 -34.5s5.83301 -22.167 11.5 -31.5s13.667 -17 24 -23
s23.5 -9 39.5 -9c9.33301 0 17.666 0.833008 24.999 2.5s14 3.83398 20 6.50098zM157 -161h-44l26 121h63z" />
    <glyph glyph-name="dotlessj" unicode="&#x237;" horiz-adv-x="203" 
d="M127 508l6.00098 -65v-483c0 -60.667 -10.5 -104.167 -31.5 -130.5s-56.5 -39.5 -106.5 -39.5v55c16.667 0 30 2.83301 40 8.5s17.667 13.167 23 22.5s8.66602 20.5 9.99902 33.5s2 26.833 2 41.5v557h57z" />
    <glyph glyph-name="circumflex" unicode="&#x2c6;" horiz-adv-x="437" 
d="M246 683l71 -135h-51l-47 93l-48 -93h-51l71 135h55z" />
    <glyph glyph-name="caron" unicode="&#x2c7;" horiz-adv-x="438" 
d="M191 548l-69 135h49l48 -94l47 94h50l-70 -135h-55z" />
    <glyph glyph-name="breve" unicode="&#x2d8;" horiz-adv-x="437" 
d="M318 665v-9c0 -26.667 -8.33301 -48.5 -25 -65.5s-41.667 -25.5 -75 -25.5s-58.333 8.5 -75 25.5s-25 38.833 -25 65.5v9h52v-9c0 -14 3.66699 -25 11 -33s19.666 -12 36.999 -12c16.667 0 28.834 4 36.501 12s11.5 19 11.5 33v9h52z" />
    <glyph glyph-name="dotaccent" unicode="&#x2d9;" horiz-adv-x="437" 
d="M219 655c12.667 0 22.667 -3.83301 30 -11.5s11 -17.5 11 -29.5c0 -11.333 -3.66699 -21 -11 -29s-17.333 -12 -30 -12s-22.834 4 -30.501 12s-11.5 17.667 -11.5 29c0 12 3.83301 21.833 11.5 29.5s17.834 11.5 30.501 11.5z" />
    <glyph glyph-name="ring" unicode="&#x2da;" horiz-adv-x="437" 
d="M176 621c0 -11.333 3.33301 -21.333 10 -30s17.667 -13 33 -13s26.333 4.33301 33 13s10 18.667 10 30c0 12 -3.33301 22.333 -10 31s-17.667 13 -33 13s-26.333 -4.33301 -33 -13s-10 -19 -10 -31zM137 621c0 23.333 7.33301 42.166 22 56.499s34.667 21.5 60 21.5
s45.333 -7.16699 60 -21.5s22 -33.166 22 -56.499c0 -22.667 -7.33301 -41.167 -22 -55.5s-34.667 -21.5 -60 -21.5s-45.333 7.16699 -60 21.5s-22 32.833 -22 55.5z" />
    <glyph glyph-name="ogonek" unicode="&#x2db;" horiz-adv-x="437" 
d="M338 0c-32.667 -14.667 -57.833 -32.498 -75.5 -53.498s-26.5 -43.5 -26.5 -67.5c0 -25.333 11.333 -38 34 -38c11.333 0 20 3 26 9s9 16 9 30v6h43v-6c0 -21.333 -6.5 -39.833 -19.5 -55.5s-32.5 -23.5 -58.5 -23.5c-27.333 0 -47.833 6.66699 -61.5 20
s-20.5 31.666 -20.5 54.999c0 34 12.667 63.667 38 89s57 44.666 95 57.999z" />
    <glyph glyph-name="tilde" unicode="&#x2dc;" horiz-adv-x="438" 
d="M93 569c0 18 1.83496 32.832 5.50195 44.499s8.66699 21 15 28s13.666 12 21.999 15s16.833 4.5 25.5 4.5c12.667 0 23.834 -2.16699 33.501 -6.5s18.5 -9.33301 26.5 -15s15.667 -10.667 23 -15s15.666 -6.5 24.999 -6.5c7.33301 0 13.5 2.5 18.5 7.5
s7.5 16.167 7.5 33.5v5h49v-5c0 -18 -1.83301 -32.833 -5.5 -44.5s-8.5 -21 -14.5 -28s-13 -12 -21 -15s-16.333 -4.5 -25 -4.5c-12.667 0 -23.834 2.33301 -33.501 7s-18.667 9.83398 -27 15.501l-23.5 15.5c-7.33301 4.66699 -15.333 7 -24 7
c-8 0 -14.5 -2.66699 -19.5 -8s-7.5 -17 -7.5 -35v-4h-50v4z" />
    <glyph glyph-name="hungarumlaut" unicode="&#x2dd;" horiz-adv-x="437" 
d="M379 683l-77 -135h-50l63 135h64zM254 683l-73 -135h-50l59 135h64z" />
    <glyph glyph-name="uni0394" unicode="&#x394;" horiz-adv-x="390" 
d="M302 55l-107 506l-107 -506h214zM170 665h50l136 -600v-65h-322v65z" />
    <glyph glyph-name="uni03A9" unicode="&#x3a9;" horiz-adv-x="412" 
d="M354 188c0 -34 -7.49902 -61.833 -22.499 -83.5s-33.5 -38.167 -55.5 -49.5h78v-55h-121v59c18 12 32 28.167 42 48.5s15 43.833 15 70.5v335c0 12 -1.33301 24.333 -4 37s-7.16699 24.167 -13.5 34.5s-14.833 18.833 -25.5 25.5s-24.334 10 -41.001 10
s-30.5 -3.33301 -41.5 -10s-19.667 -15.167 -26 -25.5s-10.833 -21.833 -13.5 -34.5s-4 -25 -4 -37v-335c0 -26.667 5.16699 -50.167 15.5 -70.5s24.5 -36.5 42.5 -48.5v-59h-121v55h78c-21.333 11.333 -39.666 27.833 -54.999 49.5s-23 49.5 -23 83.5v317
c0 52 12.167 93.333 36.5 124s61.166 46 110.499 46c50 0 87.333 -15.333 112 -46s37 -72 37 -124v-317z" />
    <glyph glyph-name="pi" unicode="&#x3c0;" horiz-adv-x="493" 
d="M376 0h-63v453h-134v-453h-64v453h-73v55h409v-55h-75v-453z" />
    <glyph glyph-name="Wgrave" unicode="&#x1e80;" horiz-adv-x="591" 
d="M315 665l103 -557h3l77 557h63l-103 -665h-68l-98 502h-3l-99 -502h-63l-98 665h64l69 -557h3l103 557h47zM295 838l56 -135h-51l-72 135h67z" />
    <glyph glyph-name="wgrave" unicode="&#x1e81;" horiz-adv-x="573" 
d="M258 508h56l87 -404h3l75 404h63l-99 -508h-67l-88 394h-5l-88 -394h-67l-98 508h64l73 -404h4zM287 683l56 -135h-51l-72 135h67z" />
    <glyph glyph-name="Wacute" unicode="&#x1e82;" horiz-adv-x="591" 
d="M315 665l103 -557h3l77 557h63l-103 -665h-68l-98 502h-3l-99 -502h-63l-98 665h64l69 -557h3l103 557h47zM368 838l-72 -135h-52l57 135h67z" />
    <glyph glyph-name="wacute" unicode="&#x1e83;" horiz-adv-x="573" 
d="M258 508h56l87 -404h3l75 404h63l-99 -508h-67l-88 394h-5l-88 -394h-67l-98 508h64l73 -404h4zM360 683l-72 -135h-52l57 135h67z" />
    <glyph glyph-name="Wdieresis" unicode="&#x1e84;" horiz-adv-x="591" 
d="M315 665l103 -557h3l77 557h63l-103 -665h-68l-98 502h-3l-99 -502h-63l-98 665h64l69 -557h3l103 557h47zM229 810c11.333 0 20.666 -3.66699 27.999 -11s11 -16.666 11 -27.999s-3.66699 -20.5 -11 -27.5s-16.666 -10.5 -27.999 -10.5s-20.833 3.5 -28.5 10.5
s-11.5 16.167 -11.5 27.5s3.83301 20.666 11.5 27.999s17.167 11 28.5 11zM359 810c11.333 0 20.666 -3.66699 27.999 -11s11 -16.666 11 -27.999s-3.66699 -20.5 -11 -27.5s-16.666 -10.5 -27.999 -10.5s-20.666 3.5 -27.999 10.5s-11 16.167 -11 27.5
s3.66699 20.666 11 27.999s16.666 11 27.999 11z" />
    <glyph glyph-name="wdieresis" unicode="&#x1e85;" horiz-adv-x="573" 
d="M258 508h56l87 -404h3l75 404h63l-99 -508h-67l-88 394h-5l-88 -394h-67l-98 508h64l73 -404h4zM221 655c11.333 0 20.666 -3.66699 27.999 -11s11 -16.666 11 -27.999s-3.66699 -20.5 -11 -27.5s-16.666 -10.5 -27.999 -10.5s-20.833 3.5 -28.5 10.5
s-11.5 16.167 -11.5 27.5s3.83301 20.666 11.5 27.999s17.167 11 28.5 11zM351 655c11.333 0 20.666 -3.66699 27.999 -11s11 -16.666 11 -27.999s-3.66699 -20.5 -11 -27.5s-16.666 -10.5 -27.999 -10.5s-20.666 3.5 -27.999 10.5s-11 16.167 -11 27.5
s3.66699 20.666 11 27.999s16.666 11 27.999 11z" />
    <glyph glyph-name="Ygrave" unicode="&#x1ef2;" horiz-adv-x="409" 
d="M236 215v-215h-64v216l-143 449h66l107 -364h3l108 364h66zM204 838l56 -135h-51l-72 135h67z" />
    <glyph glyph-name="ygrave" unicode="&#x1ef3;" horiz-adv-x="353" 
d="M37 508h62.998l79 -410h3l82 410h63l-131 -564c-10.667 -46 -29.167 -83 -55.5 -111s-63.833 -42 -112.5 -42v54c24.667 0 47.334 8.33301 68.001 25s35.334 43 44.001 79l10 40zM176.998 683l56 -135h-51l-72 135h67z" />
    <glyph glyph-name="endash" unicode="&#x2013;" horiz-adv-x="625" 
d="M62 350h500v-57h-500v57z" />
    <glyph glyph-name="emdash" unicode="&#x2014;" horiz-adv-x="1250" 
d="M62 350h1125v-57h-1125v57z" />
    <glyph glyph-name="quoteleft" unicode="&#x2018;" horiz-adv-x="217" 
d="M103 679h42l-19 -199h-63z" />
    <glyph glyph-name="quoteright" unicode="&#x2019;" horiz-adv-x="217" 
d="M114 480h-43l20 199h62z" />
    <glyph glyph-name="quotesinglbase" unicode="&#x201a;" horiz-adv-x="217" 
d="M114 -149h-43l20 182h62z" />
    <glyph glyph-name="quotedblleft" unicode="&#x201c;" horiz-adv-x="358" 
d="M103 679h42l-19 -199h-63zM243 679h42l-19 -199h-63z" />
    <glyph glyph-name="quotedblright" unicode="&#x201d;" horiz-adv-x="358" 
d="M114 480h-43l20 199h62zM255 480h-43l20 199h62z" />
    <glyph glyph-name="quotedblbase" unicode="&#x201e;" horiz-adv-x="358" 
d="M114 -149h-43l20 182h62zM255 -149h-43l20 182h62z" />
    <glyph glyph-name="dagger" unicode="&#x2020;" horiz-adv-x="356" 
d="M48 516h99v194h63v-194h98v-56h-98v-460h-63v460h-99v56z" />
    <glyph glyph-name="daggerdbl" unicode="&#x2021;" horiz-adv-x="356" 
d="M48 516h99v194h63v-194h98v-56h-98v-210h98v-56h-98v-194h-63v194h-99v56h99v210h-99v56z" />
    <glyph glyph-name="bullet" unicode="&#x2022;" horiz-adv-x="239" 
d="M45 328c0 23.333 7 41.666 21 54.999s31.667 20 53 20s39.166 -6.66699 53.499 -20s21.5 -31.666 21.5 -54.999s-7.16699 -41.666 -21.5 -54.999s-32.166 -20 -53.499 -20s-39 6.66699 -53 20s-21 31.666 -21 54.999z" />
    <glyph glyph-name="ellipsis" unicode="&#x2026;" horiz-adv-x="635" 
d="M57 36c0 12.667 3.83301 22.667 11.5 30s18.167 11 31.5 11c12.667 0 22.834 -3.66699 30.501 -11s11.5 -17.333 11.5 -30s-3.83301 -22.667 -11.5 -30s-17.834 -11 -30.501 -11c-13.333 0 -23.833 3.66699 -31.5 11s-11.5 17.333 -11.5 30zM493 36
c0 12.667 3.83301 22.667 11.5 30s18.167 11 31.5 11c12.667 0 22.834 -3.66699 30.501 -11s11.5 -17.333 11.5 -30s-3.83301 -22.667 -11.5 -30s-17.834 -11 -30.501 -11c-13.333 0 -23.833 3.66699 -31.5 11s-11.5 17.333 -11.5 30zM275 36
c0 12.667 3.83301 22.667 11.5 30s18.167 11 31.5 11c12.667 0 22.834 -3.66699 30.501 -11s11.5 -17.333 11.5 -30s-3.83301 -22.667 -11.5 -30s-17.834 -11 -30.501 -11c-13.333 0 -23.833 3.66699 -31.5 11s-11.5 17.333 -11.5 30z" />
    <glyph glyph-name="perthousand" unicode="&#x2030;" horiz-adv-x="1052" 
d="M266 377c0 -32.667 -8.66699 -59.667 -26 -81s-44.333 -32 -81 -32c-36 0 -62.667 10.667 -80 32s-26 48.333 -26 81v185c0 32 8.66699 58.833 26 80.5s44 32.5 80 32.5c36.667 0 63.667 -10.833 81 -32.5s26 -48.5 26 -80.5v-185zM210 568
c0 15.333 -3.66699 29.333 -11 42s-20.666 19 -39.999 19s-32.666 -6.33301 -39.999 -19s-11 -26.667 -11 -42v-197c0 -14 3.66699 -27.667 11 -41s20.666 -20 39.999 -20s32.666 6.66699 39.999 20s11 27 11 41v197zM227 0h-55l347 665h55zM693 107
c0 -32.667 -8.66699 -59.667 -26 -81s-44.333 -32 -81 -32c-36 0 -62.667 10.667 -80 32s-26 48.333 -26 81v185c0 32 8.66699 58.833 26 80.5s44 32.5 80 32.5c36.667 0 63.667 -10.833 81 -32.5s26 -48.5 26 -80.5v-185zM637 298c0 15.333 -3.66699 29.333 -11 42
s-20.666 19 -39.999 19s-32.666 -6.33301 -39.999 -19s-11 -26.667 -11 -42v-197c0 -14 3.66699 -27.667 11 -41s20.666 -20 39.999 -20s32.666 6.66699 39.999 20s11 27 11 41v197zM1000 107c0 -32.667 -8.66699 -59.667 -26 -81s-44.333 -32 -81 -32
c-36 0 -62.667 10.667 -80 32s-26 48.333 -26 81v185c0 32 8.66699 58.833 26 80.5s44 32.5 80 32.5c36.667 0 63.667 -10.833 81 -32.5s26 -48.5 26 -80.5v-185zM944 298c0 15.333 -3.66699 29.333 -11 42s-20.666 19 -39.999 19s-32.666 -6.33301 -39.999 -19
s-11 -26.667 -11 -42v-197c0 -14 3.66699 -27.667 11 -41s20.666 -20 39.999 -20s32.666 6.66699 39.999 20s11 27 11 41v197z" />
    <glyph glyph-name="guilsinglleft" unicode="&#x2039;" horiz-adv-x="287" 
d="M199 464l43 -40l-137 -132l137 -131l-43 -40l-149 143v56z" />
    <glyph glyph-name="guilsinglright" unicode="&#x203a;" horiz-adv-x="287" 
d="M88 121l-43 40l137 131l-137 132l43 40l149 -144v-56z" />
    <glyph glyph-name="fraction" unicode="&#x2044;" horiz-adv-x="119" 
d="M-86 0h-55l347 665h55z" />
    <glyph glyph-name="zerosuperior" unicode="&#x2070;" horiz-adv-x="306" 
d="M260 377c0 -32.667 -8.66699 -59.667 -26 -81s-44.333 -32 -81 -32c-36 0 -62.667 10.667 -80 32s-26 48.333 -26 81v185c0 32 8.66699 58.833 26 80.5s44 32.5 80 32.5c36.667 0 63.667 -10.833 81 -32.5s26 -48.5 26 -80.5v-185zM204 568
c0 15.333 -3.66699 29.333 -11 42s-20.666 19 -39.999 19s-32.666 -6.33301 -39.999 -19s-11 -26.667 -11 -42v-197c0 -14 3.66699 -27.667 11 -41s20.666 -20 39.999 -20s32.666 6.66699 39.999 20s11 27 11 41v197z" />
    <glyph glyph-name="foursuperior" unicode="&#x2074;" horiz-adv-x="307" 
d="M203 351h-167v58l140 260h56l-145 -271h116v74h51v-202h-51v81z" />
    <glyph glyph-name="fivesuperior" unicode="&#x2075;" horiz-adv-x="306" 
d="M46 669l209 0.00195312v-47h-156v-115c6 9.33301 15.167 17.333 27.5 24s27.5 10 45.5 10c26 0 47 -8.5 63 -25.5s24 -43.5 24 -79.5v-62c0 -32 -9 -58.333 -27 -79s-45 -31 -81 -31s-62.5 9.16699 -79.5 27.5s-25.5 42.166 -25.5 71.499v14h55v-12
c0 -14.667 3.66699 -27.5 11 -38.5s20.666 -16.5 39.999 -16.5s32.666 5.83301 39.999 17.5s11 25.167 11 40.5v70c0 15.333 -3.5 28.666 -10.5 39.999s-18.833 17 -35.5 17c-15.333 0 -27.166 -3.83301 -35.499 -11.5s-14.166 -15.5 -17.499 -23.5h-58v209z" />
    <glyph glyph-name="sixsuperior" unicode="&#x2076;" horiz-adv-x="306" 
d="M204 568l0.00292969 6.00293c0 14 -3.83301 26.667 -11.5 38s-20.834 17 -39.501 17s-31.834 -6.33301 -39.501 -19s-11.5 -26.334 -11.5 -41.001v-86c5.33301 9.33301 14.166 17.5 26.499 24.5s26.833 10.5 43.5 10.5c28 0 49.667 -8.33301 65 -25s23 -41 23 -73v-48
c0 -32 -8.66699 -58 -26 -78s-44.333 -30 -81 -30c-37.333 0 -64.333 10.167 -81 30.5s-25 46.5 -25 78.5v188c0 33.333 8.66699 60.666 26 81.999s44 32 80 32c36.667 0 63.667 -9.33301 81 -28s26 -42.334 26 -71.001v-8h-56zM153.003 310.003
c19.333 0 32.666 5.83398 39.999 17.501s11 25.167 11 40.5v49c0 15.333 -3.66699 28.666 -11 39.999s-20.666 17 -39.999 17c-18 0 -31 -5.66699 -39 -17s-12 -24 -12 -38v-51c0 -14 3.5 -27.167 10.5 -39.5s20.5 -18.5 40.5 -18.5z" />
    <glyph glyph-name="sevensuperior" unicode="&#x2077;" horiz-adv-x="307" 
d="M57 270l157 352h-178v47h232v-54l-153 -345h-58z" />
    <glyph glyph-name="eightsuperior" unicode="&#x2078;" horiz-adv-x="306" 
d="M47 582c0 28 9.16699 50.5 27.5 67.5s44.5 25.5 78.5 25.5c34.667 0 61.167 -9 79.5 -27s27.5 -39.667 27.5 -65v-16c0 -19.333 -6.5 -36 -19.5 -50s-29.833 -27.333 -50.5 -40c19.333 -12.667 35.833 -27 49.5 -43s20.5 -36 20.5 -60v-17
c0 -26.667 -8.83301 -48.834 -26.5 -66.501s-44.5 -26.5 -80.5 -26.5c-35.333 0 -61.833 9 -79.5 27s-26.5 39.667 -26.5 65v19c0 23.333 6.5 42.833 19.5 58.5s29.167 29.834 48.5 42.501c-20 13.333 -36.333 27 -49 41s-19 30.667 -19 50v15zM102 361
c0 -12 4 -23.5 12 -34.5s21 -16.5 39 -16.5s31 5.5 39 16.5s12 22.5 12 34.5v17c0 15.333 -4.66699 28.833 -14 40.5s-21.333 22.167 -36 31.5c-15.333 -8.66699 -27.833 -18.667 -37.5 -30s-14.5 -25.333 -14.5 -42v-17zM102 566c0 -24 17.333 -45.999 52 -65.999
c16.667 10 29.167 20.167 37.5 30.5s12.5 22.166 12.5 35.499v13c0 12 -4 23.333 -12 34s-21 16 -39 16s-31 -5.16699 -39 -15.5s-12 -21.833 -12 -34.5v-13z" />
    <glyph glyph-name="ninesuperior" unicode="&#x2079;" horiz-adv-x="306" 
d="M102 371l0.000976562 -7.00195c0 -15.333 4 -28.166 12 -38.499s21 -15.5 39 -15.5c17.333 0 30.166 6.33301 38.499 19s12.5 27.334 12.5 44.001v82c-6.66699 -9.33301 -16 -17.333 -28 -24s-26.667 -10 -44 -10c-27.333 0 -48.333 8 -63 24s-22 40 -22 72v48
c0 32 8.66699 58.333 26 79s44 31 80 31c36.667 0 63.667 -10.5 81 -31.5s26 -47.5 26 -79.5v-182c0 -34 -8.83301 -62.167 -26.5 -84.5s-44.5 -33.5 -80.5 -33.5s-62.667 9.33301 -80 28s-26 43 -26 73v6h55zM153.001 628.998c-18.667 0 -31.832 -6.16699 -39.499 -18.5
s-11.5 -26.166 -11.5 -41.499v-49c0 -15.333 3.83301 -28.333 11.5 -39s20.167 -16 37.5 -16c18.667 0 32.167 5.83301 40.5 17.5s12.5 24.167 12.5 37.5v49c0 15.333 -3.83301 29.166 -11.5 41.499s-20.834 18.5 -39.501 18.5z" />
    <glyph glyph-name="zeroinferior" unicode="&#x2080;" horiz-adv-x="306" 
d="M260 107c0 -32.667 -8.66699 -59.667 -26 -81s-44.333 -32 -81 -32c-36 0 -62.667 10.667 -80 32s-26 48.333 -26 81v185c0 32 8.66699 58.833 26 80.5s44 32.5 80 32.5c36.667 0 63.667 -10.833 81 -32.5s26 -48.5 26 -80.5v-185zM204 298
c0 15.333 -3.66699 29.333 -11 42s-20.666 19 -39.999 19s-32.666 -6.33301 -39.999 -19s-11 -26.667 -11 -42v-197c0 -14 3.66699 -27.667 11 -41s20.666 -20 39.999 -20s32.666 6.66699 39.999 20s11 27 11 41v197z" />
    <glyph glyph-name="oneinferior" unicode="&#x2081;" horiz-adv-x="306" 
d="M170 0v342l-98 -52l-29 43l118 66h64v-399h-55z" />
    <glyph glyph-name="twoinferior" unicode="&#x2082;" horiz-adv-x="306" 
d="M44 296l0.000976562 7.99902c0 28.667 8.66699 52.667 26 72s46 29 86 29c38 0 65 -8.66699 81 -26s24 -39.666 24 -66.999v-8c0 -36 -23.333 -83.667 -70 -143l-86 -114h156v-47h-213v53l82 110c26 33.333 45 60 57 80s18 38.667 18 56v5c0 16.667 -3.83301 30 -11.5 40
s-20.834 15 -39.501 15c-20.667 0 -35 -5.66699 -43 -17s-12 -24.333 -12 -39v-7h-55z" />
    <glyph glyph-name="threeinferior" unicode="&#x2083;" horiz-adv-x="307" 
d="M202 307c0 13.333 -3.99609 25.334 -11.9961 36.001s-21.667 16 -41 16c-18.667 0 -32 -5.5 -40 -16.5s-12 -23.5 -12 -37.5v-9h-55v7c0 30 8.83301 54.5 26.5 73.5s45.167 28.5 82.5 28.5c36.667 0 63.5 -9 80.5 -27s25.5 -40 25.5 -66v-17
c0 -20 -4.83301 -37.333 -14.5 -52s-22.834 -24.667 -39.501 -30v-2c17.333 -5.33301 30.666 -15.166 39.999 -29.499s14 -31.5 14 -51.5v-30c0 -30.667 -9 -56 -27 -76s-45 -30 -81 -30c-35.333 0 -62 8.66699 -80 26s-27 41.666 -27 72.999v13h55v-11
c0 -15.333 3.66699 -28.333 11 -39s20.666 -16 39.999 -16s33.166 6 41.499 18s12.5 26.333 12.5 43v29c0 15.333 -4.83301 28.666 -14.5 39.999s-24.167 17 -43.5 17h-31v45h30c20.667 0 35.667 5.83301 45 17.5s14 24.5 14 38.5v19z" />
    <glyph glyph-name="fourinferior" unicode="&#x2084;" horiz-adv-x="307" 
d="M203 81h-167v58l140 260h56l-145 -271h116v74h51v-202h-51v81z" />
    <glyph glyph-name="fiveinferior" unicode="&#x2085;" horiz-adv-x="306" 
d="M46 399l209 0.00195312v-47h-156v-115c6 9.33301 15.167 17.333 27.5 24s27.5 10 45.5 10c26 0 47 -8.5 63 -25.5s24 -43.5 24 -79.5v-62c0 -32 -9 -58.333 -27 -79s-45 -31 -81 -31s-62.5 9.16699 -79.5 27.5s-25.5 42.166 -25.5 71.499v14h55v-12
c0 -14.667 3.66699 -27.5 11 -38.5s20.666 -16.5 39.999 -16.5s32.666 5.83301 39.999 17.5s11 25.167 11 40.5v70c0 15.333 -3.5 28.666 -10.5 39.999s-18.833 17 -35.5 17c-15.333 0 -27.166 -3.83301 -35.499 -11.5s-14.166 -15.5 -17.499 -23.5h-58v209z" />
    <glyph glyph-name="sixinferior" unicode="&#x2086;" horiz-adv-x="306" 
d="M204 298l0.00292969 6.00293c0 14 -3.83301 26.667 -11.5 38s-20.834 17 -39.501 17s-31.834 -6.33301 -39.501 -19s-11.5 -26.334 -11.5 -41.001v-86c5.33301 9.33301 14.166 17.5 26.499 24.5s26.833 10.5 43.5 10.5c28 0 49.667 -8.33301 65 -25s23 -41 23 -73v-48
c0 -32 -8.66699 -58 -26 -78s-44.333 -30 -81 -30c-37.333 0 -64.333 10.167 -81 30.5s-25 46.5 -25 78.5v188c0 33.333 8.66699 60.666 26 81.999s44 32 80 32c36.667 0 63.667 -9.33301 81 -28s26 -42.334 26 -71.001v-8h-56zM153.003 40.0029
c19.333 0 32.666 5.83398 39.999 17.501s11 25.167 11 40.5v49c0 15.333 -3.66699 28.666 -11 39.999s-20.666 17 -39.999 17c-18 0 -31 -5.66699 -39 -17s-12 -24 -12 -38v-51c0 -14 3.5 -27.167 10.5 -39.5s20.5 -18.5 40.5 -18.5z" />
    <glyph glyph-name="seveninferior" unicode="&#x2087;" horiz-adv-x="307" 
d="M57 0l157 352h-178v47h232v-54l-153 -345h-58z" />
    <glyph glyph-name="eightinferior" unicode="&#x2088;" horiz-adv-x="306" 
d="M47 312c0 28 9.16699 50.5 27.5 67.5s44.5 25.5 78.5 25.5c34.667 0 61.167 -9 79.5 -27s27.5 -39.667 27.5 -65v-16c0 -19.333 -6.5 -36 -19.5 -50s-29.833 -27.333 -50.5 -40c19.333 -12.667 35.833 -27 49.5 -43s20.5 -36 20.5 -60v-17
c0 -26.667 -8.83301 -48.834 -26.5 -66.501s-44.5 -26.5 -80.5 -26.5c-35.333 0 -61.833 9 -79.5 27s-26.5 39.667 -26.5 65v19c0 23.333 6.5 42.833 19.5 58.5s29.167 29.834 48.5 42.501c-20 13.333 -36.333 27 -49 41s-19 30.667 -19 50v15zM102 91
c0 -12 4 -23.5 12 -34.5s21 -16.5 39 -16.5s31 5.5 39 16.5s12 22.5 12 34.5v17c0 15.333 -4.66699 28.833 -14 40.5s-21.333 22.167 -36 31.5c-15.333 -8.66699 -27.833 -18.667 -37.5 -30s-14.5 -25.333 -14.5 -42v-17zM102 296c0 -24 17.333 -45.999 52 -65.999
c16.667 10 29.167 20.167 37.5 30.5s12.5 22.166 12.5 35.499v13c0 12 -4 23.333 -12 34s-21 16 -39 16s-31 -5.16699 -39 -15.5s-12 -21.833 -12 -34.5v-13z" />
    <glyph glyph-name="nineinferior" unicode="&#x2089;" horiz-adv-x="306" 
d="M102 101l0.000976562 -7.00195c0 -15.333 4 -28.166 12 -38.499s21 -15.5 39 -15.5c17.333 0 30.166 6.33301 38.499 19s12.5 27.334 12.5 44.001v82c-6.66699 -9.33301 -16 -17.333 -28 -24s-26.667 -10 -44 -10c-27.333 0 -48.333 8 -63 24s-22 40 -22 72v48
c0 32 8.66699 58.333 26 79s44 31 80 31c36.667 0 63.667 -10.5 81 -31.5s26 -47.5 26 -79.5v-182c0 -34 -8.83301 -62.167 -26.5 -84.5s-44.5 -33.5 -80.5 -33.5s-62.667 9.33301 -80 28s-26 43 -26 73v6h55zM153.001 358.998c-18.667 0 -31.832 -6.16699 -39.499 -18.5
s-11.5 -26.166 -11.5 -41.499v-49c0 -15.333 3.83301 -28.333 11.5 -39s20.167 -16 37.5 -16c18.667 0 32.167 5.83301 40.5 17.5s12.5 24.167 12.5 37.5v49c0 15.333 -3.83301 29.166 -11.5 41.499s-20.834 18.5 -39.501 18.5z" />
    <glyph glyph-name="Euro" unicode="&#x20ac;" horiz-adv-x="440" 
d="M326 500v22c0 12 -1.5 23.833 -4.5 35.5s-7.66699 22.167 -14 31.5s-14.833 16.833 -25.5 22.5s-24 8.5 -40 8.5c-15.333 0 -28.333 -3 -39 -9s-19.334 -14 -26.001 -24s-11.5 -21.333 -14.5 -34s-4.5 -26 -4.5 -40v-108h185v-42h-185v-62h185v-42h-185v-107
c0 -13.333 1.5 -26.333 4.5 -39s7.83301 -24 14.5 -34s15.334 -18.167 26.001 -24.5s23.667 -9.5 39 -9.5c16 0 29.333 2.83301 40 8.5s19.167 13.167 25.5 22.5s11 19.833 14 31.5s4.5 23.5 4.5 35.5v22h64v-5c0 -55.333 -12.333 -97.5 -37 -126.5
s-61.667 -43.5 -111 -43.5c-50 0 -87.167 14.833 -111.5 44.5s-36.5 70.5 -36.5 122.5v102h-58v42h58v62h-58v42h58v103c0 52 12.167 92.833 36.5 122.5s61.5 44.5 111.5 44.5c49.333 0 86.333 -14.333 111 -43s37 -70 37 -124v-8h-64z" />
    <glyph glyph-name="uni2113" unicode="&#x2113;" horiz-adv-x="498" 
d="M35 211l45.001 29.501l43 29.5c4 54 14.333 107.333 31 160s37.167 99.834 61.5 141.501s51.666 75.334 81.999 101.001s61.5 38.5 93.5 38.5c23.333 0 40.166 -7.83301 50.499 -23.5s15.5 -33.834 15.5 -54.501c0 -59.333 -24 -121.666 -72 -186.999
s-119 -131.333 -213 -198c0 -30.667 1.5 -58.667 4.5 -84s7.83301 -47.166 14.5 -65.499s15.334 -32.5 26.001 -42.5s23.334 -15 38.001 -15c21.333 0 42.666 8.5 63.999 25.5s40.333 37.833 57 62.5l42 -25c-10 -14.667 -21.167 -28.834 -33.5 -42.501
s-25.5 -25.834 -39.5 -36.501s-29.167 -19.167 -45.5 -25.5s-33.5 -9.5 -51.5 -9.5c-20.667 0 -38.667 5.33301 -54 16s-28.333 25.667 -39 45s-18.667 42.666 -24 69.999s-8.33301 57.666 -9 90.999l-33 -22l-32 -20zM377.001 660.001
c-16.667 0 -35.333 -10.332 -56 -30.999s-40.5 -47.667 -59.5 -81s-36.167 -71 -51.5 -113s-26.333 -84.333 -33 -127c74 56.667 130.5 112.667 169.5 168s58.5 102.666 58.5 141.999c0 12 -2.16699 22 -6.5 30s-11.5 12 -21.5 12z" />
    <glyph glyph-name="trademark" unicode="&#x2122;" horiz-adv-x="525" 
d="M84 419v213h-65v33h169v-33h-65v-213h-39zM226 419v246h61l61 -158h3l62 158h60v-246h-38v208h-2l-71 -177h-26l-71 177h-2v-208h-37z" />
    <glyph glyph-name="Omega" unicode="&#x2126;" horiz-adv-x="412" 
d="M354 188c0 -34 -7.49902 -61.833 -22.499 -83.5s-33.5 -38.167 -55.5 -49.5h78v-55h-121v59c18 12 32 28.167 42 48.5s15 43.833 15 70.5v335c0 12 -1.33301 24.333 -4 37s-7.16699 24.167 -13.5 34.5s-14.833 18.833 -25.5 25.5s-24.334 10 -41.001 10
s-30.5 -3.33301 -41.5 -10s-19.667 -15.167 -26 -25.5s-10.833 -21.833 -13.5 -34.5s-4 -25 -4 -37v-335c0 -26.667 5.16699 -50.167 15.5 -70.5s24.5 -36.5 42.5 -48.5v-59h-121v55h78c-21.333 11.333 -39.666 27.833 -54.999 49.5s-23 49.5 -23 83.5v317
c0 52 12.167 93.333 36.5 124s61.166 46 110.499 46c50 0 87.333 -15.333 112 -46s37 -72 37 -124v-317z" />
    <glyph glyph-name="estimated" unicode="&#x212e;" horiz-adv-x="833" 
d="M207 302c-3.33301 0 -5.00195 -1.33203 -5.00195 -3.99902v-176c0 -8 2.66699 -14.667 8 -20c28 -30 60.833 -53.5 98.5 -70.5s78.5 -25.5 122.5 -25.5c46.667 0 89.834 9.66699 129.501 29s73.834 45.333 102.501 78h52c-32.667 -38 -73.667 -68.5 -123 -91.5
s-103.333 -34.5 -162 -34.5c-50 0 -96.833 8.5 -140.5 25.5s-81.667 40.167 -114 69.5s-58 63.666 -77 102.999s-28.5 81.333 -28.5 126s9.5 86.667 28.5 126s44.667 73.666 77 102.999s70.333 52.5 114 69.5s90.5 25.5 140.5 25.5s96.833 -8.5 140.5 -25.5
s81.667 -40.167 114 -69.5s58 -63.666 77 -102.999s28.5 -81.333 28.5 -126v-9h-583zM657.998 503.001c0 8 -3 15 -9 21c-28 28 -60.667 50.333 -98 67s-77.333 25 -120 25c-43.333 0 -83.833 -8.5 -121.5 -25.5s-70.5 -40.167 -98.5 -69.5c-6 -6 -9 -13.333 -9 -22v-174
c0 -3.33301 1.66699 -5 5 -5h447c2.66699 0 4 1.66699 4 5v178z" />
    <glyph glyph-name="onethird" unicode="&#x2153;" horiz-adv-x="733" 
d="M170 270v342l-98 -52l-29 43l118 66h64v-399h-55zM212 0h-55l347 665h55zM629 307c0 13.333 -3.99609 25.334 -11.9961 36.001s-21.667 16 -41 16c-18.667 0 -32 -5.5 -40 -16.5s-12 -23.5 -12 -37.5v-9h-55v7c0 30 8.83301 54.5 26.5 73.5s45.167 28.5 82.5 28.5
c36.667 0 63.5 -9 80.5 -27s25.5 -40 25.5 -66v-17c0 -20 -4.83301 -37.333 -14.5 -52s-22.834 -24.667 -39.501 -30v-2c17.333 -5.33301 30.666 -15.166 39.999 -29.499s14 -31.5 14 -51.5v-30c0 -30.667 -9 -56 -27 -76s-45 -30 -81 -30c-35.333 0 -62 8.66699 -80 26
s-27 41.666 -27 72.999v13h55v-11c0 -15.333 3.66699 -28.333 11 -39s20.666 -16 39.999 -16s33.166 6 41.499 18s12.5 26.333 12.5 43v29c0 15.333 -4.83301 28.666 -14.5 39.999s-24.167 17 -43.5 17h-31v45h30c20.667 0 35.667 5.83301 45 17.5s14 24.5 14 38.5v19z" />
    <glyph glyph-name="twothirds" unicode="&#x2154;" horiz-adv-x="733" 
d="M44 566l0.000976562 7.99902c0 28.667 8.66699 52.667 26 72s46 29 86 29c38 0 65 -8.66699 81 -26s24 -39.666 24 -66.999v-8c0 -36 -23.333 -83.667 -70 -143l-86 -114h156v-47h-213v53l82 110c26 33.333 45 60 57 80s18 38.667 18 56v5c0 16.667 -3.83301 30 -11.5 40
s-20.834 15 -39.501 15c-20.667 0 -35 -5.66699 -43 -17s-12 -24.333 -12 -39v-7h-55zM227.001 -0.000976562h-55l347 665h55zM629.001 306.999c0 13.333 -3.99609 25.334 -11.9961 36.001s-21.667 16 -41 16c-18.667 0 -32 -5.5 -40 -16.5s-12 -23.5 -12 -37.5v-9h-55v7
c0 30 8.83301 54.5 26.5 73.5s45.167 28.5 82.5 28.5c36.667 0 63.5 -9 80.5 -27s25.5 -40 25.5 -66v-17c0 -20 -4.83301 -37.333 -14.5 -52s-22.834 -24.667 -39.501 -30v-2c17.333 -5.33301 30.666 -15.166 39.999 -29.499s14 -31.5 14 -51.5v-30
c0 -30.667 -9 -56 -27 -76s-45 -30 -81 -30c-35.333 0 -62 8.66699 -80 26s-27 41.666 -27 72.999v13h55v-11c0 -15.333 3.66699 -28.333 11 -39s20.666 -16 39.999 -16s33.166 6 41.499 18s12.5 26.333 12.5 43v29c0 15.333 -4.83301 28.666 -14.5 39.999
s-24.167 17 -43.5 17h-31v45h30c20.667 0 35.667 5.83301 45 17.5s14 24.5 14 38.5v19z" />
    <glyph glyph-name="oneeighth" unicode="&#x215b;" horiz-adv-x="733" 
d="M170 270v342l-98 -52l-29 43l118 66h64v-399h-55zM216 0h-55l347 665h55zM474 312c0 28 9.16699 50.5 27.5 67.5s44.5 25.5 78.5 25.5c34.667 0 61.167 -9 79.5 -27s27.5 -39.667 27.5 -65v-16c0 -19.333 -6.5 -36 -19.5 -50s-29.833 -27.333 -50.5 -40
c19.333 -12.667 35.833 -27 49.5 -43s20.5 -36 20.5 -60v-17c0 -26.667 -8.83301 -48.834 -26.5 -66.501s-44.5 -26.5 -80.5 -26.5c-35.333 0 -61.833 9 -79.5 27s-26.5 39.667 -26.5 65v19c0 23.333 6.5 42.833 19.5 58.5s29.167 29.834 48.5 42.501
c-20 13.333 -36.333 27 -49 41s-19 30.667 -19 50v15zM529 91c0 -12 4 -23.5 12 -34.5s21 -16.5 39 -16.5s31 5.5 39 16.5s12 22.5 12 34.5v17c0 15.333 -4.66699 28.833 -14 40.5s-21.333 22.167 -36 31.5c-15.333 -8.66699 -27.833 -18.667 -37.5 -30
s-14.5 -25.333 -14.5 -42v-17zM529 296c0 -24 17.333 -45.999 52 -65.999c16.667 10 29.167 20.167 37.5 30.5s12.5 22.166 12.5 35.499v13c0 12 -4 23.333 -12 34s-21 16 -39 16s-31 -5.16699 -39 -15.5s-12 -21.833 -12 -34.5v-13z" />
    <glyph glyph-name="threeeighths" unicode="&#x215c;" horiz-adv-x="734" 
d="M202 577c0 13.333 -3.99609 25.334 -11.9961 36.001s-21.667 16 -41 16c-18.667 0 -32 -5.5 -40 -16.5s-12 -23.5 -12 -37.5v-9h-55v7c0 30 8.83301 54.5 26.5 73.5s45.167 28.5 82.5 28.5c36.667 0 63.5 -9 80.5 -27s25.5 -40 25.5 -66v-17
c0 -20 -4.83301 -37.333 -14.5 -52s-22.834 -24.667 -39.501 -30v-2c17.333 -5.33301 30.666 -15.166 39.999 -29.499s14 -31.5 14 -51.5v-30c0 -30.667 -9 -56 -27 -76s-45 -30 -81 -30c-35.333 0 -62 8.66699 -80 26s-27 41.666 -27 72.999v13h55v-11
c0 -15.333 3.66699 -28.333 11 -39s20.666 -16 39.999 -16s33.166 6 41.499 18s12.5 26.333 12.5 43v29c0 15.333 -4.83301 28.666 -14.5 39.999s-24.167 17 -43.5 17h-31v45h30c20.667 0 35.667 5.83301 45 17.5s14 24.5 14 38.5v19zM220.004 0.000976562h-55l347 665h55z
M474.004 312.001c0 28 9.16699 50.5 27.5 67.5s44.5 25.5 78.5 25.5c34.667 0 61.167 -9 79.5 -27s27.5 -39.667 27.5 -65v-16c0 -19.333 -6.5 -36 -19.5 -50s-29.833 -27.333 -50.5 -40c19.333 -12.667 35.833 -27 49.5 -43s20.5 -36 20.5 -60v-17
c0 -26.667 -8.83301 -48.834 -26.5 -66.501s-44.5 -26.5 -80.5 -26.5c-35.333 0 -61.833 9 -79.5 27s-26.5 39.667 -26.5 65v19c0 23.333 6.5 42.833 19.5 58.5s29.167 29.834 48.5 42.501c-20 13.333 -36.333 27 -49 41s-19 30.667 -19 50v15zM529.004 91.001
c0 -12 4 -23.5 12 -34.5s21 -16.5 39 -16.5s31 5.5 39 16.5s12 22.5 12 34.5v17c0 15.333 -4.66699 28.833 -14 40.5s-21.333 22.167 -36 31.5c-15.333 -8.66699 -27.833 -18.667 -37.5 -30s-14.5 -25.333 -14.5 -42v-17zM529.004 296.001c0 -24 17.333 -45.999 52 -65.999
c16.667 10 29.167 20.167 37.5 30.5s12.5 22.166 12.5 35.499v13c0 12 -4 23.333 -12 34s-21 16 -39 16s-31 -5.16699 -39 -15.5s-12 -21.833 -12 -34.5v-13z" />
    </font>
</defs>
</svg>
